%TF.GenerationSoftware,KiCad,Pcbnew,10.0.1*%
%TF.CreationDate,2026-05-31T15:19:40+02:00*%
%TF.ProjectId,InclinationMeter,496e636c-696e-4617-9469-6f6e4d657465,rev?*%
%TF.SameCoordinates,Original*%
%TF.FileFunction,Copper,L2,Inr*%
%TF.FilePolarity,Positive*%
%FSLAX46Y46*%
G04 Gerber Fmt 4.6, Leading zero omitted, Abs format (unit mm)*
G04 Created by KiCad (PCBNEW 10.0.1) date 2026-05-31 15:19:40*
%MOMM*%
%LPD*%
G01*
G04 APERTURE LIST*
G04 Aperture macros list*
%AMFreePoly0*
4,1,5,1.500000,-2.000000,-1.500000,-2.000000,-1.500000,2.000000,1.500000,2.000000,1.500000,-2.000000,1.500000,-2.000000,$1*%
G04 Aperture macros list end*
%TA.AperFunction,ComponentPad*%
%ADD10R,1.500000X1.500000*%
%TD*%
%TA.AperFunction,ComponentPad*%
%ADD11C,1.500000*%
%TD*%
%TA.AperFunction,ComponentPad*%
%ADD12C,3.600000*%
%TD*%
%TA.AperFunction,ComponentPad*%
%ADD13C,1.700000*%
%TD*%
%TA.AperFunction,ComponentPad*%
%ADD14R,1.700000X1.700000*%
%TD*%
%TA.AperFunction,ComponentPad*%
%ADD15FreePoly0,90.000000*%
%TD*%
%TA.AperFunction,ComponentPad*%
%ADD16FreePoly0,270.000000*%
%TD*%
%TA.AperFunction,ViaPad*%
%ADD17C,0.600000*%
%TD*%
G04 APERTURE END LIST*
D10*
%TO.N,5V0*%
%TO.C,J7*%
X61700000Y-97250000D03*
D11*
%TO.N,GND*%
X61700000Y-95250000D03*
%TO.N,Net-(J7-Pad3)*%
X61700000Y-93250000D03*
%TD*%
D12*
%TO.N,GND*%
%TO.C,H2*%
X54000000Y-34000000D03*
%TD*%
%TO.N,GND*%
%TO.C,H3*%
X136000000Y-34000000D03*
%TD*%
%TO.N,GND*%
%TO.C,H4*%
X54000000Y-96000000D03*
%TD*%
%TO.N,GND*%
%TO.C,H1*%
X136000000Y-96000000D03*
%TD*%
D10*
%TO.N,BAT+*%
%TO.C,J1*%
X137430000Y-73250000D03*
D11*
%TO.N,BAT-*%
X137430000Y-75250000D03*
%TD*%
D13*
%TO.N,Net-(SW1-A)*%
%TO.C,SW1*%
X110500000Y-49000000D03*
D14*
%TO.N,GND*%
X110500000Y-46500000D03*
D13*
%TO.N,Net-(SW1-B)*%
X110500000Y-44000000D03*
%TO.N,Net-(SW1-SW1)*%
X125000000Y-49000000D03*
%TO.N,GND*%
X125000000Y-44000000D03*
D15*
X118000000Y-52300000D03*
X118000000Y-40700000D03*
%TD*%
D13*
%TO.N,Net-(SW2-A)*%
%TO.C,SW2*%
X79500000Y-44000000D03*
D14*
%TO.N,GND*%
X79500000Y-46500000D03*
D13*
%TO.N,Net-(SW2-B)*%
X79500000Y-49000000D03*
%TO.N,Net-(SW2-SW1)*%
X65000000Y-44000000D03*
%TO.N,GND*%
X65000000Y-49000000D03*
D16*
X72000000Y-40700000D03*
X72000000Y-52300000D03*
%TD*%
D17*
%TO.N,DISP_ON_5V*%
X95000000Y-92000000D03*
X95250000Y-94750000D03*
%TO.N,GND*%
X56500000Y-84000000D03*
X102000000Y-92450000D03*
X67250000Y-97000000D03*
X105750000Y-89750000D03*
X132500000Y-86250000D03*
X75500000Y-70250000D03*
X71250000Y-97000000D03*
X113250000Y-95285000D03*
X74500000Y-92750000D03*
X119500000Y-64750000D03*
X99250000Y-75250000D03*
X100250000Y-39250000D03*
X97500000Y-42000000D03*
X134250000Y-48000000D03*
X52000000Y-80250000D03*
X76250000Y-61500000D03*
X137250000Y-81000000D03*
X90500000Y-47000000D03*
X90000000Y-84750000D03*
X119000000Y-73500000D03*
X125250000Y-74000000D03*
X82250000Y-35000000D03*
X117500000Y-74250000D03*
X128250000Y-83500000D03*
X106100000Y-61000000D03*
X67750000Y-96250000D03*
X61500000Y-62750000D03*
X137250000Y-80250000D03*
X137250000Y-78750000D03*
X85750000Y-53750000D03*
X98750000Y-65250000D03*
X109000000Y-66000000D03*
X126800000Y-97550000D03*
X123750000Y-74000000D03*
X94750000Y-64000000D03*
X92500000Y-96000000D03*
X133500000Y-56000000D03*
X88250000Y-46250000D03*
X53750000Y-86750000D03*
X91000000Y-91500000D03*
X133500000Y-55250000D03*
X107000000Y-94200000D03*
X89500000Y-47750000D03*
X90000000Y-53750000D03*
X119000000Y-72750000D03*
X134250000Y-51000000D03*
X88250000Y-44250000D03*
X92000000Y-38250000D03*
X123000000Y-74000000D03*
X88250000Y-42750000D03*
X88250000Y-43500000D03*
X113000000Y-59500000D03*
X92250000Y-61500000D03*
X90000000Y-85500000D03*
X134250000Y-50250000D03*
X88250000Y-83750000D03*
X114750000Y-93535000D03*
X119000000Y-74250000D03*
X94750000Y-58750000D03*
X58750000Y-61750000D03*
X115500000Y-35000000D03*
X52000000Y-79000000D03*
X81500000Y-35000000D03*
X115500000Y-34250000D03*
X98500000Y-87000000D03*
X82750000Y-95500000D03*
X129000000Y-54250000D03*
X99400000Y-62600000D03*
X126750000Y-82750000D03*
X97500000Y-73250000D03*
X90500000Y-90000000D03*
X105200000Y-90850000D03*
X99400000Y-61900000D03*
X60750000Y-74750000D03*
X55000000Y-80250000D03*
X105500000Y-61000000D03*
X75250000Y-92750000D03*
X89500000Y-48500000D03*
X67250000Y-97750000D03*
X126000000Y-74000000D03*
X73500000Y-93750000D03*
X115500000Y-38250000D03*
X98250000Y-42000000D03*
X119500000Y-65500000D03*
X54000000Y-75000000D03*
X109000000Y-66750000D03*
X119500000Y-67000000D03*
X91250000Y-38250000D03*
X118250000Y-74250000D03*
X101000000Y-97250000D03*
X100250000Y-40000000D03*
X69250000Y-92175000D03*
X89000000Y-96000000D03*
X92500000Y-35250000D03*
X70500000Y-93675000D03*
X132000000Y-57000000D03*
X132000000Y-88000000D03*
X128000000Y-80500000D03*
X71750000Y-93675000D03*
X92750000Y-38250000D03*
X101750000Y-50000000D03*
X80750000Y-35000000D03*
X100500000Y-92450000D03*
X57750000Y-74750000D03*
X58000000Y-67750000D03*
X91250000Y-36500000D03*
X100250000Y-79750000D03*
X77750000Y-61500000D03*
X92500000Y-34500000D03*
X109000000Y-68250000D03*
X106700000Y-61000000D03*
X137250000Y-79500000D03*
X74500000Y-84250000D03*
X90500000Y-89250000D03*
X57750000Y-60250000D03*
X81250000Y-40250000D03*
X90250000Y-49250000D03*
X104900000Y-61000000D03*
X55000000Y-74000000D03*
X88750000Y-68000000D03*
X99250000Y-42750000D03*
X101250000Y-92450000D03*
X101750000Y-44500000D03*
X66000000Y-94600000D03*
X102000000Y-46250000D03*
X113000000Y-60400000D03*
X53750000Y-86000000D03*
X70500000Y-92175000D03*
X119500000Y-64000000D03*
X109000000Y-69750000D03*
X134250000Y-47250000D03*
X131000000Y-85500000D03*
X58000000Y-67000000D03*
X81750000Y-38500000D03*
X113000000Y-58700000D03*
X52000000Y-84000000D03*
X99500000Y-79750000D03*
X130750000Y-89250000D03*
X127500000Y-83500000D03*
X134250000Y-48750000D03*
X60500000Y-61750000D03*
X98000000Y-79750000D03*
X109000000Y-69000000D03*
X124500000Y-74000000D03*
X80500000Y-40750000D03*
X77000000Y-61500000D03*
X98800000Y-61900000D03*
X92500000Y-95250000D03*
X87250000Y-51250000D03*
X104300000Y-61000000D03*
X60250000Y-85000000D03*
X81049997Y-38500000D03*
X69250000Y-93675000D03*
X58750000Y-84750000D03*
X55000000Y-82750000D03*
X89000000Y-83750000D03*
X106750000Y-92950000D03*
X55000000Y-79000000D03*
X101750000Y-49250000D03*
X77750000Y-57000000D03*
X134250000Y-49500000D03*
X114750000Y-35000000D03*
X126750000Y-81750000D03*
X88250000Y-47000000D03*
X99231000Y-87000000D03*
X132750000Y-57000000D03*
X91000000Y-49250000D03*
X113000000Y-57750000D03*
X88750000Y-70000000D03*
X93250000Y-60000000D03*
X130750000Y-88500000D03*
X76000000Y-89000000D03*
X116250000Y-35000000D03*
X61500000Y-65750000D03*
X103000000Y-92250000D03*
X105250000Y-91700000D03*
X71750000Y-92925000D03*
X131250000Y-88000000D03*
X113000000Y-61250000D03*
X71750000Y-92175000D03*
X107000000Y-94950000D03*
X96750000Y-63250000D03*
X109700000Y-59400000D03*
X100250000Y-80500000D03*
X98750000Y-79750000D03*
X106500000Y-89750000D03*
X122250000Y-74000000D03*
X88000000Y-56750000D03*
X91000000Y-90750000D03*
X100250000Y-38500000D03*
X83750000Y-95500000D03*
X119500000Y-67750000D03*
X113250000Y-94535000D03*
X131750000Y-86250000D03*
X101000000Y-96000000D03*
X115250000Y-40750000D03*
X119500000Y-66250000D03*
X101250000Y-46000000D03*
X65200000Y-94600000D03*
X125000000Y-54250000D03*
X106750000Y-92200000D03*
X103700000Y-61000000D03*
X101750000Y-43000000D03*
X96750000Y-65250000D03*
X131000000Y-80500000D03*
X133500000Y-56750000D03*
X114000000Y-93535000D03*
X84750000Y-95500000D03*
X132750000Y-87750000D03*
X86500000Y-51250000D03*
X77000000Y-83250000D03*
X69250000Y-92925000D03*
X97750000Y-87000000D03*
X98800000Y-62600000D03*
X91250000Y-37250000D03*
X57750000Y-61000000D03*
X99000000Y-42000000D03*
X131000000Y-86250000D03*
X89000000Y-97250000D03*
X52000000Y-82790000D03*
X90500000Y-88500000D03*
X127500000Y-97550000D03*
X101750000Y-43750000D03*
%TO.N,VBUS_SENSE*%
X91250000Y-72250000D03*
X92750000Y-66000000D03*
%TO.N,BUZZER_5V*%
X92000000Y-87500000D03*
X98250000Y-88750000D03*
%TO.N,VCC*%
X72500000Y-85250000D03*
X72500000Y-87500000D03*
X106000000Y-72500000D03*
X101419236Y-76535356D03*
X119750000Y-71500000D03*
X81232059Y-79532059D03*
X98000000Y-76500000D03*
X85401729Y-75362390D03*
X121500000Y-71500000D03*
X79750000Y-81550000D03*
%TO.N,3V3_STANDBY*%
X98000000Y-61350000D03*
X100900000Y-57650000D03*
X92600000Y-51000000D03*
X97824265Y-50975735D03*
%TO.N,DISP_SCK_5V*%
X97250000Y-89000000D03*
%TO.N,DISP_CS*%
X94150000Y-74500000D03*
X96500000Y-75750000D03*
%TO.N,BUZZER*%
X94150000Y-78700735D03*
X94018329Y-80536657D03*
%TO.N,DISP_MOSI_5V*%
X96650000Y-90750000D03*
%TO.N,DISP_CS_5V*%
X96050000Y-90000000D03*
%TO.N,DISP_VCOM_5V*%
X95650000Y-91500000D03*
%TO.N,5V0*%
X73500000Y-97500000D03*
X67250000Y-94500000D03*
X93750000Y-92000000D03*
X82000000Y-76750000D03*
X86500000Y-81250000D03*
%TO.N,3V3*%
X114469669Y-72469669D03*
X81000000Y-47400000D03*
X129550000Y-81500000D03*
X82300000Y-44600000D03*
X114500000Y-74750000D03*
X63850000Y-84250000D03*
X107700000Y-42900000D03*
X62650000Y-84250000D03*
X70700000Y-64900000D03*
X124600000Y-89750000D03*
X82300000Y-43400000D03*
X72750000Y-79500000D03*
X111700000Y-42800000D03*
X80517893Y-55182107D03*
X116926017Y-89676017D03*
X72250000Y-81550000D03*
X107700000Y-44100000D03*
X72400000Y-63150000D03*
X116425000Y-47800000D03*
X129500000Y-78000000D03*
%TO.N,LED_PWR*%
X90997017Y-59741051D03*
X83500000Y-58250000D03*
%TO.N,Net-(SW1-SW1)*%
X108600000Y-50100000D03*
X117500000Y-48500000D03*
%TO.N,Net-(C39-Pad1)*%
X51530000Y-68330000D03*
X54500000Y-68500000D03*
%TO.N,Net-(SW2-SW1)*%
X79767894Y-54432108D03*
X82300000Y-50800000D03*
%TO.N,STANDBY_SENSE*%
X92250000Y-73250000D03*
X94512744Y-70987256D03*
%TO.N,CHARGE_SENSE*%
X92000000Y-66400000D03*
X91250000Y-73250000D03*
%TO.N,BLE_P1_7*%
X118600000Y-90516250D03*
X124750000Y-90766250D03*
%TO.N,~{BLE_RST}*%
X113917892Y-78100000D03*
X113375000Y-76100000D03*
%TO.N,BLE_P2_0*%
X112450735Y-76100000D03*
X112459090Y-80540910D03*
%TO.N,5V_EN*%
X90924783Y-64000000D03*
X96474783Y-71025217D03*
%TO.N,Net-(J7-Pad3)*%
X68500000Y-82462500D03*
X68250000Y-79500000D03*
%TO.N,DEBUG_UART_PC_TO_MCU*%
X69950735Y-65950735D03*
X75000000Y-62750000D03*
%TO.N,DEBUG_UART_MCU_TO_PC*%
X74203652Y-62673619D03*
X71500000Y-65250000D03*
%TO.N,SWO*%
X89163235Y-72238235D03*
X95750000Y-72000000D03*
%TO.N,EEPROM_SDA*%
X118250000Y-78750000D03*
X114136367Y-78869593D03*
%TO.N,EEPROM_SCL*%
X114703713Y-79433615D03*
X118799265Y-79450735D03*
%TO.N,TEMP_SENSE_EXT*%
X74000000Y-66000000D03*
X75750000Y-63150000D03*
%TO.N,~{CHARGE_EN}*%
X92815687Y-73815687D03*
X95078431Y-71552944D03*
%TO.N,ENC_1SW*%
X99500000Y-46100000D03*
X97000000Y-47750000D03*
%TO.N,ENC_1A*%
X94650000Y-54022793D03*
X97250000Y-52750000D03*
%TO.N,ENC_2SW*%
X92150000Y-55250000D03*
X90750000Y-45500000D03*
X93000000Y-47750000D03*
X93000000Y-58250000D03*
%TO.N,ENC_1B*%
X96520392Y-52421862D03*
X93662132Y-54162132D03*
%TO.N,LED_STATUS*%
X85250000Y-60500000D03*
X91250000Y-60500000D03*
%TO.N, ~{3v3_EN}*%
X101650000Y-67500000D03*
X91524783Y-65000000D03*
X111500000Y-67500000D03*
X94100000Y-66099999D03*
%TD*%
%TA.AperFunction,Conductor*%
%TO.N,GND*%
G36*
X137003736Y-30500726D02*
G01*
X137293796Y-30518271D01*
X137308659Y-30520076D01*
X137590797Y-30571780D01*
X137605334Y-30575363D01*
X137879182Y-30660698D01*
X137893163Y-30666000D01*
X138154734Y-30783724D01*
X138167987Y-30790680D01*
X138413458Y-30939071D01*
X138425776Y-30947573D01*
X138651573Y-31124474D01*
X138662781Y-31134404D01*
X138865595Y-31337218D01*
X138875525Y-31348426D01*
X139052422Y-31574217D01*
X139060928Y-31586541D01*
X139209319Y-31832012D01*
X139216277Y-31845269D01*
X139333994Y-32106823D01*
X139339304Y-32120825D01*
X139424635Y-32394664D01*
X139428219Y-32409202D01*
X139479923Y-32691340D01*
X139481728Y-32706205D01*
X139499274Y-32996263D01*
X139499500Y-33003750D01*
X139499500Y-96996249D01*
X139499274Y-97003736D01*
X139481728Y-97293794D01*
X139479923Y-97308659D01*
X139428219Y-97590797D01*
X139424635Y-97605335D01*
X139339304Y-97879174D01*
X139333994Y-97893176D01*
X139216277Y-98154730D01*
X139209319Y-98167987D01*
X139060928Y-98413458D01*
X139052422Y-98425782D01*
X138875525Y-98651573D01*
X138865595Y-98662781D01*
X138662781Y-98865595D01*
X138651573Y-98875525D01*
X138425782Y-99052422D01*
X138413458Y-99060928D01*
X138167987Y-99209319D01*
X138154730Y-99216277D01*
X137893176Y-99333994D01*
X137879174Y-99339304D01*
X137605335Y-99424635D01*
X137590797Y-99428219D01*
X137308659Y-99479923D01*
X137293794Y-99481728D01*
X137003736Y-99499274D01*
X136996249Y-99499500D01*
X128374000Y-99499500D01*
X128306961Y-99479815D01*
X128261206Y-99427011D01*
X128250000Y-99375500D01*
X128250000Y-98000000D01*
X113750000Y-98000000D01*
X113750908Y-99339304D01*
X113750933Y-99375416D01*
X113731294Y-99442469D01*
X113678521Y-99488259D01*
X113626933Y-99499500D01*
X53003751Y-99499500D01*
X52996264Y-99499274D01*
X52706205Y-99481728D01*
X52691340Y-99479923D01*
X52409202Y-99428219D01*
X52394664Y-99424635D01*
X52120825Y-99339304D01*
X52106827Y-99333995D01*
X51954096Y-99265256D01*
X51845269Y-99216277D01*
X51832012Y-99209319D01*
X51586541Y-99060928D01*
X51574217Y-99052422D01*
X51348426Y-98875525D01*
X51337218Y-98865595D01*
X51134404Y-98662781D01*
X51124474Y-98651573D01*
X50947573Y-98425776D01*
X50939071Y-98413458D01*
X50790680Y-98167987D01*
X50783722Y-98154730D01*
X50666000Y-97893163D01*
X50660697Y-97879179D01*
X50575363Y-97605334D01*
X50571780Y-97590797D01*
X50520076Y-97308659D01*
X50518271Y-97293794D01*
X50500726Y-97003736D01*
X50500500Y-96996249D01*
X50500500Y-93151577D01*
X60449500Y-93151577D01*
X60449500Y-93348422D01*
X60480290Y-93542826D01*
X60541117Y-93730029D01*
X60616620Y-93878211D01*
X60630476Y-93905405D01*
X60746172Y-94064646D01*
X60885354Y-94203828D01*
X60971628Y-94266510D01*
X61044596Y-94319525D01*
X61114081Y-94354929D01*
X61187108Y-94392137D01*
X61218493Y-94414940D01*
X61653554Y-94850000D01*
X61647339Y-94850000D01*
X61545606Y-94877259D01*
X61454394Y-94929920D01*
X61379920Y-95004394D01*
X61327259Y-95095606D01*
X61300000Y-95197339D01*
X61300000Y-95203552D01*
X60656320Y-94559872D01*
X60656320Y-94559873D01*
X60630902Y-94594859D01*
X60630899Y-94594863D01*
X60541582Y-94770161D01*
X60480778Y-94957294D01*
X60450000Y-95151617D01*
X60450000Y-95348382D01*
X60480778Y-95542705D01*
X60541581Y-95729835D01*
X60630906Y-95905146D01*
X60657183Y-95941314D01*
X60680663Y-96007120D01*
X60664837Y-96075174D01*
X60631178Y-96113464D01*
X60592454Y-96142453D01*
X60592452Y-96142455D01*
X60506206Y-96257664D01*
X60506202Y-96257671D01*
X60455908Y-96392517D01*
X60449501Y-96452116D01*
X60449501Y-96452123D01*
X60449500Y-96452135D01*
X60449500Y-98047870D01*
X60449501Y-98047876D01*
X60455908Y-98107483D01*
X60506202Y-98242328D01*
X60506206Y-98242335D01*
X60592452Y-98357544D01*
X60592455Y-98357547D01*
X60707664Y-98443793D01*
X60707671Y-98443797D01*
X60842517Y-98494091D01*
X60842516Y-98494091D01*
X60849444Y-98494835D01*
X60902127Y-98500500D01*
X62497872Y-98500499D01*
X62557483Y-98494091D01*
X62692331Y-98443796D01*
X62807546Y-98357546D01*
X62893796Y-98242331D01*
X62944091Y-98107483D01*
X62950500Y-98047873D01*
X62950499Y-97421153D01*
X72699500Y-97421153D01*
X72699500Y-97578846D01*
X72730261Y-97733489D01*
X72730264Y-97733501D01*
X72790602Y-97879172D01*
X72790609Y-97879185D01*
X72878210Y-98010288D01*
X72878213Y-98010292D01*
X72989707Y-98121786D01*
X72989711Y-98121789D01*
X73120814Y-98209390D01*
X73120827Y-98209397D01*
X73200348Y-98242335D01*
X73266503Y-98269737D01*
X73421153Y-98300499D01*
X73421156Y-98300500D01*
X73421158Y-98300500D01*
X73578844Y-98300500D01*
X73578845Y-98300499D01*
X73733497Y-98269737D01*
X73879179Y-98209394D01*
X74010289Y-98121789D01*
X74121789Y-98010289D01*
X74209394Y-97879179D01*
X74269737Y-97733497D01*
X74300500Y-97578842D01*
X74300500Y-97421158D01*
X74300500Y-97421155D01*
X74300499Y-97421153D01*
X74276655Y-97301281D01*
X74269737Y-97266503D01*
X74230580Y-97171969D01*
X74209397Y-97120827D01*
X74209390Y-97120814D01*
X74121789Y-96989711D01*
X74121786Y-96989707D01*
X74010292Y-96878213D01*
X74010288Y-96878210D01*
X73879185Y-96790609D01*
X73879172Y-96790602D01*
X73733501Y-96730264D01*
X73733489Y-96730261D01*
X73578845Y-96699500D01*
X73578842Y-96699500D01*
X73421158Y-96699500D01*
X73421155Y-96699500D01*
X73266510Y-96730261D01*
X73266498Y-96730264D01*
X73120827Y-96790602D01*
X73120814Y-96790609D01*
X72989711Y-96878210D01*
X72989707Y-96878213D01*
X72878213Y-96989707D01*
X72878210Y-96989711D01*
X72790609Y-97120814D01*
X72790602Y-97120827D01*
X72730264Y-97266498D01*
X72730261Y-97266510D01*
X72699500Y-97421153D01*
X62950499Y-97421153D01*
X62950499Y-97171969D01*
X62950499Y-96452129D01*
X62950498Y-96452123D01*
X62950497Y-96452116D01*
X62944091Y-96392517D01*
X62893796Y-96257669D01*
X62893795Y-96257668D01*
X62893793Y-96257664D01*
X62807547Y-96142456D01*
X62807548Y-96142456D01*
X62807546Y-96142454D01*
X62768820Y-96113464D01*
X62726951Y-96057532D01*
X62721967Y-95987840D01*
X62742817Y-95941310D01*
X62769096Y-95905141D01*
X62858418Y-95729835D01*
X62919221Y-95542705D01*
X62950000Y-95348382D01*
X62950000Y-95151617D01*
X62919221Y-94957294D01*
X62858418Y-94770164D01*
X62769096Y-94594858D01*
X62743678Y-94559873D01*
X62743677Y-94559873D01*
X62100000Y-95203551D01*
X62100000Y-95197339D01*
X62072741Y-95095606D01*
X62020080Y-95004394D01*
X61945606Y-94929920D01*
X61854394Y-94877259D01*
X61752661Y-94850000D01*
X61746447Y-94850000D01*
X62175292Y-94421153D01*
X66449500Y-94421153D01*
X66449500Y-94578846D01*
X66480261Y-94733489D01*
X66480264Y-94733501D01*
X66540602Y-94879172D01*
X66540609Y-94879185D01*
X66628210Y-95010288D01*
X66628213Y-95010292D01*
X66739707Y-95121786D01*
X66739711Y-95121789D01*
X66870814Y-95209390D01*
X66870827Y-95209397D01*
X67016498Y-95269735D01*
X67016503Y-95269737D01*
X67171153Y-95300499D01*
X67171156Y-95300500D01*
X67171158Y-95300500D01*
X67328844Y-95300500D01*
X67328845Y-95300499D01*
X67483497Y-95269737D01*
X67629179Y-95209394D01*
X67760289Y-95121789D01*
X67871789Y-95010289D01*
X67959394Y-94879179D01*
X68019737Y-94733497D01*
X68032138Y-94671153D01*
X94449500Y-94671153D01*
X94449500Y-94828846D01*
X94480261Y-94983489D01*
X94480264Y-94983501D01*
X94540602Y-95129172D01*
X94540609Y-95129185D01*
X94628210Y-95260288D01*
X94628213Y-95260292D01*
X94739707Y-95371786D01*
X94739711Y-95371789D01*
X94870814Y-95459390D01*
X94870827Y-95459397D01*
X94958245Y-95495606D01*
X95016503Y-95519737D01*
X95171153Y-95550499D01*
X95171156Y-95550500D01*
X95171158Y-95550500D01*
X95328844Y-95550500D01*
X95328845Y-95550499D01*
X95483497Y-95519737D01*
X95629179Y-95459394D01*
X95760289Y-95371789D01*
X95871789Y-95260289D01*
X95959394Y-95129179D01*
X96019737Y-94983497D01*
X96050500Y-94828842D01*
X96050500Y-94671158D01*
X96050500Y-94671155D01*
X96050499Y-94671153D01*
X96028364Y-94559873D01*
X96019737Y-94516503D01*
X96019735Y-94516498D01*
X95959397Y-94370827D01*
X95959390Y-94370814D01*
X95871789Y-94239711D01*
X95871786Y-94239707D01*
X95760292Y-94128213D01*
X95760288Y-94128210D01*
X95629185Y-94040609D01*
X95629172Y-94040602D01*
X95483501Y-93980264D01*
X95483489Y-93980261D01*
X95328845Y-93949500D01*
X95328842Y-93949500D01*
X95171158Y-93949500D01*
X95171155Y-93949500D01*
X95016510Y-93980261D01*
X95016498Y-93980264D01*
X94870827Y-94040602D01*
X94870814Y-94040609D01*
X94739711Y-94128210D01*
X94739707Y-94128213D01*
X94628213Y-94239707D01*
X94628210Y-94239711D01*
X94540609Y-94370814D01*
X94540602Y-94370827D01*
X94480264Y-94516498D01*
X94480261Y-94516510D01*
X94449500Y-94671153D01*
X68032138Y-94671153D01*
X68038161Y-94640874D01*
X68050500Y-94578844D01*
X68050500Y-94421155D01*
X68050499Y-94421153D01*
X68049027Y-94413752D01*
X68019737Y-94266503D01*
X68019735Y-94266498D01*
X67959397Y-94120827D01*
X67959390Y-94120814D01*
X67871789Y-93989711D01*
X67871786Y-93989707D01*
X67760292Y-93878213D01*
X67760288Y-93878210D01*
X67629185Y-93790609D01*
X67629172Y-93790602D01*
X67483501Y-93730264D01*
X67483489Y-93730261D01*
X67328845Y-93699500D01*
X67328842Y-93699500D01*
X67171158Y-93699500D01*
X67171155Y-93699500D01*
X67016510Y-93730261D01*
X67016498Y-93730264D01*
X66870827Y-93790602D01*
X66870814Y-93790609D01*
X66739711Y-93878210D01*
X66739707Y-93878213D01*
X66628213Y-93989707D01*
X66628210Y-93989711D01*
X66540609Y-94120814D01*
X66540602Y-94120827D01*
X66480264Y-94266498D01*
X66480261Y-94266510D01*
X66449500Y-94421153D01*
X62175292Y-94421153D01*
X62181505Y-94414940D01*
X62182419Y-94414264D01*
X62182709Y-94413752D01*
X62196401Y-94403945D01*
X62211249Y-94392988D01*
X62211952Y-94392616D01*
X62355405Y-94319524D01*
X62514646Y-94203828D01*
X62653828Y-94064646D01*
X62769524Y-93905405D01*
X62858884Y-93730025D01*
X62919709Y-93542826D01*
X62950500Y-93348422D01*
X62950500Y-93151577D01*
X62919709Y-92957173D01*
X62858882Y-92769970D01*
X62769523Y-92594594D01*
X62653828Y-92435354D01*
X62514646Y-92296172D01*
X62355405Y-92180476D01*
X62180029Y-92091117D01*
X62001155Y-92032997D01*
X61992826Y-92030290D01*
X61798422Y-91999500D01*
X61798417Y-91999500D01*
X61601583Y-91999500D01*
X61601578Y-91999500D01*
X61407173Y-92030290D01*
X61219970Y-92091117D01*
X61044594Y-92180476D01*
X60971629Y-92233489D01*
X60885354Y-92296172D01*
X60885352Y-92296174D01*
X60885351Y-92296174D01*
X60746174Y-92435351D01*
X60746174Y-92435352D01*
X60746172Y-92435354D01*
X60696485Y-92503741D01*
X60630476Y-92594594D01*
X60541117Y-92769970D01*
X60480290Y-92957173D01*
X60449500Y-93151577D01*
X50500500Y-93151577D01*
X50500500Y-91921153D01*
X92949500Y-91921153D01*
X92949500Y-92078846D01*
X92980261Y-92233489D01*
X92980264Y-92233501D01*
X93040602Y-92379172D01*
X93040609Y-92379185D01*
X93128210Y-92510288D01*
X93128213Y-92510292D01*
X93239707Y-92621786D01*
X93239711Y-92621789D01*
X93370814Y-92709390D01*
X93370827Y-92709397D01*
X93516498Y-92769735D01*
X93516503Y-92769737D01*
X93671153Y-92800499D01*
X93671156Y-92800500D01*
X93671158Y-92800500D01*
X93828844Y-92800500D01*
X93828845Y-92800499D01*
X93983497Y-92769737D01*
X94129179Y-92709394D01*
X94260289Y-92621789D01*
X94260292Y-92621786D01*
X94287319Y-92594760D01*
X94348642Y-92561275D01*
X94418334Y-92566259D01*
X94462681Y-92594760D01*
X94489707Y-92621786D01*
X94489711Y-92621789D01*
X94620814Y-92709390D01*
X94620827Y-92709397D01*
X94766498Y-92769735D01*
X94766503Y-92769737D01*
X94921153Y-92800499D01*
X94921156Y-92800500D01*
X94921158Y-92800500D01*
X95078844Y-92800500D01*
X95078845Y-92800499D01*
X95233497Y-92769737D01*
X95379179Y-92709394D01*
X95510289Y-92621789D01*
X95621789Y-92510289D01*
X95709394Y-92379179D01*
X95717799Y-92358886D01*
X95761636Y-92304484D01*
X95808163Y-92284721D01*
X95883497Y-92269737D01*
X96029179Y-92209394D01*
X96160289Y-92121789D01*
X96271789Y-92010289D01*
X96359394Y-91879179D01*
X96419737Y-91733497D01*
X96436422Y-91649617D01*
X96468806Y-91587706D01*
X96529522Y-91553132D01*
X96565066Y-91550748D01*
X96565066Y-91550500D01*
X96568774Y-91550500D01*
X96570191Y-91550405D01*
X96571156Y-91550500D01*
X96571158Y-91550500D01*
X96728844Y-91550500D01*
X96728845Y-91550499D01*
X96883497Y-91519737D01*
X97029179Y-91459394D01*
X97160289Y-91371789D01*
X97271789Y-91260289D01*
X97359394Y-91129179D01*
X97419737Y-90983497D01*
X97450500Y-90828842D01*
X97450500Y-90671158D01*
X97450500Y-90671155D01*
X97450499Y-90671153D01*
X97435369Y-90595092D01*
X97419737Y-90516503D01*
X97417163Y-90510288D01*
X97359397Y-90370827D01*
X97359390Y-90370814D01*
X97271789Y-90239711D01*
X97271786Y-90239707D01*
X97160292Y-90128213D01*
X97160288Y-90128210D01*
X97029185Y-90040609D01*
X97029172Y-90040602D01*
X96945954Y-90006133D01*
X96891550Y-89962293D01*
X96869485Y-89895998D01*
X96886764Y-89828299D01*
X96937901Y-89780688D01*
X97006660Y-89768282D01*
X97017598Y-89769955D01*
X97171155Y-89800500D01*
X97171158Y-89800500D01*
X97328844Y-89800500D01*
X97328845Y-89800499D01*
X97483497Y-89769737D01*
X97629179Y-89709394D01*
X97760289Y-89621789D01*
X97784908Y-89597170D01*
X116125517Y-89597170D01*
X116125517Y-89754863D01*
X116156278Y-89909506D01*
X116156281Y-89909518D01*
X116216619Y-90055189D01*
X116216626Y-90055202D01*
X116304227Y-90186305D01*
X116304230Y-90186309D01*
X116415724Y-90297803D01*
X116415728Y-90297806D01*
X116546831Y-90385407D01*
X116546844Y-90385414D01*
X116672371Y-90437408D01*
X116692520Y-90445754D01*
X116847170Y-90476516D01*
X116847173Y-90476517D01*
X116847175Y-90476517D01*
X117004861Y-90476517D01*
X117004862Y-90476516D01*
X117159514Y-90445754D01*
X117179675Y-90437403D01*
X117799500Y-90437403D01*
X117799500Y-90595096D01*
X117830261Y-90749739D01*
X117830264Y-90749751D01*
X117890602Y-90895422D01*
X117890609Y-90895435D01*
X117978210Y-91026538D01*
X117978213Y-91026542D01*
X118089707Y-91138036D01*
X118089711Y-91138039D01*
X118220814Y-91225640D01*
X118220827Y-91225647D01*
X118366498Y-91285985D01*
X118366503Y-91285987D01*
X118521153Y-91316749D01*
X118521156Y-91316750D01*
X118521158Y-91316750D01*
X118678844Y-91316750D01*
X118678845Y-91316749D01*
X118833497Y-91285987D01*
X118968028Y-91230263D01*
X118979172Y-91225647D01*
X118979172Y-91225646D01*
X118979179Y-91225644D01*
X119110289Y-91138039D01*
X119221789Y-91026539D01*
X119309394Y-90895429D01*
X119369737Y-90749747D01*
X119400500Y-90595092D01*
X119400500Y-90437408D01*
X119400500Y-90437405D01*
X119400499Y-90437403D01*
X119390156Y-90385407D01*
X119369737Y-90282753D01*
X119369735Y-90282748D01*
X119309397Y-90137077D01*
X119309390Y-90137064D01*
X119221789Y-90005961D01*
X119221786Y-90005957D01*
X119110292Y-89894463D01*
X119110288Y-89894460D01*
X118979185Y-89806859D01*
X118979172Y-89806852D01*
X118913443Y-89779627D01*
X118833501Y-89746514D01*
X118833489Y-89746511D01*
X118678845Y-89715750D01*
X118678842Y-89715750D01*
X118521158Y-89715750D01*
X118521155Y-89715750D01*
X118366510Y-89746511D01*
X118366498Y-89746514D01*
X118220827Y-89806852D01*
X118220814Y-89806859D01*
X118089711Y-89894460D01*
X118089707Y-89894463D01*
X117978213Y-90005957D01*
X117978210Y-90005961D01*
X117890609Y-90137064D01*
X117890602Y-90137077D01*
X117830264Y-90282748D01*
X117830261Y-90282760D01*
X117799500Y-90437403D01*
X117179675Y-90437403D01*
X117301174Y-90387077D01*
X117305189Y-90385414D01*
X117305189Y-90385413D01*
X117305196Y-90385411D01*
X117314533Y-90379172D01*
X117390798Y-90328214D01*
X117410102Y-90315314D01*
X117436306Y-90297806D01*
X117547806Y-90186306D01*
X117635411Y-90055196D01*
X117695754Y-89909514D01*
X117726517Y-89754859D01*
X117726517Y-89671153D01*
X123799500Y-89671153D01*
X123799500Y-89828846D01*
X123830261Y-89983489D01*
X123830264Y-89983501D01*
X123890602Y-90129172D01*
X123890609Y-90129185D01*
X123978210Y-90260288D01*
X123978213Y-90260292D01*
X124000877Y-90282956D01*
X124034362Y-90344279D01*
X124029378Y-90413971D01*
X124027757Y-90418089D01*
X123980264Y-90532748D01*
X123980261Y-90532760D01*
X123949500Y-90687403D01*
X123949500Y-90845096D01*
X123980261Y-90999739D01*
X123980264Y-90999751D01*
X124040602Y-91145422D01*
X124040609Y-91145435D01*
X124128210Y-91276538D01*
X124128213Y-91276542D01*
X124239707Y-91388036D01*
X124239711Y-91388039D01*
X124370814Y-91475640D01*
X124370827Y-91475647D01*
X124516498Y-91535985D01*
X124516503Y-91535987D01*
X124671153Y-91566749D01*
X124671156Y-91566750D01*
X124671158Y-91566750D01*
X124828844Y-91566750D01*
X124828845Y-91566749D01*
X124983497Y-91535987D01*
X125129179Y-91475644D01*
X125260289Y-91388039D01*
X125371789Y-91276539D01*
X125459394Y-91145429D01*
X125519737Y-90999747D01*
X125550500Y-90845092D01*
X125550500Y-90687408D01*
X125550500Y-90687405D01*
X125550499Y-90687403D01*
X125519738Y-90532760D01*
X125519737Y-90532753D01*
X125513004Y-90516498D01*
X125459397Y-90387077D01*
X125459390Y-90387064D01*
X125371789Y-90255961D01*
X125371786Y-90255957D01*
X125349122Y-90233293D01*
X125315637Y-90171970D01*
X125320621Y-90102278D01*
X125322226Y-90098198D01*
X125369737Y-89983497D01*
X125400500Y-89828842D01*
X125400500Y-89671158D01*
X125400500Y-89671155D01*
X125400499Y-89671153D01*
X125369738Y-89516510D01*
X125369737Y-89516503D01*
X125362771Y-89499685D01*
X125309397Y-89370827D01*
X125309390Y-89370814D01*
X125221789Y-89239711D01*
X125221786Y-89239707D01*
X125110292Y-89128213D01*
X125110288Y-89128210D01*
X124979185Y-89040609D01*
X124979172Y-89040602D01*
X124833501Y-88980264D01*
X124833489Y-88980261D01*
X124678845Y-88949500D01*
X124678842Y-88949500D01*
X124521158Y-88949500D01*
X124521155Y-88949500D01*
X124366510Y-88980261D01*
X124366498Y-88980264D01*
X124220827Y-89040602D01*
X124220814Y-89040609D01*
X124089711Y-89128210D01*
X124089707Y-89128213D01*
X123978213Y-89239707D01*
X123978210Y-89239711D01*
X123890609Y-89370814D01*
X123890602Y-89370827D01*
X123830264Y-89516498D01*
X123830261Y-89516510D01*
X123799500Y-89671153D01*
X117726517Y-89671153D01*
X117726517Y-89597175D01*
X117726517Y-89597172D01*
X117726516Y-89597170D01*
X117717233Y-89550500D01*
X117695754Y-89442520D01*
X117695752Y-89442515D01*
X117635414Y-89296844D01*
X117635407Y-89296831D01*
X117547806Y-89165728D01*
X117547803Y-89165724D01*
X117436309Y-89054230D01*
X117436305Y-89054227D01*
X117305202Y-88966626D01*
X117305189Y-88966619D01*
X117159518Y-88906281D01*
X117159506Y-88906278D01*
X117004862Y-88875517D01*
X117004859Y-88875517D01*
X116847175Y-88875517D01*
X116847172Y-88875517D01*
X116692527Y-88906278D01*
X116692515Y-88906281D01*
X116546844Y-88966619D01*
X116546831Y-88966626D01*
X116415728Y-89054227D01*
X116415724Y-89054230D01*
X116304230Y-89165724D01*
X116304227Y-89165728D01*
X116216626Y-89296831D01*
X116216619Y-89296844D01*
X116156281Y-89442515D01*
X116156278Y-89442527D01*
X116125517Y-89597170D01*
X97784908Y-89597170D01*
X97848908Y-89533169D01*
X97910229Y-89499685D01*
X97979920Y-89504669D01*
X97984042Y-89506291D01*
X98016497Y-89519735D01*
X98016499Y-89519735D01*
X98016503Y-89519737D01*
X98171153Y-89550499D01*
X98171156Y-89550500D01*
X98171158Y-89550500D01*
X98328844Y-89550500D01*
X98328845Y-89550499D01*
X98483497Y-89519737D01*
X98555987Y-89489711D01*
X98587829Y-89476522D01*
X98629172Y-89459397D01*
X98629172Y-89459396D01*
X98629179Y-89459394D01*
X98760289Y-89371789D01*
X98871789Y-89260289D01*
X98959394Y-89129179D01*
X99019737Y-88983497D01*
X99050500Y-88828842D01*
X99050500Y-88671158D01*
X99050500Y-88671155D01*
X99050499Y-88671153D01*
X99019738Y-88516510D01*
X99019737Y-88516503D01*
X99019735Y-88516498D01*
X98959397Y-88370827D01*
X98959390Y-88370814D01*
X98871789Y-88239711D01*
X98871786Y-88239707D01*
X98760292Y-88128213D01*
X98760288Y-88128210D01*
X98629185Y-88040609D01*
X98629172Y-88040602D01*
X98483501Y-87980264D01*
X98483489Y-87980261D01*
X98328845Y-87949500D01*
X98328842Y-87949500D01*
X98171158Y-87949500D01*
X98171155Y-87949500D01*
X98016510Y-87980261D01*
X98016498Y-87980264D01*
X97870827Y-88040602D01*
X97870814Y-88040609D01*
X97739711Y-88128210D01*
X97739707Y-88128213D01*
X97651092Y-88216829D01*
X97589769Y-88250314D01*
X97520077Y-88245330D01*
X97515959Y-88243709D01*
X97483498Y-88230263D01*
X97483488Y-88230260D01*
X97328845Y-88199500D01*
X97328842Y-88199500D01*
X97171158Y-88199500D01*
X97171155Y-88199500D01*
X97016510Y-88230261D01*
X97016498Y-88230264D01*
X96870827Y-88290602D01*
X96870814Y-88290609D01*
X96739711Y-88378210D01*
X96739707Y-88378213D01*
X96628213Y-88489707D01*
X96628210Y-88489711D01*
X96540609Y-88620814D01*
X96540602Y-88620827D01*
X96480264Y-88766498D01*
X96480261Y-88766510D01*
X96449500Y-88921153D01*
X96449500Y-89078846D01*
X96451970Y-89091263D01*
X96445743Y-89160854D01*
X96402880Y-89216032D01*
X96336990Y-89239276D01*
X96289587Y-89231163D01*
X96289324Y-89232031D01*
X96283500Y-89230264D01*
X96283497Y-89230263D01*
X96283492Y-89230262D01*
X96283489Y-89230261D01*
X96128845Y-89199500D01*
X96128842Y-89199500D01*
X95971158Y-89199500D01*
X95971155Y-89199500D01*
X95816510Y-89230261D01*
X95816498Y-89230264D01*
X95670827Y-89290602D01*
X95670814Y-89290609D01*
X95539711Y-89378210D01*
X95539707Y-89378213D01*
X95428213Y-89489707D01*
X95428210Y-89489711D01*
X95340609Y-89620814D01*
X95340602Y-89620827D01*
X95280264Y-89766498D01*
X95280261Y-89766510D01*
X95249500Y-89921153D01*
X95249500Y-90078846D01*
X95280261Y-90233489D01*
X95280264Y-90233501D01*
X95340602Y-90379172D01*
X95340609Y-90379185D01*
X95428210Y-90510288D01*
X95428213Y-90510292D01*
X95449102Y-90531181D01*
X95482587Y-90592504D01*
X95477603Y-90662196D01*
X95435731Y-90718129D01*
X95408873Y-90733423D01*
X95270827Y-90790602D01*
X95270814Y-90790609D01*
X95139711Y-90878210D01*
X95139707Y-90878213D01*
X95028213Y-90989707D01*
X95028210Y-90989711D01*
X94940609Y-91120814D01*
X94940601Y-91120828D01*
X94932197Y-91141118D01*
X94888354Y-91195520D01*
X94841831Y-91215278D01*
X94766507Y-91230261D01*
X94766498Y-91230264D01*
X94620827Y-91290602D01*
X94620814Y-91290609D01*
X94489711Y-91378210D01*
X94489707Y-91378213D01*
X94462681Y-91405240D01*
X94401358Y-91438725D01*
X94331666Y-91433741D01*
X94287319Y-91405240D01*
X94260292Y-91378213D01*
X94260288Y-91378210D01*
X94129185Y-91290609D01*
X94129172Y-91290602D01*
X93983501Y-91230264D01*
X93983489Y-91230261D01*
X93828845Y-91199500D01*
X93828842Y-91199500D01*
X93671158Y-91199500D01*
X93671155Y-91199500D01*
X93516510Y-91230261D01*
X93516498Y-91230264D01*
X93370827Y-91290602D01*
X93370814Y-91290609D01*
X93239711Y-91378210D01*
X93239707Y-91378213D01*
X93128213Y-91489707D01*
X93128210Y-91489711D01*
X93040609Y-91620814D01*
X93040602Y-91620827D01*
X92980264Y-91766498D01*
X92980261Y-91766510D01*
X92949500Y-91921153D01*
X50500500Y-91921153D01*
X50500500Y-87421153D01*
X71699500Y-87421153D01*
X71699500Y-87578846D01*
X71730261Y-87733489D01*
X71730264Y-87733501D01*
X71790602Y-87879172D01*
X71790609Y-87879185D01*
X71878210Y-88010288D01*
X71878213Y-88010292D01*
X71989707Y-88121786D01*
X71989711Y-88121789D01*
X72120814Y-88209390D01*
X72120827Y-88209397D01*
X72219611Y-88250314D01*
X72266503Y-88269737D01*
X72421153Y-88300499D01*
X72421156Y-88300500D01*
X72421158Y-88300500D01*
X72578844Y-88300500D01*
X72578845Y-88300499D01*
X72733497Y-88269737D01*
X72879179Y-88209394D01*
X73010289Y-88121789D01*
X73121789Y-88010289D01*
X73209394Y-87879179D01*
X73269737Y-87733497D01*
X73300500Y-87578842D01*
X73300500Y-87421158D01*
X73300500Y-87421155D01*
X73300499Y-87421153D01*
X91199500Y-87421153D01*
X91199500Y-87578846D01*
X91230261Y-87733489D01*
X91230264Y-87733501D01*
X91290602Y-87879172D01*
X91290609Y-87879185D01*
X91378210Y-88010288D01*
X91378213Y-88010292D01*
X91489707Y-88121786D01*
X91489711Y-88121789D01*
X91620814Y-88209390D01*
X91620827Y-88209397D01*
X91719611Y-88250314D01*
X91766503Y-88269737D01*
X91921153Y-88300499D01*
X91921156Y-88300500D01*
X91921158Y-88300500D01*
X92078844Y-88300500D01*
X92078845Y-88300499D01*
X92233497Y-88269737D01*
X92379179Y-88209394D01*
X92510289Y-88121789D01*
X92621789Y-88010289D01*
X92709394Y-87879179D01*
X92769737Y-87733497D01*
X92800500Y-87578842D01*
X92800500Y-87421158D01*
X92800500Y-87421155D01*
X92800499Y-87421153D01*
X92769738Y-87266510D01*
X92769737Y-87266503D01*
X92769735Y-87266498D01*
X92709397Y-87120827D01*
X92709390Y-87120814D01*
X92621789Y-86989711D01*
X92621786Y-86989707D01*
X92510292Y-86878213D01*
X92510288Y-86878210D01*
X92379185Y-86790609D01*
X92379172Y-86790602D01*
X92233501Y-86730264D01*
X92233489Y-86730261D01*
X92078845Y-86699500D01*
X92078842Y-86699500D01*
X91921158Y-86699500D01*
X91921155Y-86699500D01*
X91766510Y-86730261D01*
X91766498Y-86730264D01*
X91620827Y-86790602D01*
X91620814Y-86790609D01*
X91489711Y-86878210D01*
X91489707Y-86878213D01*
X91378213Y-86989707D01*
X91378210Y-86989711D01*
X91290609Y-87120814D01*
X91290602Y-87120827D01*
X91230264Y-87266498D01*
X91230261Y-87266510D01*
X91199500Y-87421153D01*
X73300499Y-87421153D01*
X73269738Y-87266510D01*
X73269737Y-87266503D01*
X73269735Y-87266498D01*
X73209397Y-87120827D01*
X73209390Y-87120814D01*
X73121789Y-86989711D01*
X73121786Y-86989707D01*
X73010292Y-86878213D01*
X73010288Y-86878210D01*
X72879185Y-86790609D01*
X72879172Y-86790602D01*
X72733501Y-86730264D01*
X72733489Y-86730261D01*
X72578845Y-86699500D01*
X72578842Y-86699500D01*
X72421158Y-86699500D01*
X72421155Y-86699500D01*
X72266510Y-86730261D01*
X72266498Y-86730264D01*
X72120827Y-86790602D01*
X72120814Y-86790609D01*
X71989711Y-86878210D01*
X71989707Y-86878213D01*
X71878213Y-86989707D01*
X71878210Y-86989711D01*
X71790609Y-87120814D01*
X71790602Y-87120827D01*
X71730264Y-87266498D01*
X71730261Y-87266510D01*
X71699500Y-87421153D01*
X50500500Y-87421153D01*
X50500500Y-85171153D01*
X71699500Y-85171153D01*
X71699500Y-85328846D01*
X71730261Y-85483489D01*
X71730264Y-85483501D01*
X71790602Y-85629172D01*
X71790609Y-85629185D01*
X71878210Y-85760288D01*
X71878213Y-85760292D01*
X71989707Y-85871786D01*
X71989711Y-85871789D01*
X72120814Y-85959390D01*
X72120827Y-85959397D01*
X72266498Y-86019735D01*
X72266503Y-86019737D01*
X72421153Y-86050499D01*
X72421156Y-86050500D01*
X72421158Y-86050500D01*
X72578844Y-86050500D01*
X72578845Y-86050499D01*
X72733497Y-86019737D01*
X72879179Y-85959394D01*
X73010289Y-85871789D01*
X73121789Y-85760289D01*
X73209394Y-85629179D01*
X73269737Y-85483497D01*
X73300500Y-85328842D01*
X73300500Y-85171158D01*
X73300500Y-85171155D01*
X73300499Y-85171153D01*
X73269738Y-85016510D01*
X73269737Y-85016503D01*
X73209794Y-84871786D01*
X73209397Y-84870827D01*
X73209390Y-84870814D01*
X73121789Y-84739711D01*
X73121786Y-84739707D01*
X73010292Y-84628213D01*
X73010288Y-84628210D01*
X72879185Y-84540609D01*
X72879172Y-84540602D01*
X72733501Y-84480264D01*
X72733489Y-84480261D01*
X72578845Y-84449500D01*
X72578842Y-84449500D01*
X72421158Y-84449500D01*
X72421155Y-84449500D01*
X72266510Y-84480261D01*
X72266498Y-84480264D01*
X72120827Y-84540602D01*
X72120814Y-84540609D01*
X71989711Y-84628210D01*
X71989707Y-84628213D01*
X71878213Y-84739707D01*
X71878210Y-84739711D01*
X71790609Y-84870814D01*
X71790602Y-84870827D01*
X71730264Y-85016498D01*
X71730261Y-85016510D01*
X71699500Y-85171153D01*
X50500500Y-85171153D01*
X50500500Y-84171153D01*
X61849500Y-84171153D01*
X61849500Y-84328846D01*
X61880261Y-84483489D01*
X61880264Y-84483501D01*
X61940602Y-84629172D01*
X61940609Y-84629185D01*
X62028210Y-84760288D01*
X62028213Y-84760292D01*
X62139707Y-84871786D01*
X62139711Y-84871789D01*
X62270814Y-84959390D01*
X62270827Y-84959397D01*
X62408683Y-85016498D01*
X62416503Y-85019737D01*
X62571153Y-85050499D01*
X62571156Y-85050500D01*
X62571158Y-85050500D01*
X62728844Y-85050500D01*
X62728845Y-85050499D01*
X62883497Y-85019737D01*
X63029179Y-84959394D01*
X63160289Y-84871789D01*
X63162312Y-84869766D01*
X63163634Y-84869043D01*
X63164999Y-84867924D01*
X63165211Y-84868182D01*
X63223632Y-84836276D01*
X63293324Y-84841255D01*
X63334939Y-84867999D01*
X63335001Y-84867924D01*
X63335648Y-84868454D01*
X63337688Y-84869766D01*
X63339711Y-84871789D01*
X63470814Y-84959390D01*
X63470827Y-84959397D01*
X63608683Y-85016498D01*
X63616503Y-85019737D01*
X63771153Y-85050499D01*
X63771156Y-85050500D01*
X63771158Y-85050500D01*
X63928844Y-85050500D01*
X63928845Y-85050499D01*
X63939179Y-85048443D01*
X63964287Y-85043450D01*
X63964292Y-85043449D01*
X64049800Y-85026439D01*
X64083497Y-85019737D01*
X64229179Y-84959394D01*
X64360289Y-84871789D01*
X64471789Y-84760289D01*
X64559394Y-84629179D01*
X64619737Y-84483497D01*
X64650500Y-84328842D01*
X64650500Y-84171158D01*
X64650500Y-84171155D01*
X64650499Y-84171153D01*
X64619738Y-84016510D01*
X64619737Y-84016503D01*
X64619735Y-84016498D01*
X64559397Y-83870827D01*
X64559390Y-83870814D01*
X64471789Y-83739711D01*
X64471786Y-83739707D01*
X64360292Y-83628213D01*
X64360288Y-83628210D01*
X64229185Y-83540609D01*
X64229172Y-83540602D01*
X64083501Y-83480264D01*
X64083489Y-83480261D01*
X63928845Y-83449500D01*
X63928842Y-83449500D01*
X63771158Y-83449500D01*
X63771155Y-83449500D01*
X63616510Y-83480261D01*
X63616498Y-83480264D01*
X63470827Y-83540602D01*
X63470814Y-83540609D01*
X63339711Y-83628210D01*
X63339707Y-83628213D01*
X63337681Y-83630240D01*
X63336357Y-83630962D01*
X63335001Y-83632076D01*
X63334789Y-83631818D01*
X63276358Y-83663725D01*
X63206666Y-83658741D01*
X63165060Y-83632001D01*
X63164999Y-83632076D01*
X63164360Y-83631552D01*
X63162319Y-83630240D01*
X63160292Y-83628213D01*
X63160288Y-83628210D01*
X63029185Y-83540609D01*
X63029172Y-83540602D01*
X62883501Y-83480264D01*
X62883489Y-83480261D01*
X62728845Y-83449500D01*
X62728842Y-83449500D01*
X62571158Y-83449500D01*
X62571155Y-83449500D01*
X62416510Y-83480261D01*
X62416498Y-83480264D01*
X62270827Y-83540602D01*
X62270814Y-83540609D01*
X62139711Y-83628210D01*
X62139707Y-83628213D01*
X62028213Y-83739707D01*
X62028210Y-83739711D01*
X61940609Y-83870814D01*
X61940602Y-83870827D01*
X61880264Y-84016498D01*
X61880261Y-84016510D01*
X61849500Y-84171153D01*
X50500500Y-84171153D01*
X50500500Y-82383653D01*
X67699500Y-82383653D01*
X67699500Y-82541346D01*
X67730261Y-82695989D01*
X67730264Y-82696001D01*
X67790602Y-82841672D01*
X67790609Y-82841685D01*
X67878210Y-82972788D01*
X67878213Y-82972792D01*
X67989707Y-83084286D01*
X67989711Y-83084289D01*
X68120814Y-83171890D01*
X68120827Y-83171897D01*
X68266498Y-83232235D01*
X68266503Y-83232237D01*
X68421153Y-83262999D01*
X68421156Y-83263000D01*
X68421158Y-83263000D01*
X68578844Y-83263000D01*
X68578845Y-83262999D01*
X68733497Y-83232237D01*
X68879179Y-83171894D01*
X69010289Y-83084289D01*
X69121789Y-82972789D01*
X69209394Y-82841679D01*
X69269737Y-82695997D01*
X69300500Y-82541342D01*
X69300500Y-82383658D01*
X69300500Y-82383655D01*
X69300499Y-82383653D01*
X69283959Y-82300500D01*
X69269737Y-82229003D01*
X69261613Y-82209390D01*
X69209397Y-82083327D01*
X69209390Y-82083314D01*
X69121789Y-81952211D01*
X69121786Y-81952207D01*
X69010292Y-81840713D01*
X69010288Y-81840710D01*
X68879185Y-81753109D01*
X68879172Y-81753102D01*
X68733501Y-81692764D01*
X68733489Y-81692761D01*
X68578845Y-81662000D01*
X68578842Y-81662000D01*
X68421158Y-81662000D01*
X68421155Y-81662000D01*
X68266510Y-81692761D01*
X68266498Y-81692764D01*
X68120827Y-81753102D01*
X68120814Y-81753109D01*
X67989711Y-81840710D01*
X67989707Y-81840713D01*
X67878213Y-81952207D01*
X67878210Y-81952211D01*
X67790609Y-82083314D01*
X67790602Y-82083327D01*
X67730264Y-82228998D01*
X67730261Y-82229010D01*
X67699500Y-82383653D01*
X50500500Y-82383653D01*
X50500500Y-81471153D01*
X71449500Y-81471153D01*
X71449500Y-81628846D01*
X71480261Y-81783489D01*
X71480264Y-81783501D01*
X71540602Y-81929172D01*
X71540609Y-81929185D01*
X71628210Y-82060288D01*
X71628213Y-82060292D01*
X71739707Y-82171786D01*
X71739711Y-82171789D01*
X71870814Y-82259390D01*
X71870827Y-82259397D01*
X71970060Y-82300500D01*
X72016503Y-82319737D01*
X72171153Y-82350499D01*
X72171156Y-82350500D01*
X72171158Y-82350500D01*
X72328844Y-82350500D01*
X72328845Y-82350499D01*
X72483497Y-82319737D01*
X72629179Y-82259394D01*
X72760289Y-82171789D01*
X72871789Y-82060289D01*
X72959394Y-81929179D01*
X73019737Y-81783497D01*
X73050500Y-81628842D01*
X73050500Y-81471158D01*
X73050500Y-81471155D01*
X73050499Y-81471153D01*
X78949500Y-81471153D01*
X78949500Y-81628846D01*
X78980261Y-81783489D01*
X78980264Y-81783501D01*
X79040602Y-81929172D01*
X79040609Y-81929185D01*
X79128210Y-82060288D01*
X79128213Y-82060292D01*
X79239707Y-82171786D01*
X79239711Y-82171789D01*
X79370814Y-82259390D01*
X79370827Y-82259397D01*
X79470060Y-82300500D01*
X79516503Y-82319737D01*
X79671153Y-82350499D01*
X79671156Y-82350500D01*
X79671158Y-82350500D01*
X79828844Y-82350500D01*
X79828845Y-82350499D01*
X79983497Y-82319737D01*
X80129179Y-82259394D01*
X80260289Y-82171789D01*
X80371789Y-82060289D01*
X80459394Y-81929179D01*
X80519737Y-81783497D01*
X80550500Y-81628842D01*
X80550500Y-81471158D01*
X80550500Y-81471155D01*
X80550499Y-81471153D01*
X80522192Y-81328846D01*
X80519737Y-81316503D01*
X80515549Y-81306392D01*
X80476666Y-81212518D01*
X80459532Y-81171153D01*
X85699500Y-81171153D01*
X85699500Y-81328846D01*
X85730261Y-81483489D01*
X85730264Y-81483501D01*
X85790602Y-81629172D01*
X85790609Y-81629185D01*
X85878210Y-81760288D01*
X85878213Y-81760292D01*
X85989707Y-81871786D01*
X85989711Y-81871789D01*
X86120814Y-81959390D01*
X86120827Y-81959397D01*
X86266498Y-82019735D01*
X86266503Y-82019737D01*
X86421153Y-82050499D01*
X86421156Y-82050500D01*
X86421158Y-82050500D01*
X86578844Y-82050500D01*
X86578845Y-82050499D01*
X86733497Y-82019737D01*
X86879179Y-81959394D01*
X87010289Y-81871789D01*
X87121789Y-81760289D01*
X87209394Y-81629179D01*
X87269737Y-81483497D01*
X87282138Y-81421153D01*
X128749500Y-81421153D01*
X128749500Y-81578846D01*
X128780261Y-81733489D01*
X128780264Y-81733501D01*
X128840602Y-81879172D01*
X128840609Y-81879185D01*
X128928210Y-82010288D01*
X128928213Y-82010292D01*
X129039707Y-82121786D01*
X129039711Y-82121789D01*
X129170814Y-82209390D01*
X129170827Y-82209397D01*
X129316498Y-82269735D01*
X129316503Y-82269737D01*
X129471153Y-82300499D01*
X129471156Y-82300500D01*
X129471158Y-82300500D01*
X129628844Y-82300500D01*
X129628845Y-82300499D01*
X129783497Y-82269737D01*
X129929179Y-82209394D01*
X130060289Y-82121789D01*
X130171789Y-82010289D01*
X130259394Y-81879179D01*
X130319737Y-81733497D01*
X130350500Y-81578842D01*
X130350500Y-81421158D01*
X130350500Y-81421155D01*
X130350499Y-81421153D01*
X130329684Y-81316510D01*
X130319737Y-81266503D01*
X130319735Y-81266498D01*
X130259397Y-81120827D01*
X130259390Y-81120814D01*
X130171789Y-80989711D01*
X130171786Y-80989707D01*
X130060292Y-80878213D01*
X130060288Y-80878210D01*
X129929185Y-80790609D01*
X129929172Y-80790602D01*
X129783501Y-80730264D01*
X129783489Y-80730261D01*
X129628845Y-80699500D01*
X129628842Y-80699500D01*
X129471158Y-80699500D01*
X129471155Y-80699500D01*
X129316510Y-80730261D01*
X129316498Y-80730264D01*
X129170827Y-80790602D01*
X129170814Y-80790609D01*
X129039711Y-80878210D01*
X129039707Y-80878213D01*
X128928213Y-80989707D01*
X128928210Y-80989711D01*
X128840609Y-81120814D01*
X128840602Y-81120827D01*
X128780264Y-81266498D01*
X128780261Y-81266510D01*
X128749500Y-81421153D01*
X87282138Y-81421153D01*
X87300500Y-81328842D01*
X87300500Y-81171158D01*
X87300500Y-81171155D01*
X87300499Y-81171153D01*
X87276639Y-81051202D01*
X87269737Y-81016503D01*
X87269735Y-81016498D01*
X87209397Y-80870827D01*
X87209390Y-80870814D01*
X87121789Y-80739711D01*
X87121786Y-80739707D01*
X87010292Y-80628213D01*
X87010288Y-80628210D01*
X86900460Y-80554825D01*
X86879185Y-80540609D01*
X86879172Y-80540602D01*
X86733501Y-80480264D01*
X86733489Y-80480261D01*
X86620622Y-80457810D01*
X93217829Y-80457810D01*
X93217829Y-80615503D01*
X93248590Y-80770146D01*
X93248593Y-80770158D01*
X93308931Y-80915829D01*
X93308938Y-80915842D01*
X93396539Y-81046945D01*
X93396542Y-81046949D01*
X93508036Y-81158443D01*
X93508040Y-81158446D01*
X93639143Y-81246047D01*
X93639156Y-81246054D01*
X93784827Y-81306392D01*
X93784832Y-81306394D01*
X93939482Y-81337156D01*
X93939485Y-81337157D01*
X93939487Y-81337157D01*
X94097173Y-81337157D01*
X94097174Y-81337156D01*
X94251826Y-81306394D01*
X94397508Y-81246051D01*
X94528618Y-81158446D01*
X94640118Y-81046946D01*
X94727723Y-80915836D01*
X94788066Y-80770154D01*
X94818829Y-80615499D01*
X94818829Y-80462063D01*
X111658590Y-80462063D01*
X111658590Y-80619756D01*
X111689351Y-80774399D01*
X111689354Y-80774411D01*
X111749692Y-80920082D01*
X111749699Y-80920095D01*
X111837300Y-81051198D01*
X111837303Y-81051202D01*
X111948797Y-81162696D01*
X111948801Y-81162699D01*
X112079904Y-81250300D01*
X112079917Y-81250307D01*
X112225588Y-81310645D01*
X112225593Y-81310647D01*
X112358862Y-81337156D01*
X112380243Y-81341409D01*
X112380246Y-81341410D01*
X112380248Y-81341410D01*
X112537934Y-81341410D01*
X112537935Y-81341409D01*
X112692587Y-81310647D01*
X112704608Y-81305667D01*
X112717073Y-81300505D01*
X112838262Y-81250307D01*
X112838262Y-81250306D01*
X112838269Y-81250304D01*
X112969379Y-81162699D01*
X113080879Y-81051199D01*
X113168484Y-80920089D01*
X113228827Y-80774407D01*
X113259590Y-80619752D01*
X113259590Y-80462068D01*
X113259590Y-80462065D01*
X113259589Y-80462063D01*
X113233829Y-80332559D01*
X113228827Y-80307413D01*
X113213221Y-80269737D01*
X113168487Y-80161737D01*
X113168480Y-80161724D01*
X113080879Y-80030621D01*
X113080876Y-80030617D01*
X112969382Y-79919123D01*
X112969378Y-79919120D01*
X112838275Y-79831519D01*
X112838262Y-79831512D01*
X112692591Y-79771174D01*
X112692579Y-79771171D01*
X112537935Y-79740410D01*
X112537932Y-79740410D01*
X112380248Y-79740410D01*
X112380245Y-79740410D01*
X112225600Y-79771171D01*
X112225588Y-79771174D01*
X112079917Y-79831512D01*
X112079904Y-79831519D01*
X111948801Y-79919120D01*
X111948797Y-79919123D01*
X111837303Y-80030617D01*
X111837300Y-80030621D01*
X111749699Y-80161724D01*
X111749692Y-80161737D01*
X111689354Y-80307408D01*
X111689351Y-80307420D01*
X111658590Y-80462063D01*
X94818829Y-80462063D01*
X94818829Y-80457815D01*
X94818829Y-80457812D01*
X94818828Y-80457810D01*
X94793914Y-80332559D01*
X94788066Y-80303160D01*
X94788064Y-80303155D01*
X94727726Y-80157484D01*
X94727719Y-80157471D01*
X94640118Y-80026368D01*
X94640115Y-80026364D01*
X94528621Y-79914870D01*
X94528617Y-79914867D01*
X94397514Y-79827266D01*
X94397501Y-79827259D01*
X94251830Y-79766921D01*
X94251818Y-79766918D01*
X94158531Y-79748361D01*
X94158520Y-79748360D01*
X94097171Y-79736157D01*
X93939487Y-79736157D01*
X93939484Y-79736157D01*
X93784839Y-79766918D01*
X93784827Y-79766921D01*
X93639156Y-79827259D01*
X93639143Y-79827266D01*
X93508040Y-79914867D01*
X93508036Y-79914870D01*
X93396542Y-80026364D01*
X93396539Y-80026368D01*
X93308938Y-80157471D01*
X93308931Y-80157484D01*
X93248593Y-80303155D01*
X93248590Y-80303167D01*
X93217829Y-80457810D01*
X86620622Y-80457810D01*
X86578845Y-80449500D01*
X86578842Y-80449500D01*
X86421158Y-80449500D01*
X86421155Y-80449500D01*
X86266510Y-80480261D01*
X86266498Y-80480264D01*
X86120827Y-80540602D01*
X86120814Y-80540609D01*
X85989711Y-80628210D01*
X85989707Y-80628213D01*
X85878213Y-80739707D01*
X85878210Y-80739711D01*
X85790609Y-80870814D01*
X85790602Y-80870827D01*
X85730264Y-81016498D01*
X85730261Y-81016510D01*
X85699500Y-81171153D01*
X80459532Y-81171153D01*
X80459395Y-81170823D01*
X80459390Y-81170814D01*
X80371789Y-81039711D01*
X80371786Y-81039707D01*
X80260292Y-80928213D01*
X80260288Y-80928210D01*
X80129185Y-80840609D01*
X80129172Y-80840602D01*
X79983501Y-80780264D01*
X79983489Y-80780261D01*
X79828845Y-80749500D01*
X79828842Y-80749500D01*
X79671158Y-80749500D01*
X79671155Y-80749500D01*
X79516510Y-80780261D01*
X79516498Y-80780264D01*
X79370827Y-80840602D01*
X79370814Y-80840609D01*
X79239711Y-80928210D01*
X79239707Y-80928213D01*
X79128213Y-81039707D01*
X79128210Y-81039711D01*
X79040609Y-81170814D01*
X79040602Y-81170827D01*
X78980264Y-81316498D01*
X78980261Y-81316510D01*
X78949500Y-81471153D01*
X73050499Y-81471153D01*
X73022192Y-81328846D01*
X73019737Y-81316503D01*
X73015549Y-81306392D01*
X72959397Y-81170827D01*
X72959390Y-81170814D01*
X72871789Y-81039711D01*
X72871786Y-81039707D01*
X72760292Y-80928213D01*
X72760288Y-80928210D01*
X72629185Y-80840609D01*
X72629172Y-80840602D01*
X72483501Y-80780264D01*
X72483489Y-80780261D01*
X72328845Y-80749500D01*
X72328842Y-80749500D01*
X72171158Y-80749500D01*
X72171155Y-80749500D01*
X72016510Y-80780261D01*
X72016498Y-80780264D01*
X71870827Y-80840602D01*
X71870814Y-80840609D01*
X71739711Y-80928210D01*
X71739707Y-80928213D01*
X71628213Y-81039707D01*
X71628210Y-81039711D01*
X71540609Y-81170814D01*
X71540602Y-81170827D01*
X71480264Y-81316498D01*
X71480261Y-81316510D01*
X71449500Y-81471153D01*
X50500500Y-81471153D01*
X50500500Y-79421153D01*
X67449500Y-79421153D01*
X67449500Y-79578846D01*
X67480261Y-79733489D01*
X67480264Y-79733501D01*
X67540602Y-79879172D01*
X67540609Y-79879185D01*
X67628210Y-80010288D01*
X67628213Y-80010292D01*
X67739707Y-80121786D01*
X67739711Y-80121789D01*
X67870814Y-80209390D01*
X67870827Y-80209397D01*
X68016498Y-80269735D01*
X68016503Y-80269737D01*
X68171153Y-80300499D01*
X68171156Y-80300500D01*
X68171158Y-80300500D01*
X68328844Y-80300500D01*
X68328845Y-80300499D01*
X68483497Y-80269737D01*
X68629179Y-80209394D01*
X68760289Y-80121789D01*
X68871789Y-80010289D01*
X68959394Y-79879179D01*
X69019737Y-79733497D01*
X69050500Y-79578842D01*
X69050500Y-79421158D01*
X69050500Y-79421155D01*
X69050499Y-79421153D01*
X71949500Y-79421153D01*
X71949500Y-79578846D01*
X71980261Y-79733489D01*
X71980264Y-79733501D01*
X72040602Y-79879172D01*
X72040609Y-79879185D01*
X72128210Y-80010288D01*
X72128213Y-80010292D01*
X72239707Y-80121786D01*
X72239711Y-80121789D01*
X72370814Y-80209390D01*
X72370827Y-80209397D01*
X72516498Y-80269735D01*
X72516503Y-80269737D01*
X72671153Y-80300499D01*
X72671156Y-80300500D01*
X72671158Y-80300500D01*
X72828844Y-80300500D01*
X72828845Y-80300499D01*
X72983497Y-80269737D01*
X73129179Y-80209394D01*
X73260289Y-80121789D01*
X73371789Y-80010289D01*
X73459394Y-79879179D01*
X73519737Y-79733497D01*
X73550500Y-79578842D01*
X73550500Y-79453212D01*
X80431559Y-79453212D01*
X80431559Y-79610905D01*
X80462320Y-79765548D01*
X80462323Y-79765560D01*
X80522661Y-79911231D01*
X80522668Y-79911244D01*
X80610269Y-80042347D01*
X80610272Y-80042351D01*
X80721766Y-80153845D01*
X80721770Y-80153848D01*
X80852873Y-80241449D01*
X80852886Y-80241456D01*
X80995431Y-80300499D01*
X80998562Y-80301796D01*
X81153212Y-80332558D01*
X81153215Y-80332559D01*
X81153217Y-80332559D01*
X81310903Y-80332559D01*
X81310904Y-80332558D01*
X81465556Y-80301796D01*
X81611238Y-80241453D01*
X81742348Y-80153848D01*
X81853848Y-80042348D01*
X81941453Y-79911238D01*
X82001796Y-79765556D01*
X82032559Y-79610901D01*
X82032559Y-79453217D01*
X82032559Y-79453214D01*
X82032558Y-79453212D01*
X82017972Y-79379885D01*
X82001796Y-79298562D01*
X81981175Y-79248778D01*
X81941456Y-79152886D01*
X81941449Y-79152873D01*
X81853848Y-79021770D01*
X81853845Y-79021766D01*
X81742351Y-78910272D01*
X81742347Y-78910269D01*
X81611244Y-78822668D01*
X81611231Y-78822661D01*
X81465560Y-78762323D01*
X81465548Y-78762320D01*
X81310904Y-78731559D01*
X81310901Y-78731559D01*
X81153217Y-78731559D01*
X81153214Y-78731559D01*
X80998569Y-78762320D01*
X80998557Y-78762323D01*
X80852886Y-78822661D01*
X80852873Y-78822668D01*
X80721770Y-78910269D01*
X80721766Y-78910272D01*
X80610272Y-79021766D01*
X80610269Y-79021770D01*
X80522668Y-79152873D01*
X80522661Y-79152886D01*
X80462323Y-79298557D01*
X80462320Y-79298569D01*
X80431559Y-79453212D01*
X73550500Y-79453212D01*
X73550500Y-79421158D01*
X73550500Y-79421155D01*
X73550499Y-79421153D01*
X73542289Y-79379881D01*
X73519737Y-79266503D01*
X73499329Y-79217233D01*
X73459397Y-79120827D01*
X73459390Y-79120814D01*
X73371789Y-78989711D01*
X73371786Y-78989707D01*
X73260292Y-78878213D01*
X73260288Y-78878210D01*
X73129185Y-78790609D01*
X73129172Y-78790602D01*
X72983501Y-78730264D01*
X72983489Y-78730261D01*
X72828845Y-78699500D01*
X72828842Y-78699500D01*
X72671158Y-78699500D01*
X72671155Y-78699500D01*
X72516510Y-78730261D01*
X72516498Y-78730264D01*
X72370827Y-78790602D01*
X72370814Y-78790609D01*
X72239711Y-78878210D01*
X72239707Y-78878213D01*
X72128213Y-78989707D01*
X72128210Y-78989711D01*
X72040609Y-79120814D01*
X72040602Y-79120827D01*
X71980264Y-79266498D01*
X71980261Y-79266510D01*
X71949500Y-79421153D01*
X69050499Y-79421153D01*
X69042289Y-79379881D01*
X69019737Y-79266503D01*
X68999329Y-79217233D01*
X68959397Y-79120827D01*
X68959390Y-79120814D01*
X68871789Y-78989711D01*
X68871786Y-78989707D01*
X68760292Y-78878213D01*
X68760288Y-78878210D01*
X68629185Y-78790609D01*
X68629172Y-78790602D01*
X68483501Y-78730264D01*
X68483489Y-78730261D01*
X68328845Y-78699500D01*
X68328842Y-78699500D01*
X68171158Y-78699500D01*
X68171155Y-78699500D01*
X68016510Y-78730261D01*
X68016498Y-78730264D01*
X67870827Y-78790602D01*
X67870814Y-78790609D01*
X67739711Y-78878210D01*
X67739707Y-78878213D01*
X67628213Y-78989707D01*
X67628210Y-78989711D01*
X67540609Y-79120814D01*
X67540602Y-79120827D01*
X67480264Y-79266498D01*
X67480261Y-79266510D01*
X67449500Y-79421153D01*
X50500500Y-79421153D01*
X50500500Y-78621888D01*
X93349500Y-78621888D01*
X93349500Y-78779581D01*
X93380261Y-78934224D01*
X93380264Y-78934236D01*
X93440602Y-79079907D01*
X93440609Y-79079920D01*
X93528210Y-79211023D01*
X93528213Y-79211027D01*
X93639707Y-79322521D01*
X93639711Y-79322524D01*
X93770814Y-79410125D01*
X93770827Y-79410132D01*
X93916498Y-79470470D01*
X93916503Y-79470472D01*
X93955592Y-79478247D01*
X94009797Y-79489030D01*
X94009801Y-79489030D01*
X94071158Y-79501235D01*
X94179585Y-79501235D01*
X94228844Y-79501235D01*
X94228845Y-79501234D01*
X94383497Y-79470472D01*
X94529179Y-79410129D01*
X94660289Y-79322524D01*
X94771789Y-79211024D01*
X94859394Y-79079914D01*
X94862854Y-79071562D01*
X94883478Y-79021770D01*
X94919737Y-78934232D01*
X94950500Y-78779577D01*
X94950500Y-78621893D01*
X94950500Y-78621890D01*
X94950499Y-78621888D01*
X94924347Y-78490414D01*
X94919737Y-78467238D01*
X94879800Y-78370821D01*
X94859397Y-78321562D01*
X94859390Y-78321549D01*
X94771789Y-78190446D01*
X94771786Y-78190442D01*
X94660292Y-78078948D01*
X94660288Y-78078945D01*
X94573797Y-78021153D01*
X113117392Y-78021153D01*
X113117392Y-78178846D01*
X113148153Y-78333489D01*
X113148156Y-78333501D01*
X113208494Y-78479172D01*
X113208501Y-78479185D01*
X113296102Y-78610288D01*
X113296105Y-78610292D01*
X113312343Y-78626530D01*
X113345828Y-78687853D01*
X113346280Y-78738401D01*
X113335867Y-78790752D01*
X113335867Y-78948439D01*
X113366628Y-79103082D01*
X113366631Y-79103094D01*
X113426969Y-79248765D01*
X113426976Y-79248778D01*
X113514577Y-79379881D01*
X113514580Y-79379885D01*
X113626074Y-79491379D01*
X113626078Y-79491382D01*
X113757181Y-79578983D01*
X113757190Y-79578988D01*
X113879074Y-79629474D01*
X113933477Y-79673315D01*
X113946182Y-79696582D01*
X113994317Y-79812790D01*
X113994322Y-79812800D01*
X114081923Y-79943903D01*
X114081926Y-79943907D01*
X114193420Y-80055401D01*
X114193424Y-80055404D01*
X114324527Y-80143005D01*
X114324540Y-80143012D01*
X114470211Y-80203350D01*
X114470216Y-80203352D01*
X114624866Y-80234114D01*
X114624869Y-80234115D01*
X114624871Y-80234115D01*
X114782557Y-80234115D01*
X114782558Y-80234114D01*
X114937210Y-80203352D01*
X115082892Y-80143009D01*
X115214002Y-80055404D01*
X115325502Y-79943904D01*
X115413107Y-79812794D01*
X115473450Y-79667112D01*
X115504213Y-79512457D01*
X115504213Y-79354773D01*
X115504213Y-79354770D01*
X115504212Y-79354768D01*
X115485419Y-79260289D01*
X115473450Y-79200118D01*
X115444069Y-79129185D01*
X115413110Y-79054442D01*
X115413103Y-79054429D01*
X115325502Y-78923326D01*
X115325499Y-78923322D01*
X115214005Y-78811828D01*
X115214001Y-78811825D01*
X115154872Y-78772316D01*
X115154868Y-78772314D01*
X115082892Y-78724221D01*
X114956646Y-78671928D01*
X114955115Y-78671153D01*
X117449500Y-78671153D01*
X117449500Y-78828846D01*
X117480261Y-78983489D01*
X117480264Y-78983501D01*
X117540602Y-79129172D01*
X117540609Y-79129185D01*
X117628210Y-79260288D01*
X117628213Y-79260292D01*
X117739710Y-79371789D01*
X117861569Y-79453212D01*
X117870821Y-79459394D01*
X117933804Y-79485482D01*
X117988207Y-79529320D01*
X118007969Y-79575851D01*
X118029526Y-79684224D01*
X118029529Y-79684236D01*
X118089867Y-79829907D01*
X118089874Y-79829920D01*
X118177475Y-79961023D01*
X118177478Y-79961027D01*
X118288972Y-80072521D01*
X118288976Y-80072524D01*
X118420079Y-80160125D01*
X118420092Y-80160132D01*
X118539013Y-80209390D01*
X118565768Y-80220472D01*
X118720418Y-80251234D01*
X118720421Y-80251235D01*
X118720423Y-80251235D01*
X118878109Y-80251235D01*
X118878110Y-80251234D01*
X119032762Y-80220472D01*
X119174562Y-80161737D01*
X119178437Y-80160132D01*
X119178437Y-80160131D01*
X119178444Y-80160129D01*
X119309554Y-80072524D01*
X119421054Y-79961024D01*
X119508659Y-79829914D01*
X119569002Y-79684232D01*
X119599765Y-79529577D01*
X119599765Y-79371893D01*
X119599765Y-79371890D01*
X119599764Y-79371888D01*
X119577565Y-79260288D01*
X119569002Y-79217238D01*
X119542347Y-79152886D01*
X119508662Y-79071562D01*
X119508655Y-79071549D01*
X119421054Y-78940446D01*
X119421051Y-78940442D01*
X119309557Y-78828948D01*
X119309553Y-78828945D01*
X119178450Y-78741344D01*
X119178437Y-78741337D01*
X119115460Y-78715252D01*
X119061056Y-78671412D01*
X119041295Y-78624882D01*
X119040711Y-78621947D01*
X119019737Y-78516503D01*
X119008928Y-78490407D01*
X118959397Y-78370827D01*
X118959390Y-78370814D01*
X118871789Y-78239711D01*
X118871786Y-78239707D01*
X118760292Y-78128213D01*
X118760288Y-78128210D01*
X118629185Y-78040609D01*
X118629173Y-78040602D01*
X118602674Y-78029627D01*
X118483501Y-77980264D01*
X118483489Y-77980261D01*
X118328845Y-77949500D01*
X118328842Y-77949500D01*
X118171158Y-77949500D01*
X118171155Y-77949500D01*
X118016510Y-77980261D01*
X118016498Y-77980264D01*
X117870827Y-78040602D01*
X117870814Y-78040609D01*
X117739711Y-78128210D01*
X117739707Y-78128213D01*
X117628213Y-78239707D01*
X117628210Y-78239711D01*
X117540609Y-78370814D01*
X117540602Y-78370827D01*
X117480264Y-78516498D01*
X117480261Y-78516510D01*
X117449500Y-78671153D01*
X114955115Y-78671153D01*
X114952435Y-78669796D01*
X114930272Y-78648967D01*
X114906602Y-78629893D01*
X114903045Y-78623379D01*
X114901521Y-78621947D01*
X114900892Y-78619437D01*
X114893897Y-78606625D01*
X114845764Y-78490420D01*
X114845757Y-78490407D01*
X114758156Y-78359304D01*
X114758153Y-78359300D01*
X114741915Y-78343062D01*
X114708430Y-78281739D01*
X114707979Y-78231188D01*
X114716085Y-78190442D01*
X114718392Y-78178842D01*
X114718392Y-78021158D01*
X114718392Y-78021155D01*
X114718391Y-78021153D01*
X114700458Y-77930998D01*
X114698500Y-77921153D01*
X128699500Y-77921153D01*
X128699500Y-78078846D01*
X128730261Y-78233489D01*
X128730264Y-78233501D01*
X128790602Y-78379172D01*
X128790609Y-78379185D01*
X128878210Y-78510288D01*
X128878213Y-78510292D01*
X128989707Y-78621786D01*
X128989711Y-78621789D01*
X129120814Y-78709390D01*
X129120827Y-78709397D01*
X129248601Y-78762322D01*
X129266503Y-78769737D01*
X129372147Y-78790751D01*
X129421153Y-78800499D01*
X129421156Y-78800500D01*
X129421158Y-78800500D01*
X129578844Y-78800500D01*
X129578845Y-78800499D01*
X129733497Y-78769737D01*
X129846166Y-78723067D01*
X129879172Y-78709397D01*
X129879172Y-78709396D01*
X129879179Y-78709394D01*
X130010289Y-78621789D01*
X130121789Y-78510289D01*
X130209394Y-78379179D01*
X130212854Y-78370827D01*
X130228319Y-78333489D01*
X130269737Y-78233497D01*
X130300500Y-78078842D01*
X130300500Y-77921158D01*
X130300500Y-77921155D01*
X130300499Y-77921153D01*
X130269738Y-77766510D01*
X130269737Y-77766503D01*
X130250812Y-77720814D01*
X130209397Y-77620827D01*
X130209390Y-77620814D01*
X130121789Y-77489711D01*
X130121786Y-77489707D01*
X130010292Y-77378213D01*
X130010288Y-77378210D01*
X129879185Y-77290609D01*
X129879172Y-77290602D01*
X129733501Y-77230264D01*
X129733489Y-77230261D01*
X129578845Y-77199500D01*
X129578842Y-77199500D01*
X129421158Y-77199500D01*
X129421155Y-77199500D01*
X129266510Y-77230261D01*
X129266498Y-77230264D01*
X129120827Y-77290602D01*
X129120814Y-77290609D01*
X128989711Y-77378210D01*
X128989707Y-77378213D01*
X128878213Y-77489707D01*
X128878210Y-77489711D01*
X128790609Y-77620814D01*
X128790602Y-77620827D01*
X128730264Y-77766498D01*
X128730261Y-77766510D01*
X128699500Y-77921153D01*
X114698500Y-77921153D01*
X114687629Y-77866503D01*
X114646206Y-77766498D01*
X114627289Y-77720827D01*
X114627282Y-77720814D01*
X114539681Y-77589711D01*
X114539678Y-77589707D01*
X114428184Y-77478213D01*
X114428180Y-77478210D01*
X114297077Y-77390609D01*
X114297064Y-77390602D01*
X114151393Y-77330264D01*
X114151381Y-77330261D01*
X113996737Y-77299500D01*
X113996734Y-77299500D01*
X113839050Y-77299500D01*
X113839047Y-77299500D01*
X113684402Y-77330261D01*
X113684390Y-77330264D01*
X113538719Y-77390602D01*
X113538706Y-77390609D01*
X113407603Y-77478210D01*
X113407599Y-77478213D01*
X113296105Y-77589707D01*
X113296102Y-77589711D01*
X113208501Y-77720814D01*
X113208494Y-77720827D01*
X113148156Y-77866498D01*
X113148153Y-77866510D01*
X113117392Y-78021153D01*
X94573797Y-78021153D01*
X94529185Y-77991344D01*
X94529172Y-77991337D01*
X94383501Y-77930999D01*
X94383489Y-77930996D01*
X94228845Y-77900235D01*
X94228842Y-77900235D01*
X94071158Y-77900235D01*
X94071155Y-77900235D01*
X93916510Y-77930996D01*
X93916498Y-77930999D01*
X93770827Y-77991337D01*
X93770814Y-77991344D01*
X93639711Y-78078945D01*
X93639707Y-78078948D01*
X93528213Y-78190442D01*
X93528210Y-78190446D01*
X93440609Y-78321549D01*
X93440602Y-78321562D01*
X93380264Y-78467233D01*
X93380261Y-78467245D01*
X93349500Y-78621888D01*
X50500500Y-78621888D01*
X50500500Y-76671153D01*
X81199500Y-76671153D01*
X81199500Y-76828846D01*
X81230261Y-76983489D01*
X81230264Y-76983501D01*
X81290602Y-77129172D01*
X81290609Y-77129185D01*
X81378210Y-77260288D01*
X81378213Y-77260292D01*
X81489707Y-77371786D01*
X81489711Y-77371789D01*
X81620814Y-77459390D01*
X81620827Y-77459397D01*
X81694013Y-77489711D01*
X81766503Y-77519737D01*
X81921153Y-77550499D01*
X81921156Y-77550500D01*
X81921158Y-77550500D01*
X82078844Y-77550500D01*
X82078845Y-77550499D01*
X82233497Y-77519737D01*
X82379179Y-77459394D01*
X82510289Y-77371789D01*
X82621789Y-77260289D01*
X82709394Y-77129179D01*
X82769737Y-76983497D01*
X82800500Y-76828842D01*
X82800500Y-76671158D01*
X82800500Y-76671155D01*
X82800499Y-76671153D01*
X82769738Y-76516510D01*
X82769737Y-76516503D01*
X82769735Y-76516498D01*
X82709397Y-76370827D01*
X82709390Y-76370814D01*
X82621789Y-76239711D01*
X82621786Y-76239707D01*
X82510292Y-76128213D01*
X82510288Y-76128210D01*
X82379185Y-76040609D01*
X82379172Y-76040602D01*
X82233501Y-75980264D01*
X82233489Y-75980261D01*
X82078845Y-75949500D01*
X82078842Y-75949500D01*
X81921158Y-75949500D01*
X81921155Y-75949500D01*
X81766510Y-75980261D01*
X81766498Y-75980264D01*
X81620827Y-76040602D01*
X81620814Y-76040609D01*
X81489711Y-76128210D01*
X81489707Y-76128213D01*
X81378213Y-76239707D01*
X81378210Y-76239711D01*
X81290609Y-76370814D01*
X81290602Y-76370827D01*
X81230264Y-76516498D01*
X81230261Y-76516510D01*
X81199500Y-76671153D01*
X50500500Y-76671153D01*
X50500500Y-75283543D01*
X84601229Y-75283543D01*
X84601229Y-75441236D01*
X84631990Y-75595879D01*
X84631993Y-75595891D01*
X84692331Y-75741562D01*
X84692338Y-75741575D01*
X84779939Y-75872678D01*
X84779942Y-75872682D01*
X84891436Y-75984176D01*
X84891440Y-75984179D01*
X85022543Y-76071780D01*
X85022556Y-76071787D01*
X85161098Y-76129172D01*
X85168232Y-76132127D01*
X85289104Y-76156170D01*
X85322882Y-76162889D01*
X85322885Y-76162890D01*
X85322887Y-76162890D01*
X85480573Y-76162890D01*
X85480574Y-76162889D01*
X85635226Y-76132127D01*
X85780908Y-76071784D01*
X85912018Y-75984179D01*
X86023518Y-75872679D01*
X86111123Y-75741569D01*
X86140290Y-75671153D01*
X95699500Y-75671153D01*
X95699500Y-75828846D01*
X95730261Y-75983489D01*
X95730264Y-75983501D01*
X95790602Y-76129172D01*
X95790609Y-76129185D01*
X95878210Y-76260288D01*
X95878213Y-76260292D01*
X95989707Y-76371786D01*
X95989711Y-76371789D01*
X96120814Y-76459390D01*
X96120827Y-76459397D01*
X96220060Y-76500500D01*
X96266503Y-76519737D01*
X96421153Y-76550499D01*
X96421156Y-76550500D01*
X96421158Y-76550500D01*
X96578844Y-76550500D01*
X96578845Y-76550499D01*
X96733497Y-76519737D01*
X96879179Y-76459394D01*
X96936411Y-76421153D01*
X97006609Y-76374248D01*
X97073286Y-76353370D01*
X97140666Y-76371854D01*
X97187357Y-76423833D01*
X97199500Y-76477350D01*
X97199500Y-76578846D01*
X97230261Y-76733489D01*
X97230264Y-76733501D01*
X97290602Y-76879172D01*
X97290609Y-76879185D01*
X97378210Y-77010288D01*
X97378213Y-77010292D01*
X97489707Y-77121786D01*
X97489711Y-77121789D01*
X97620814Y-77209390D01*
X97620827Y-77209397D01*
X97766498Y-77269735D01*
X97766503Y-77269737D01*
X97916131Y-77299500D01*
X97921153Y-77300499D01*
X97921156Y-77300500D01*
X97921158Y-77300500D01*
X98078844Y-77300500D01*
X98078845Y-77300499D01*
X98233497Y-77269737D01*
X98379179Y-77209394D01*
X98510289Y-77121789D01*
X98621789Y-77010289D01*
X98709394Y-76879179D01*
X98769737Y-76733497D01*
X98800500Y-76578842D01*
X98800500Y-76456509D01*
X100618736Y-76456509D01*
X100618736Y-76614202D01*
X100649497Y-76768845D01*
X100649500Y-76768857D01*
X100709838Y-76914528D01*
X100709845Y-76914541D01*
X100797446Y-77045644D01*
X100797449Y-77045648D01*
X100908943Y-77157142D01*
X100908947Y-77157145D01*
X101040050Y-77244746D01*
X101040063Y-77244753D01*
X101150754Y-77290602D01*
X101185739Y-77305093D01*
X101340389Y-77335855D01*
X101340392Y-77335856D01*
X101340394Y-77335856D01*
X101498080Y-77335856D01*
X101498081Y-77335855D01*
X101652733Y-77305093D01*
X101798415Y-77244750D01*
X101929525Y-77157145D01*
X102041025Y-77045645D01*
X102128630Y-76914535D01*
X102134444Y-76900500D01*
X102172179Y-76809397D01*
X102188973Y-76768853D01*
X102219736Y-76614198D01*
X102219736Y-76456514D01*
X102219736Y-76456511D01*
X102219735Y-76456509D01*
X102202882Y-76371786D01*
X102188973Y-76301859D01*
X102148368Y-76203828D01*
X102128633Y-76156183D01*
X102128626Y-76156170D01*
X102080375Y-76083957D01*
X102041025Y-76025067D01*
X102041022Y-76025063D01*
X102037112Y-76021153D01*
X111650235Y-76021153D01*
X111650235Y-76178846D01*
X111680996Y-76333489D01*
X111680999Y-76333501D01*
X111741337Y-76479172D01*
X111741344Y-76479185D01*
X111828945Y-76610288D01*
X111828948Y-76610292D01*
X111940442Y-76721786D01*
X111940446Y-76721789D01*
X112071549Y-76809390D01*
X112071562Y-76809397D01*
X112217233Y-76869735D01*
X112217238Y-76869737D01*
X112371888Y-76900499D01*
X112371891Y-76900500D01*
X112371893Y-76900500D01*
X112529579Y-76900500D01*
X112529580Y-76900499D01*
X112684232Y-76869737D01*
X112829914Y-76809394D01*
X112843974Y-76799998D01*
X112910650Y-76779119D01*
X112978031Y-76797602D01*
X112981759Y-76799998D01*
X112995822Y-76809395D01*
X113141498Y-76869735D01*
X113141503Y-76869737D01*
X113296153Y-76900499D01*
X113296156Y-76900500D01*
X113296158Y-76900500D01*
X113453844Y-76900500D01*
X113453845Y-76900499D01*
X113608497Y-76869737D01*
X113754179Y-76809394D01*
X113885289Y-76721789D01*
X113996789Y-76610289D01*
X114084394Y-76479179D01*
X114144737Y-76333497D01*
X114175500Y-76178842D01*
X114175500Y-76021158D01*
X114175500Y-76021155D01*
X114175499Y-76021153D01*
X114168144Y-75984176D01*
X114144737Y-75866503D01*
X114129139Y-75828846D01*
X114084397Y-75720827D01*
X114084389Y-75720812D01*
X114056030Y-75678371D01*
X114035151Y-75611694D01*
X114053635Y-75544313D01*
X114105613Y-75497623D01*
X114174583Y-75486446D01*
X114206583Y-75494918D01*
X114258683Y-75516498D01*
X114266503Y-75519737D01*
X114390054Y-75544313D01*
X114421153Y-75550499D01*
X114421156Y-75550500D01*
X114421158Y-75550500D01*
X114578844Y-75550500D01*
X114578845Y-75550499D01*
X114733497Y-75519737D01*
X114879179Y-75459394D01*
X115010289Y-75371789D01*
X115121789Y-75260289D01*
X115209394Y-75129179D01*
X115209513Y-75128893D01*
X115223067Y-75096166D01*
X115269737Y-74983497D01*
X115300500Y-74828842D01*
X115300500Y-74671158D01*
X115300500Y-74671155D01*
X115300499Y-74671153D01*
X115296887Y-74652996D01*
X115269737Y-74516503D01*
X115239621Y-74443796D01*
X115209397Y-74370827D01*
X115209390Y-74370814D01*
X115121789Y-74239711D01*
X115121786Y-74239707D01*
X115010292Y-74128213D01*
X115010288Y-74128210D01*
X114879185Y-74040609D01*
X114879172Y-74040602D01*
X114733501Y-73980264D01*
X114733489Y-73980261D01*
X114578845Y-73949500D01*
X114578842Y-73949500D01*
X114421158Y-73949500D01*
X114421155Y-73949500D01*
X114266510Y-73980261D01*
X114266498Y-73980264D01*
X114120827Y-74040602D01*
X114120814Y-74040609D01*
X113989711Y-74128210D01*
X113989707Y-74128213D01*
X113878213Y-74239707D01*
X113878210Y-74239711D01*
X113790609Y-74370814D01*
X113790602Y-74370827D01*
X113730264Y-74516498D01*
X113730261Y-74516510D01*
X113699500Y-74671153D01*
X113699500Y-74828846D01*
X113730261Y-74983489D01*
X113730264Y-74983501D01*
X113790602Y-75129172D01*
X113790609Y-75129184D01*
X113818970Y-75171629D01*
X113839848Y-75238306D01*
X113821364Y-75305686D01*
X113769385Y-75352377D01*
X113700415Y-75363553D01*
X113668417Y-75355082D01*
X113636025Y-75341665D01*
X113608497Y-75330263D01*
X113608493Y-75330262D01*
X113608489Y-75330261D01*
X113453845Y-75299500D01*
X113453842Y-75299500D01*
X113296158Y-75299500D01*
X113296155Y-75299500D01*
X113141510Y-75330261D01*
X113141498Y-75330264D01*
X112995828Y-75390602D01*
X112995819Y-75390607D01*
X112981756Y-75400004D01*
X112915078Y-75420880D01*
X112847698Y-75402394D01*
X112843976Y-75400002D01*
X112829919Y-75390609D01*
X112829916Y-75390607D01*
X112829914Y-75390606D01*
X112829911Y-75390604D01*
X112829906Y-75390602D01*
X112684236Y-75330264D01*
X112684224Y-75330261D01*
X112529580Y-75299500D01*
X112529577Y-75299500D01*
X112371893Y-75299500D01*
X112371890Y-75299500D01*
X112217245Y-75330261D01*
X112217233Y-75330264D01*
X112071562Y-75390602D01*
X112071549Y-75390609D01*
X111940446Y-75478210D01*
X111940442Y-75478213D01*
X111828948Y-75589707D01*
X111828945Y-75589711D01*
X111741344Y-75720814D01*
X111741337Y-75720827D01*
X111680999Y-75866498D01*
X111680996Y-75866510D01*
X111650235Y-76021153D01*
X102037112Y-76021153D01*
X101929528Y-75913569D01*
X101929524Y-75913566D01*
X101798421Y-75825965D01*
X101798408Y-75825958D01*
X101652737Y-75765620D01*
X101652725Y-75765617D01*
X101498081Y-75734856D01*
X101498078Y-75734856D01*
X101340394Y-75734856D01*
X101340391Y-75734856D01*
X101185746Y-75765617D01*
X101185734Y-75765620D01*
X101040063Y-75825958D01*
X101040050Y-75825965D01*
X100908947Y-75913566D01*
X100908943Y-75913569D01*
X100797449Y-76025063D01*
X100797446Y-76025067D01*
X100709845Y-76156170D01*
X100709838Y-76156183D01*
X100649500Y-76301854D01*
X100649497Y-76301866D01*
X100618736Y-76456509D01*
X98800500Y-76456509D01*
X98800500Y-76421158D01*
X98800500Y-76421155D01*
X98800499Y-76421153D01*
X98769737Y-76266503D01*
X98767163Y-76260288D01*
X98709397Y-76120827D01*
X98709390Y-76120814D01*
X98621789Y-75989711D01*
X98621786Y-75989707D01*
X98510292Y-75878213D01*
X98510288Y-75878210D01*
X98379185Y-75790609D01*
X98379172Y-75790602D01*
X98233501Y-75730264D01*
X98233489Y-75730261D01*
X98078845Y-75699500D01*
X98078842Y-75699500D01*
X97921158Y-75699500D01*
X97921155Y-75699500D01*
X97766510Y-75730261D01*
X97766498Y-75730264D01*
X97620827Y-75790602D01*
X97620814Y-75790609D01*
X97493391Y-75875751D01*
X97426713Y-75896629D01*
X97359333Y-75878144D01*
X97312643Y-75826165D01*
X97300500Y-75772649D01*
X97300500Y-75671155D01*
X97300499Y-75671153D01*
X97289850Y-75617619D01*
X97269737Y-75516503D01*
X97221481Y-75400002D01*
X97209397Y-75370827D01*
X97209390Y-75370814D01*
X97121789Y-75239711D01*
X97121786Y-75239707D01*
X97010292Y-75128213D01*
X97010288Y-75128210D01*
X96879185Y-75040609D01*
X96879172Y-75040602D01*
X96733501Y-74980264D01*
X96733489Y-74980261D01*
X96578845Y-74949500D01*
X96578842Y-74949500D01*
X96421158Y-74949500D01*
X96421155Y-74949500D01*
X96266510Y-74980261D01*
X96266498Y-74980264D01*
X96120827Y-75040602D01*
X96120814Y-75040609D01*
X95989711Y-75128210D01*
X95989707Y-75128213D01*
X95878213Y-75239707D01*
X95878210Y-75239711D01*
X95790609Y-75370814D01*
X95790602Y-75370827D01*
X95730264Y-75516498D01*
X95730261Y-75516510D01*
X95699500Y-75671153D01*
X86140290Y-75671153D01*
X86171466Y-75595887D01*
X86202229Y-75441232D01*
X86202229Y-75283548D01*
X86202229Y-75283545D01*
X86202228Y-75283543D01*
X86187478Y-75209390D01*
X86171466Y-75128893D01*
X86171183Y-75128210D01*
X86111126Y-74983217D01*
X86111119Y-74983204D01*
X86023518Y-74852101D01*
X86023515Y-74852097D01*
X85912021Y-74740603D01*
X85912017Y-74740600D01*
X85780914Y-74652999D01*
X85780901Y-74652992D01*
X85635230Y-74592654D01*
X85635218Y-74592651D01*
X85480574Y-74561890D01*
X85480571Y-74561890D01*
X85322887Y-74561890D01*
X85322884Y-74561890D01*
X85168239Y-74592651D01*
X85168227Y-74592654D01*
X85022556Y-74652992D01*
X85022543Y-74652999D01*
X84891440Y-74740600D01*
X84891436Y-74740603D01*
X84779942Y-74852097D01*
X84779939Y-74852101D01*
X84692338Y-74983204D01*
X84692331Y-74983217D01*
X84631993Y-75128888D01*
X84631990Y-75128900D01*
X84601229Y-75283543D01*
X50500500Y-75283543D01*
X50500500Y-72159388D01*
X88362735Y-72159388D01*
X88362735Y-72317081D01*
X88393496Y-72471724D01*
X88393499Y-72471736D01*
X88453837Y-72617407D01*
X88453844Y-72617420D01*
X88541445Y-72748523D01*
X88541448Y-72748527D01*
X88652942Y-72860021D01*
X88652946Y-72860024D01*
X88784049Y-72947625D01*
X88784062Y-72947632D01*
X88929733Y-73007970D01*
X88929738Y-73007972D01*
X89084388Y-73038734D01*
X89084391Y-73038735D01*
X89084393Y-73038735D01*
X89242079Y-73038735D01*
X89242080Y-73038734D01*
X89396732Y-73007972D01*
X89542414Y-72947629D01*
X89673524Y-72860024D01*
X89785024Y-72748524D01*
X89872629Y-72617414D01*
X89932972Y-72471732D01*
X89963735Y-72317077D01*
X89963735Y-72171153D01*
X90449500Y-72171153D01*
X90449500Y-72328846D01*
X90480261Y-72483489D01*
X90480264Y-72483501D01*
X90540602Y-72629172D01*
X90540609Y-72629185D01*
X90575304Y-72681109D01*
X90596182Y-72747786D01*
X90577698Y-72815167D01*
X90575304Y-72818891D01*
X90540609Y-72870814D01*
X90540602Y-72870827D01*
X90480264Y-73016498D01*
X90480261Y-73016510D01*
X90449500Y-73171153D01*
X90449500Y-73328846D01*
X90480261Y-73483489D01*
X90480264Y-73483501D01*
X90540602Y-73629172D01*
X90540609Y-73629185D01*
X90628210Y-73760288D01*
X90628213Y-73760292D01*
X90739707Y-73871786D01*
X90739711Y-73871789D01*
X90870814Y-73959390D01*
X90870827Y-73959397D01*
X90944013Y-73989711D01*
X91016503Y-74019737D01*
X91158002Y-74047883D01*
X91171153Y-74050499D01*
X91171156Y-74050500D01*
X91171158Y-74050500D01*
X91328844Y-74050500D01*
X91328845Y-74050499D01*
X91483497Y-74019737D01*
X91629179Y-73959394D01*
X91681110Y-73924694D01*
X91692706Y-73921062D01*
X91702144Y-73913403D01*
X91725429Y-73910816D01*
X91747785Y-73903816D01*
X91761223Y-73906840D01*
X91771586Y-73905689D01*
X91791294Y-73913607D01*
X91805113Y-73916717D01*
X91812252Y-73920259D01*
X91870821Y-73959394D01*
X91993761Y-74010317D01*
X91997532Y-74012188D01*
X92020215Y-74033158D01*
X92044275Y-74052546D01*
X92047422Y-74058310D01*
X92048837Y-74059618D01*
X92049469Y-74062058D01*
X92056980Y-74075814D01*
X92106291Y-74194863D01*
X92106296Y-74194872D01*
X92193897Y-74325975D01*
X92193900Y-74325979D01*
X92305394Y-74437473D01*
X92305398Y-74437476D01*
X92436501Y-74525077D01*
X92436514Y-74525084D01*
X92566304Y-74578844D01*
X92582190Y-74585424D01*
X92714358Y-74611714D01*
X92736840Y-74616186D01*
X92736843Y-74616187D01*
X92736845Y-74616187D01*
X92894531Y-74616187D01*
X92894532Y-74616186D01*
X93049184Y-74585424D01*
X93114460Y-74558386D01*
X93188257Y-74527819D01*
X93257726Y-74520350D01*
X93320205Y-74551625D01*
X93355857Y-74611714D01*
X93357326Y-74618188D01*
X93380261Y-74733491D01*
X93380264Y-74733501D01*
X93440602Y-74879172D01*
X93440609Y-74879185D01*
X93528210Y-75010288D01*
X93528213Y-75010292D01*
X93639707Y-75121786D01*
X93639711Y-75121789D01*
X93770814Y-75209390D01*
X93770827Y-75209397D01*
X93916498Y-75269735D01*
X93916503Y-75269737D01*
X94066131Y-75299500D01*
X94071153Y-75300499D01*
X94071156Y-75300500D01*
X94071158Y-75300500D01*
X94228844Y-75300500D01*
X94228845Y-75300499D01*
X94383497Y-75269737D01*
X94529179Y-75209394D01*
X94660289Y-75121789D01*
X94771789Y-75010289D01*
X94859394Y-74879179D01*
X94919737Y-74733497D01*
X94950500Y-74578842D01*
X94950500Y-74421158D01*
X94950500Y-74421155D01*
X94950499Y-74421153D01*
X94937846Y-74357542D01*
X94919737Y-74266503D01*
X94919735Y-74266498D01*
X94859397Y-74120827D01*
X94859390Y-74120814D01*
X94771789Y-73989711D01*
X94771786Y-73989707D01*
X94660292Y-73878213D01*
X94660288Y-73878210D01*
X94529185Y-73790609D01*
X94529172Y-73790602D01*
X94383501Y-73730264D01*
X94383489Y-73730261D01*
X94228845Y-73699500D01*
X94228842Y-73699500D01*
X94071158Y-73699500D01*
X94071155Y-73699500D01*
X93916510Y-73730261D01*
X93916503Y-73730263D01*
X93777428Y-73787868D01*
X93707959Y-73795336D01*
X93645480Y-73764060D01*
X93609828Y-73703971D01*
X93608360Y-73697497D01*
X93594772Y-73629185D01*
X93585424Y-73582190D01*
X93544546Y-73483501D01*
X93525084Y-73436514D01*
X93525077Y-73436501D01*
X93437476Y-73305398D01*
X93437473Y-73305394D01*
X93325979Y-73193900D01*
X93325975Y-73193897D01*
X93194872Y-73106296D01*
X93194863Y-73106291D01*
X93075814Y-73056980D01*
X93021411Y-73013139D01*
X93008706Y-72989871D01*
X92959397Y-72870827D01*
X92959390Y-72870814D01*
X92871789Y-72739711D01*
X92871786Y-72739707D01*
X92760292Y-72628213D01*
X92760288Y-72628210D01*
X92629185Y-72540609D01*
X92629172Y-72540602D01*
X92483501Y-72480264D01*
X92483489Y-72480261D01*
X92328845Y-72449500D01*
X92328842Y-72449500D01*
X92174500Y-72449500D01*
X92107461Y-72429815D01*
X92061706Y-72377011D01*
X92050500Y-72325500D01*
X92050500Y-72171155D01*
X92050499Y-72171153D01*
X92034454Y-72090490D01*
X92019737Y-72016503D01*
X92015349Y-72005909D01*
X91959397Y-71870827D01*
X91959390Y-71870814D01*
X91871789Y-71739711D01*
X91871786Y-71739707D01*
X91760292Y-71628213D01*
X91760288Y-71628210D01*
X91629185Y-71540609D01*
X91629172Y-71540602D01*
X91483501Y-71480264D01*
X91483489Y-71480261D01*
X91328845Y-71449500D01*
X91328842Y-71449500D01*
X91171158Y-71449500D01*
X91171155Y-71449500D01*
X91016510Y-71480261D01*
X91016498Y-71480264D01*
X90870827Y-71540602D01*
X90870814Y-71540609D01*
X90739711Y-71628210D01*
X90739707Y-71628213D01*
X90628213Y-71739707D01*
X90628210Y-71739711D01*
X90540609Y-71870814D01*
X90540602Y-71870827D01*
X90480264Y-72016498D01*
X90480261Y-72016510D01*
X90449500Y-72171153D01*
X89963735Y-72171153D01*
X89963735Y-72159393D01*
X89963735Y-72159390D01*
X89963734Y-72159388D01*
X89956064Y-72120827D01*
X89932972Y-72004738D01*
X89902894Y-71932123D01*
X89872632Y-71859062D01*
X89872625Y-71859049D01*
X89785024Y-71727946D01*
X89785021Y-71727942D01*
X89673527Y-71616448D01*
X89673523Y-71616445D01*
X89542420Y-71528844D01*
X89542407Y-71528837D01*
X89396736Y-71468499D01*
X89396724Y-71468496D01*
X89242080Y-71437735D01*
X89242077Y-71437735D01*
X89084393Y-71437735D01*
X89084390Y-71437735D01*
X88929745Y-71468496D01*
X88929733Y-71468499D01*
X88784062Y-71528837D01*
X88784049Y-71528844D01*
X88652946Y-71616445D01*
X88652942Y-71616448D01*
X88541448Y-71727942D01*
X88541445Y-71727946D01*
X88453844Y-71859049D01*
X88453837Y-71859062D01*
X88393499Y-72004733D01*
X88393496Y-72004745D01*
X88362735Y-72159388D01*
X50500500Y-72159388D01*
X50500500Y-70908409D01*
X93712244Y-70908409D01*
X93712244Y-71066102D01*
X93743005Y-71220745D01*
X93743008Y-71220757D01*
X93803346Y-71366428D01*
X93803353Y-71366441D01*
X93890954Y-71497544D01*
X93890957Y-71497548D01*
X94002451Y-71609042D01*
X94002455Y-71609045D01*
X94133558Y-71696646D01*
X94133571Y-71696653D01*
X94252615Y-71745962D01*
X94307019Y-71789802D01*
X94319724Y-71813071D01*
X94369033Y-71932116D01*
X94369040Y-71932129D01*
X94456641Y-72063232D01*
X94456644Y-72063236D01*
X94568138Y-72174730D01*
X94568142Y-72174733D01*
X94699245Y-72262334D01*
X94699258Y-72262341D01*
X94831409Y-72317079D01*
X94844934Y-72322681D01*
X94844938Y-72322681D01*
X94844939Y-72322682D01*
X94976687Y-72348889D01*
X95038597Y-72381274D01*
X95055597Y-72401615D01*
X95128210Y-72510288D01*
X95128213Y-72510292D01*
X95239707Y-72621786D01*
X95239711Y-72621789D01*
X95370814Y-72709390D01*
X95370827Y-72709397D01*
X95465297Y-72748527D01*
X95516503Y-72769737D01*
X95671153Y-72800499D01*
X95671156Y-72800500D01*
X95671158Y-72800500D01*
X95828844Y-72800500D01*
X95828845Y-72800499D01*
X95983497Y-72769737D01*
X96129179Y-72709394D01*
X96260289Y-72621789D01*
X96371789Y-72510289D01*
X96431348Y-72421153D01*
X105199500Y-72421153D01*
X105199500Y-72578846D01*
X105230261Y-72733489D01*
X105230264Y-72733501D01*
X105290602Y-72879172D01*
X105290609Y-72879185D01*
X105378210Y-73010288D01*
X105378213Y-73010292D01*
X105489707Y-73121786D01*
X105489711Y-73121789D01*
X105620814Y-73209390D01*
X105620827Y-73209397D01*
X105693279Y-73239407D01*
X105766503Y-73269737D01*
X105921153Y-73300499D01*
X105921156Y-73300500D01*
X105921158Y-73300500D01*
X106078844Y-73300500D01*
X106078845Y-73300499D01*
X106233497Y-73269737D01*
X106379179Y-73209394D01*
X106510289Y-73121789D01*
X106621789Y-73010289D01*
X106709394Y-72879179D01*
X106712854Y-72870827D01*
X106741984Y-72800499D01*
X106769737Y-72733497D01*
X106800500Y-72578842D01*
X106800500Y-72421158D01*
X106800499Y-72421153D01*
X106798067Y-72408924D01*
X106798067Y-72408922D01*
X106794467Y-72390822D01*
X113669169Y-72390822D01*
X113669169Y-72548515D01*
X113699930Y-72703158D01*
X113699933Y-72703170D01*
X113760271Y-72848841D01*
X113760278Y-72848854D01*
X113847879Y-72979957D01*
X113847882Y-72979961D01*
X113959376Y-73091455D01*
X113959380Y-73091458D01*
X114090483Y-73179059D01*
X114090496Y-73179066D01*
X114163723Y-73209397D01*
X114236172Y-73239406D01*
X114388645Y-73269735D01*
X114390822Y-73270168D01*
X114390825Y-73270169D01*
X114390827Y-73270169D01*
X114548513Y-73270169D01*
X114548514Y-73270168D01*
X114703166Y-73239406D01*
X114848848Y-73179063D01*
X114979958Y-73091458D01*
X115091458Y-72979958D01*
X115179063Y-72848848D01*
X115239406Y-72703166D01*
X115270169Y-72548511D01*
X115270169Y-72452135D01*
X136179500Y-72452135D01*
X136179500Y-74047870D01*
X136179501Y-74047876D01*
X136185908Y-74107483D01*
X136236202Y-74242328D01*
X136236206Y-74242335D01*
X136322451Y-74357543D01*
X136322452Y-74357544D01*
X136322454Y-74357546D01*
X136360777Y-74386234D01*
X136402647Y-74442167D01*
X136407631Y-74511859D01*
X136386784Y-74558385D01*
X136360475Y-74594595D01*
X136271117Y-74769970D01*
X136210290Y-74957173D01*
X136179500Y-75151577D01*
X136179500Y-75348422D01*
X136210290Y-75542826D01*
X136271117Y-75730029D01*
X136346620Y-75878211D01*
X136360476Y-75905405D01*
X136476172Y-76064646D01*
X136615354Y-76203828D01*
X136774595Y-76319524D01*
X136802019Y-76333497D01*
X136949970Y-76408882D01*
X136949972Y-76408882D01*
X136949975Y-76408884D01*
X137050317Y-76441487D01*
X137137173Y-76469709D01*
X137331578Y-76500500D01*
X137331583Y-76500500D01*
X137528422Y-76500500D01*
X137722826Y-76469709D01*
X137754584Y-76459390D01*
X137910025Y-76408884D01*
X138085405Y-76319524D01*
X138244646Y-76203828D01*
X138383828Y-76064646D01*
X138499524Y-75905405D01*
X138585603Y-75736463D01*
X138588882Y-75730029D01*
X138588882Y-75730028D01*
X138588884Y-75730025D01*
X138649709Y-75542826D01*
X138653879Y-75516498D01*
X138680500Y-75348422D01*
X138680500Y-75151577D01*
X138649709Y-74957173D01*
X138621487Y-74870317D01*
X138588884Y-74769975D01*
X138588882Y-74769972D01*
X138588882Y-74769970D01*
X138529282Y-74652999D01*
X138499524Y-74594595D01*
X138499522Y-74594592D01*
X138499521Y-74594590D01*
X138473217Y-74558386D01*
X138449736Y-74492580D01*
X138465561Y-74424526D01*
X138499219Y-74386237D01*
X138537546Y-74357546D01*
X138623796Y-74242331D01*
X138674091Y-74107483D01*
X138680500Y-74047873D01*
X138680499Y-72452128D01*
X138674091Y-72392517D01*
X138669118Y-72379185D01*
X138623797Y-72257671D01*
X138623793Y-72257664D01*
X138537547Y-72142455D01*
X138537544Y-72142452D01*
X138422335Y-72056206D01*
X138422328Y-72056202D01*
X138287482Y-72005908D01*
X138287483Y-72005908D01*
X138227883Y-71999501D01*
X138227881Y-71999500D01*
X138227873Y-71999500D01*
X138227864Y-71999500D01*
X136632129Y-71999500D01*
X136632123Y-71999501D01*
X136572516Y-72005908D01*
X136437671Y-72056202D01*
X136437664Y-72056206D01*
X136322455Y-72142452D01*
X136322452Y-72142455D01*
X136236206Y-72257664D01*
X136236202Y-72257671D01*
X136185908Y-72392517D01*
X136179782Y-72449500D01*
X136179501Y-72452123D01*
X136179500Y-72452135D01*
X115270169Y-72452135D01*
X115270169Y-72390827D01*
X115270169Y-72390824D01*
X115270168Y-72390822D01*
X115257839Y-72328842D01*
X115239406Y-72236172D01*
X115228313Y-72209390D01*
X115179066Y-72090496D01*
X115179059Y-72090483D01*
X115091458Y-71959380D01*
X115091455Y-71959376D01*
X114979961Y-71847882D01*
X114979957Y-71847879D01*
X114848854Y-71760278D01*
X114848841Y-71760271D01*
X114703170Y-71699933D01*
X114703158Y-71699930D01*
X114548514Y-71669169D01*
X114548511Y-71669169D01*
X114390827Y-71669169D01*
X114390824Y-71669169D01*
X114236179Y-71699930D01*
X114236167Y-71699933D01*
X114090496Y-71760271D01*
X114090483Y-71760278D01*
X113959380Y-71847879D01*
X113959376Y-71847882D01*
X113847882Y-71959376D01*
X113847879Y-71959380D01*
X113760278Y-72090483D01*
X113760271Y-72090496D01*
X113699933Y-72236167D01*
X113699930Y-72236179D01*
X113669169Y-72390822D01*
X106794467Y-72390822D01*
X106769738Y-72266508D01*
X106769737Y-72266507D01*
X106769737Y-72266503D01*
X106766076Y-72257664D01*
X106709397Y-72120827D01*
X106709390Y-72120814D01*
X106621789Y-71989711D01*
X106621786Y-71989707D01*
X106510292Y-71878213D01*
X106510288Y-71878210D01*
X106379185Y-71790609D01*
X106379172Y-71790602D01*
X106233501Y-71730264D01*
X106233489Y-71730261D01*
X106078845Y-71699500D01*
X106078842Y-71699500D01*
X105921158Y-71699500D01*
X105921155Y-71699500D01*
X105766510Y-71730261D01*
X105766498Y-71730264D01*
X105620827Y-71790602D01*
X105620814Y-71790609D01*
X105489711Y-71878210D01*
X105489707Y-71878213D01*
X105378213Y-71989707D01*
X105378210Y-71989711D01*
X105290609Y-72120814D01*
X105290602Y-72120827D01*
X105230264Y-72266498D01*
X105230261Y-72266510D01*
X105199500Y-72421153D01*
X96431348Y-72421153D01*
X96459394Y-72379179D01*
X96519737Y-72233497D01*
X96550500Y-72078842D01*
X96550500Y-71928102D01*
X96570185Y-71861063D01*
X96622989Y-71815308D01*
X96650301Y-71806486D01*
X96708280Y-71794954D01*
X96826558Y-71745962D01*
X96853955Y-71734614D01*
X96853955Y-71734613D01*
X96853962Y-71734611D01*
X96985072Y-71647006D01*
X97096572Y-71535506D01*
X97172980Y-71421153D01*
X118949500Y-71421153D01*
X118949500Y-71578846D01*
X118980261Y-71733489D01*
X118980264Y-71733501D01*
X119040602Y-71879172D01*
X119040609Y-71879185D01*
X119128210Y-72010288D01*
X119128213Y-72010292D01*
X119239707Y-72121786D01*
X119239711Y-72121789D01*
X119370814Y-72209390D01*
X119370827Y-72209397D01*
X119498630Y-72262334D01*
X119516503Y-72269737D01*
X119671153Y-72300499D01*
X119671156Y-72300500D01*
X119671158Y-72300500D01*
X119828844Y-72300500D01*
X119828845Y-72300499D01*
X119983497Y-72269737D01*
X120129179Y-72209394D01*
X120260289Y-72121789D01*
X120371789Y-72010289D01*
X120459394Y-71879179D01*
X120459795Y-71878210D01*
X120510439Y-71755945D01*
X120554279Y-71701541D01*
X120620573Y-71679476D01*
X120688273Y-71696755D01*
X120735884Y-71747892D01*
X120739561Y-71755945D01*
X120790602Y-71879172D01*
X120790609Y-71879185D01*
X120878210Y-72010288D01*
X120878213Y-72010292D01*
X120989707Y-72121786D01*
X120989711Y-72121789D01*
X121120814Y-72209390D01*
X121120827Y-72209397D01*
X121248630Y-72262334D01*
X121266503Y-72269737D01*
X121421153Y-72300499D01*
X121421156Y-72300500D01*
X121421158Y-72300500D01*
X121578844Y-72300500D01*
X121578845Y-72300499D01*
X121733497Y-72269737D01*
X121879179Y-72209394D01*
X122010289Y-72121789D01*
X122121789Y-72010289D01*
X122209394Y-71879179D01*
X122212854Y-71870827D01*
X122223067Y-71846166D01*
X122269737Y-71733497D01*
X122300500Y-71578842D01*
X122300500Y-71421158D01*
X122300500Y-71421155D01*
X122300499Y-71421153D01*
X122269738Y-71266510D01*
X122269737Y-71266503D01*
X122263774Y-71252107D01*
X122209397Y-71120827D01*
X122209390Y-71120814D01*
X122121789Y-70989711D01*
X122121786Y-70989707D01*
X122010292Y-70878213D01*
X122010288Y-70878210D01*
X121879185Y-70790609D01*
X121879172Y-70790602D01*
X121733501Y-70730264D01*
X121733489Y-70730261D01*
X121578845Y-70699500D01*
X121578842Y-70699500D01*
X121421158Y-70699500D01*
X121421155Y-70699500D01*
X121266510Y-70730261D01*
X121266498Y-70730264D01*
X121120827Y-70790602D01*
X121120814Y-70790609D01*
X120989711Y-70878210D01*
X120989707Y-70878213D01*
X120878213Y-70989707D01*
X120878210Y-70989711D01*
X120790609Y-71120814D01*
X120790602Y-71120827D01*
X120739561Y-71244054D01*
X120695720Y-71298458D01*
X120629426Y-71320523D01*
X120561727Y-71303244D01*
X120514116Y-71252107D01*
X120510439Y-71244054D01*
X120459397Y-71120827D01*
X120459390Y-71120814D01*
X120371789Y-70989711D01*
X120371786Y-70989707D01*
X120260292Y-70878213D01*
X120260288Y-70878210D01*
X120129185Y-70790609D01*
X120129172Y-70790602D01*
X119983501Y-70730264D01*
X119983489Y-70730261D01*
X119828845Y-70699500D01*
X119828842Y-70699500D01*
X119671158Y-70699500D01*
X119671155Y-70699500D01*
X119516510Y-70730261D01*
X119516498Y-70730264D01*
X119370827Y-70790602D01*
X119370814Y-70790609D01*
X119239711Y-70878210D01*
X119239707Y-70878213D01*
X119128213Y-70989707D01*
X119128210Y-70989711D01*
X119040609Y-71120814D01*
X119040602Y-71120827D01*
X118980264Y-71266498D01*
X118980261Y-71266510D01*
X118949500Y-71421153D01*
X97172980Y-71421153D01*
X97184177Y-71404396D01*
X97184180Y-71404389D01*
X97199413Y-71367614D01*
X97241291Y-71266510D01*
X97244520Y-71258714D01*
X97275283Y-71104059D01*
X97275283Y-70946375D01*
X97275283Y-70946372D01*
X97275282Y-70946370D01*
X97244520Y-70791720D01*
X97227404Y-70750398D01*
X97184180Y-70646044D01*
X97184173Y-70646031D01*
X97096572Y-70514928D01*
X97096569Y-70514924D01*
X96985075Y-70403430D01*
X96985071Y-70403427D01*
X96853968Y-70315826D01*
X96853955Y-70315819D01*
X96708284Y-70255481D01*
X96708272Y-70255478D01*
X96553628Y-70224717D01*
X96553625Y-70224717D01*
X96395941Y-70224717D01*
X96395938Y-70224717D01*
X96241293Y-70255478D01*
X96241281Y-70255481D01*
X96095610Y-70315819D01*
X96095597Y-70315826D01*
X95964494Y-70403427D01*
X95964490Y-70403430D01*
X95852996Y-70514924D01*
X95852993Y-70514928D01*
X95765392Y-70646031D01*
X95765385Y-70646044D01*
X95705047Y-70791715D01*
X95705044Y-70791725D01*
X95703120Y-70801398D01*
X95691404Y-70823790D01*
X95683457Y-70847780D01*
X95675483Y-70854223D01*
X95670731Y-70863307D01*
X95648768Y-70875811D01*
X95629113Y-70891695D01*
X95618921Y-70892804D01*
X95610013Y-70897877D01*
X95584779Y-70896522D01*
X95559654Y-70899259D01*
X95547962Y-70894547D01*
X95540244Y-70894133D01*
X95526151Y-70888159D01*
X95519130Y-70884656D01*
X95457610Y-70843550D01*
X95334540Y-70792573D01*
X95330659Y-70790637D01*
X95308113Y-70769703D01*
X95284156Y-70750398D01*
X95280901Y-70744436D01*
X95279457Y-70743096D01*
X95278825Y-70740634D01*
X95271451Y-70727129D01*
X95222141Y-70608083D01*
X95222134Y-70608070D01*
X95134533Y-70476967D01*
X95134530Y-70476963D01*
X95023036Y-70365469D01*
X95023032Y-70365466D01*
X94891929Y-70277865D01*
X94891916Y-70277858D01*
X94746245Y-70217520D01*
X94746233Y-70217517D01*
X94591589Y-70186756D01*
X94591586Y-70186756D01*
X94433902Y-70186756D01*
X94433899Y-70186756D01*
X94279254Y-70217517D01*
X94279242Y-70217520D01*
X94133571Y-70277858D01*
X94133558Y-70277865D01*
X94002455Y-70365466D01*
X94002451Y-70365469D01*
X93890957Y-70476963D01*
X93890954Y-70476967D01*
X93803353Y-70608070D01*
X93803346Y-70608083D01*
X93743008Y-70753754D01*
X93743005Y-70753766D01*
X93712244Y-70908409D01*
X50500500Y-70908409D01*
X50500500Y-68516574D01*
X50520185Y-68449535D01*
X50572989Y-68403780D01*
X50642147Y-68393836D01*
X50705703Y-68422861D01*
X50743477Y-68481639D01*
X50746117Y-68492383D01*
X50760261Y-68563489D01*
X50760264Y-68563501D01*
X50820602Y-68709172D01*
X50820609Y-68709185D01*
X50908210Y-68840288D01*
X50908213Y-68840292D01*
X51019707Y-68951786D01*
X51019711Y-68951789D01*
X51150814Y-69039390D01*
X51150827Y-69039397D01*
X51296498Y-69099735D01*
X51296503Y-69099737D01*
X51451153Y-69130499D01*
X51451156Y-69130500D01*
X51451158Y-69130500D01*
X51608844Y-69130500D01*
X51608845Y-69130499D01*
X51763497Y-69099737D01*
X51909179Y-69039394D01*
X52040289Y-68951789D01*
X52151789Y-68840289D01*
X52239394Y-68709179D01*
X52299737Y-68563497D01*
X52328051Y-68421153D01*
X53699500Y-68421153D01*
X53699500Y-68578846D01*
X53730261Y-68733489D01*
X53730264Y-68733501D01*
X53790602Y-68879172D01*
X53790609Y-68879185D01*
X53878210Y-69010288D01*
X53878213Y-69010292D01*
X53989707Y-69121786D01*
X53989711Y-69121789D01*
X54120814Y-69209390D01*
X54120827Y-69209397D01*
X54266498Y-69269735D01*
X54266503Y-69269737D01*
X54421153Y-69300499D01*
X54421156Y-69300500D01*
X54421158Y-69300500D01*
X54578844Y-69300500D01*
X54578845Y-69300499D01*
X54733497Y-69269737D01*
X54879179Y-69209394D01*
X55010289Y-69121789D01*
X55121789Y-69010289D01*
X55209394Y-68879179D01*
X55269737Y-68733497D01*
X55300500Y-68578842D01*
X55300500Y-68421158D01*
X55300500Y-68421155D01*
X55300499Y-68421153D01*
X55269738Y-68266510D01*
X55269737Y-68266503D01*
X55269735Y-68266498D01*
X55209397Y-68120827D01*
X55209390Y-68120814D01*
X55121789Y-67989711D01*
X55121786Y-67989707D01*
X55010292Y-67878213D01*
X55010288Y-67878210D01*
X54879185Y-67790609D01*
X54879172Y-67790602D01*
X54733501Y-67730264D01*
X54733489Y-67730261D01*
X54578845Y-67699500D01*
X54578842Y-67699500D01*
X54421158Y-67699500D01*
X54421155Y-67699500D01*
X54266510Y-67730261D01*
X54266498Y-67730264D01*
X54120827Y-67790602D01*
X54120814Y-67790609D01*
X53989711Y-67878210D01*
X53989707Y-67878213D01*
X53878213Y-67989707D01*
X53878210Y-67989711D01*
X53790609Y-68120814D01*
X53790602Y-68120827D01*
X53730264Y-68266498D01*
X53730261Y-68266510D01*
X53699500Y-68421153D01*
X52328051Y-68421153D01*
X52330500Y-68408842D01*
X52330500Y-68251158D01*
X52330500Y-68251155D01*
X52330499Y-68251153D01*
X52322193Y-68209397D01*
X52299737Y-68096503D01*
X52264028Y-68010292D01*
X52239397Y-67950827D01*
X52239390Y-67950814D01*
X52151789Y-67819711D01*
X52151786Y-67819707D01*
X52040292Y-67708213D01*
X52040288Y-67708210D01*
X51909185Y-67620609D01*
X51909172Y-67620602D01*
X51763501Y-67560264D01*
X51763489Y-67560261D01*
X51644956Y-67536683D01*
X51644955Y-67536683D01*
X51608844Y-67529500D01*
X51608842Y-67529500D01*
X51451158Y-67529500D01*
X51451155Y-67529500D01*
X51296510Y-67560261D01*
X51296498Y-67560264D01*
X51150827Y-67620602D01*
X51150814Y-67620609D01*
X51019711Y-67708210D01*
X51019707Y-67708213D01*
X50908213Y-67819707D01*
X50908210Y-67819711D01*
X50820609Y-67950814D01*
X50820602Y-67950827D01*
X50760264Y-68096498D01*
X50760261Y-68096508D01*
X50746117Y-68167617D01*
X50713732Y-68229528D01*
X50653016Y-68264102D01*
X50583247Y-68260362D01*
X50526575Y-68219495D01*
X50500994Y-68154477D01*
X50500500Y-68143425D01*
X50500500Y-67421153D01*
X100849500Y-67421153D01*
X100849500Y-67578846D01*
X100880261Y-67733489D01*
X100880264Y-67733501D01*
X100940602Y-67879172D01*
X100940609Y-67879185D01*
X101028210Y-68010288D01*
X101028213Y-68010292D01*
X101139707Y-68121786D01*
X101139711Y-68121789D01*
X101270814Y-68209390D01*
X101270827Y-68209397D01*
X101402899Y-68264102D01*
X101416503Y-68269737D01*
X101571153Y-68300499D01*
X101571156Y-68300500D01*
X101571158Y-68300500D01*
X101728844Y-68300500D01*
X101728845Y-68300499D01*
X101883497Y-68269737D01*
X102029179Y-68209394D01*
X102160289Y-68121789D01*
X102271789Y-68010289D01*
X102359394Y-67879179D01*
X102419737Y-67733497D01*
X102450500Y-67578842D01*
X102450500Y-67421158D01*
X102450500Y-67421155D01*
X102450499Y-67421153D01*
X110699500Y-67421153D01*
X110699500Y-67578846D01*
X110730261Y-67733489D01*
X110730264Y-67733501D01*
X110790602Y-67879172D01*
X110790609Y-67879185D01*
X110878210Y-68010288D01*
X110878213Y-68010292D01*
X110989707Y-68121786D01*
X110989711Y-68121789D01*
X111120814Y-68209390D01*
X111120827Y-68209397D01*
X111252899Y-68264102D01*
X111266503Y-68269737D01*
X111421153Y-68300499D01*
X111421156Y-68300500D01*
X111421158Y-68300500D01*
X111578844Y-68300500D01*
X111578845Y-68300499D01*
X111733497Y-68269737D01*
X111879179Y-68209394D01*
X112010289Y-68121789D01*
X112121789Y-68010289D01*
X112209394Y-67879179D01*
X112269737Y-67733497D01*
X112300500Y-67578842D01*
X112300500Y-67421158D01*
X112300500Y-67421155D01*
X112300499Y-67421153D01*
X112269738Y-67266510D01*
X112269737Y-67266503D01*
X112242398Y-67200500D01*
X112209397Y-67120827D01*
X112209390Y-67120814D01*
X112121789Y-66989711D01*
X112121786Y-66989707D01*
X112010292Y-66878213D01*
X112010288Y-66878210D01*
X111879185Y-66790609D01*
X111879172Y-66790602D01*
X111733501Y-66730264D01*
X111733489Y-66730261D01*
X111578845Y-66699500D01*
X111578842Y-66699500D01*
X111421158Y-66699500D01*
X111421155Y-66699500D01*
X111266510Y-66730261D01*
X111266498Y-66730264D01*
X111120827Y-66790602D01*
X111120814Y-66790609D01*
X110989711Y-66878210D01*
X110989707Y-66878213D01*
X110878213Y-66989707D01*
X110878210Y-66989711D01*
X110790609Y-67120814D01*
X110790602Y-67120827D01*
X110730264Y-67266498D01*
X110730261Y-67266510D01*
X110699500Y-67421153D01*
X102450499Y-67421153D01*
X102419738Y-67266510D01*
X102419737Y-67266503D01*
X102392398Y-67200500D01*
X102359397Y-67120827D01*
X102359390Y-67120814D01*
X102271789Y-66989711D01*
X102271786Y-66989707D01*
X102160292Y-66878213D01*
X102160288Y-66878210D01*
X102029185Y-66790609D01*
X102029172Y-66790602D01*
X101883501Y-66730264D01*
X101883489Y-66730261D01*
X101728845Y-66699500D01*
X101728842Y-66699500D01*
X101571158Y-66699500D01*
X101571155Y-66699500D01*
X101416510Y-66730261D01*
X101416498Y-66730264D01*
X101270827Y-66790602D01*
X101270814Y-66790609D01*
X101139711Y-66878210D01*
X101139707Y-66878213D01*
X101028213Y-66989707D01*
X101028210Y-66989711D01*
X100940609Y-67120814D01*
X100940602Y-67120827D01*
X100880264Y-67266498D01*
X100880261Y-67266510D01*
X100849500Y-67421153D01*
X50500500Y-67421153D01*
X50500500Y-65871888D01*
X69150235Y-65871888D01*
X69150235Y-66029581D01*
X69180996Y-66184224D01*
X69180999Y-66184236D01*
X69241337Y-66329907D01*
X69241344Y-66329920D01*
X69328945Y-66461023D01*
X69328948Y-66461027D01*
X69440442Y-66572521D01*
X69440446Y-66572524D01*
X69571549Y-66660125D01*
X69571562Y-66660132D01*
X69690483Y-66709390D01*
X69717238Y-66720472D01*
X69871888Y-66751234D01*
X69871891Y-66751235D01*
X69871893Y-66751235D01*
X70029579Y-66751235D01*
X70029580Y-66751234D01*
X70184232Y-66720472D01*
X70329914Y-66660129D01*
X70461024Y-66572524D01*
X70572524Y-66461024D01*
X70660129Y-66329914D01*
X70720472Y-66184232D01*
X70751235Y-66029577D01*
X70751235Y-65932676D01*
X70770920Y-65865637D01*
X70823724Y-65819882D01*
X70892882Y-65809938D01*
X70956438Y-65838963D01*
X70962916Y-65844995D01*
X70989707Y-65871786D01*
X70989711Y-65871789D01*
X71120814Y-65959390D01*
X71120827Y-65959397D01*
X71266498Y-66019735D01*
X71266503Y-66019737D01*
X71421153Y-66050499D01*
X71421156Y-66050500D01*
X71421158Y-66050500D01*
X71578844Y-66050500D01*
X71578845Y-66050499D01*
X71733497Y-66019737D01*
X71879179Y-65959394D01*
X71936411Y-65921153D01*
X73199500Y-65921153D01*
X73199500Y-66078846D01*
X73230261Y-66233489D01*
X73230264Y-66233501D01*
X73290602Y-66379172D01*
X73290609Y-66379185D01*
X73378210Y-66510288D01*
X73378213Y-66510292D01*
X73489707Y-66621786D01*
X73489711Y-66621789D01*
X73620814Y-66709390D01*
X73620827Y-66709397D01*
X73766498Y-66769735D01*
X73766503Y-66769737D01*
X73921153Y-66800499D01*
X73921156Y-66800500D01*
X73921158Y-66800500D01*
X74078844Y-66800500D01*
X74078845Y-66800499D01*
X74233497Y-66769737D01*
X74379179Y-66709394D01*
X74510289Y-66621789D01*
X74621789Y-66510289D01*
X74709394Y-66379179D01*
X74769737Y-66233497D01*
X74800500Y-66078842D01*
X74800500Y-65921158D01*
X74800500Y-65921155D01*
X74800499Y-65921153D01*
X74791569Y-65876258D01*
X74769737Y-65766503D01*
X74742398Y-65700500D01*
X74709397Y-65620827D01*
X74709390Y-65620814D01*
X74621789Y-65489711D01*
X74621786Y-65489707D01*
X74510292Y-65378213D01*
X74510288Y-65378210D01*
X74379185Y-65290609D01*
X74379172Y-65290602D01*
X74233501Y-65230264D01*
X74233489Y-65230261D01*
X74078845Y-65199500D01*
X74078842Y-65199500D01*
X73921158Y-65199500D01*
X73921155Y-65199500D01*
X73766510Y-65230261D01*
X73766498Y-65230264D01*
X73620827Y-65290602D01*
X73620814Y-65290609D01*
X73489711Y-65378210D01*
X73489707Y-65378213D01*
X73378213Y-65489707D01*
X73378210Y-65489711D01*
X73290609Y-65620814D01*
X73290602Y-65620827D01*
X73230264Y-65766498D01*
X73230261Y-65766510D01*
X73199500Y-65921153D01*
X71936411Y-65921153D01*
X72010289Y-65871789D01*
X72016441Y-65865637D01*
X72054694Y-65827385D01*
X72121786Y-65760292D01*
X72121789Y-65760289D01*
X72209394Y-65629179D01*
X72212854Y-65620827D01*
X72225744Y-65589706D01*
X72269737Y-65483497D01*
X72300500Y-65328842D01*
X72300500Y-65171158D01*
X72300500Y-65171155D01*
X72300499Y-65171153D01*
X72269738Y-65016510D01*
X72269737Y-65016503D01*
X72254139Y-64978846D01*
X72209397Y-64870827D01*
X72209390Y-64870814D01*
X72121789Y-64739711D01*
X72121786Y-64739707D01*
X72010292Y-64628213D01*
X72010288Y-64628210D01*
X71879185Y-64540609D01*
X71879172Y-64540602D01*
X71733501Y-64480264D01*
X71733489Y-64480261D01*
X71578845Y-64449500D01*
X71578842Y-64449500D01*
X71428018Y-64449500D01*
X71360979Y-64429815D01*
X71324914Y-64394388D01*
X71321788Y-64389709D01*
X71210292Y-64278213D01*
X71210288Y-64278210D01*
X71079185Y-64190609D01*
X71079172Y-64190602D01*
X70933501Y-64130264D01*
X70933489Y-64130261D01*
X70778845Y-64099500D01*
X70778842Y-64099500D01*
X70621158Y-64099500D01*
X70621155Y-64099500D01*
X70466510Y-64130261D01*
X70466498Y-64130264D01*
X70320827Y-64190602D01*
X70320814Y-64190609D01*
X70189711Y-64278210D01*
X70189707Y-64278213D01*
X70078213Y-64389707D01*
X70078210Y-64389711D01*
X69990609Y-64520814D01*
X69990602Y-64520827D01*
X69930264Y-64666498D01*
X69930261Y-64666510D01*
X69899500Y-64821153D01*
X69899500Y-64978846D01*
X69907052Y-65016812D01*
X69900825Y-65086403D01*
X69857962Y-65141581D01*
X69809627Y-65162620D01*
X69717243Y-65180996D01*
X69717233Y-65180999D01*
X69571562Y-65241337D01*
X69571549Y-65241344D01*
X69440446Y-65328945D01*
X69440442Y-65328948D01*
X69328948Y-65440442D01*
X69328945Y-65440446D01*
X69241344Y-65571549D01*
X69241337Y-65571562D01*
X69180999Y-65717233D01*
X69180996Y-65717245D01*
X69150235Y-65871888D01*
X50500500Y-65871888D01*
X50500500Y-63071153D01*
X71599500Y-63071153D01*
X71599500Y-63228846D01*
X71630261Y-63383489D01*
X71630264Y-63383501D01*
X71690602Y-63529172D01*
X71690609Y-63529185D01*
X71778210Y-63660288D01*
X71778213Y-63660292D01*
X71889707Y-63771786D01*
X71889711Y-63771789D01*
X72020814Y-63859390D01*
X72020827Y-63859397D01*
X72166498Y-63919735D01*
X72166503Y-63919737D01*
X72321153Y-63950499D01*
X72321156Y-63950500D01*
X72321158Y-63950500D01*
X72478844Y-63950500D01*
X72478845Y-63950499D01*
X72633497Y-63919737D01*
X72779179Y-63859394D01*
X72910289Y-63771789D01*
X73021789Y-63660289D01*
X73109394Y-63529179D01*
X73169737Y-63383497D01*
X73200500Y-63228842D01*
X73200500Y-63071158D01*
X73200500Y-63071155D01*
X73200499Y-63071153D01*
X73169738Y-62916510D01*
X73169737Y-62916503D01*
X73169735Y-62916498D01*
X73109397Y-62770827D01*
X73109390Y-62770814D01*
X73033726Y-62657576D01*
X73033725Y-62657575D01*
X73021787Y-62639708D01*
X72976851Y-62594772D01*
X73403152Y-62594772D01*
X73403152Y-62752465D01*
X73433913Y-62907108D01*
X73433916Y-62907120D01*
X73494254Y-63052791D01*
X73494261Y-63052804D01*
X73581862Y-63183907D01*
X73581865Y-63183911D01*
X73693359Y-63295405D01*
X73693363Y-63295408D01*
X73824466Y-63383009D01*
X73824479Y-63383016D01*
X73960486Y-63439351D01*
X73970155Y-63443356D01*
X74124805Y-63474118D01*
X74124808Y-63474119D01*
X74124810Y-63474119D01*
X74282496Y-63474119D01*
X74282497Y-63474118D01*
X74437149Y-63443356D01*
X74474479Y-63427892D01*
X74543948Y-63420423D01*
X74590824Y-63439351D01*
X74596815Y-63443354D01*
X74620821Y-63459394D01*
X74620823Y-63459395D01*
X74620827Y-63459397D01*
X74694013Y-63489711D01*
X74766503Y-63519737D01*
X74921153Y-63550499D01*
X74921156Y-63550500D01*
X74921158Y-63550500D01*
X74988573Y-63550500D01*
X75055612Y-63570185D01*
X75091675Y-63605610D01*
X75128207Y-63660284D01*
X75128213Y-63660292D01*
X75239707Y-63771786D01*
X75239711Y-63771789D01*
X75370814Y-63859390D01*
X75370827Y-63859397D01*
X75516498Y-63919735D01*
X75516503Y-63919737D01*
X75671153Y-63950499D01*
X75671156Y-63950500D01*
X75671158Y-63950500D01*
X75828844Y-63950500D01*
X75828845Y-63950499D01*
X75976378Y-63921153D01*
X90124283Y-63921153D01*
X90124283Y-64078846D01*
X90155044Y-64233489D01*
X90155047Y-64233501D01*
X90215385Y-64379172D01*
X90215392Y-64379185D01*
X90302993Y-64510288D01*
X90302996Y-64510292D01*
X90414490Y-64621786D01*
X90414494Y-64621789D01*
X90545597Y-64709390D01*
X90545610Y-64709397D01*
X90655579Y-64754947D01*
X90709983Y-64798787D01*
X90732048Y-64865081D01*
X90729745Y-64893698D01*
X90724283Y-64921159D01*
X90724283Y-65078846D01*
X90755044Y-65233489D01*
X90755047Y-65233501D01*
X90815385Y-65379172D01*
X90815392Y-65379185D01*
X90902993Y-65510288D01*
X90902996Y-65510292D01*
X91014490Y-65621786D01*
X91014494Y-65621789D01*
X91145597Y-65709390D01*
X91145610Y-65709397D01*
X91282560Y-65766123D01*
X91336964Y-65809964D01*
X91359029Y-65876258D01*
X91341750Y-65943957D01*
X91338210Y-65949574D01*
X91290612Y-66020809D01*
X91290602Y-66020827D01*
X91230264Y-66166498D01*
X91230261Y-66166510D01*
X91199500Y-66321153D01*
X91199500Y-66478846D01*
X91230261Y-66633489D01*
X91230264Y-66633501D01*
X91290602Y-66779172D01*
X91290609Y-66779185D01*
X91378210Y-66910288D01*
X91378213Y-66910292D01*
X91489707Y-67021786D01*
X91489711Y-67021789D01*
X91620814Y-67109390D01*
X91620827Y-67109397D01*
X91766498Y-67169735D01*
X91766503Y-67169737D01*
X91921153Y-67200499D01*
X91921156Y-67200500D01*
X91921158Y-67200500D01*
X92078844Y-67200500D01*
X92078845Y-67200499D01*
X92233497Y-67169737D01*
X92351592Y-67120821D01*
X92379172Y-67109397D01*
X92379172Y-67109396D01*
X92379179Y-67109394D01*
X92510289Y-67021789D01*
X92621789Y-66910289D01*
X92658325Y-66855610D01*
X92711937Y-66810804D01*
X92761427Y-66800500D01*
X92828844Y-66800500D01*
X92828845Y-66800499D01*
X92983497Y-66769737D01*
X93129179Y-66709394D01*
X93260289Y-66621789D01*
X93288690Y-66593387D01*
X93350011Y-66559903D01*
X93419703Y-66564887D01*
X93474212Y-66605690D01*
X93474347Y-66605580D01*
X93474796Y-66606128D01*
X93475637Y-66606757D01*
X93477667Y-66609626D01*
X93478213Y-66610291D01*
X93589707Y-66721785D01*
X93589711Y-66721788D01*
X93720814Y-66809389D01*
X93720827Y-66809396D01*
X93866498Y-66869734D01*
X93866503Y-66869736D01*
X94021153Y-66900498D01*
X94021156Y-66900499D01*
X94021158Y-66900499D01*
X94178844Y-66900499D01*
X94178845Y-66900498D01*
X94333497Y-66869736D01*
X94479179Y-66809393D01*
X94610289Y-66721788D01*
X94721789Y-66610288D01*
X94809394Y-66479178D01*
X94869737Y-66333496D01*
X94900500Y-66178841D01*
X94900500Y-66021157D01*
X94900500Y-66021154D01*
X94900499Y-66021152D01*
X94880608Y-65921153D01*
X94869737Y-65866502D01*
X94858330Y-65838963D01*
X94809397Y-65720826D01*
X94809390Y-65720813D01*
X94721789Y-65589710D01*
X94721786Y-65589706D01*
X94610292Y-65478212D01*
X94610288Y-65478209D01*
X94479185Y-65390608D01*
X94479172Y-65390601D01*
X94333501Y-65330263D01*
X94333489Y-65330260D01*
X94178845Y-65299499D01*
X94178842Y-65299499D01*
X94021158Y-65299499D01*
X94021155Y-65299499D01*
X93866510Y-65330260D01*
X93866498Y-65330263D01*
X93720827Y-65390601D01*
X93720814Y-65390608D01*
X93589711Y-65478209D01*
X93561308Y-65506612D01*
X93499984Y-65540096D01*
X93430293Y-65535110D01*
X93375788Y-65494307D01*
X93375653Y-65494419D01*
X93375199Y-65493866D01*
X93374360Y-65493238D01*
X93372333Y-65490373D01*
X93371786Y-65489707D01*
X93260292Y-65378213D01*
X93260288Y-65378210D01*
X93129185Y-65290609D01*
X93129172Y-65290602D01*
X92983501Y-65230264D01*
X92983489Y-65230261D01*
X92828845Y-65199500D01*
X92828842Y-65199500D01*
X92671158Y-65199500D01*
X92671155Y-65199500D01*
X92516510Y-65230261D01*
X92516503Y-65230263D01*
X92489614Y-65241400D01*
X92420144Y-65248866D01*
X92357666Y-65217589D01*
X92322016Y-65157499D01*
X92320548Y-65102645D01*
X92325283Y-65078842D01*
X92325283Y-64921158D01*
X92325283Y-64921155D01*
X92325282Y-64921153D01*
X92315269Y-64870814D01*
X92294520Y-64766503D01*
X92289733Y-64754947D01*
X92234180Y-64620827D01*
X92234173Y-64620814D01*
X92146572Y-64489711D01*
X92146569Y-64489707D01*
X92035075Y-64378213D01*
X92035071Y-64378210D01*
X91903968Y-64290609D01*
X91903959Y-64290604D01*
X91793985Y-64245052D01*
X91739582Y-64201211D01*
X91717517Y-64134917D01*
X91719820Y-64106303D01*
X91725283Y-64078842D01*
X91725283Y-63921158D01*
X91725283Y-63921155D01*
X91725282Y-63921153D01*
X91695571Y-63771789D01*
X91694520Y-63766503D01*
X91694518Y-63766498D01*
X91634180Y-63620827D01*
X91634173Y-63620814D01*
X91546572Y-63489711D01*
X91546569Y-63489707D01*
X91435075Y-63378213D01*
X91435071Y-63378210D01*
X91303968Y-63290609D01*
X91303955Y-63290602D01*
X91158284Y-63230264D01*
X91158272Y-63230261D01*
X91003628Y-63199500D01*
X91003625Y-63199500D01*
X90845941Y-63199500D01*
X90845938Y-63199500D01*
X90691293Y-63230261D01*
X90691281Y-63230264D01*
X90545610Y-63290602D01*
X90545597Y-63290609D01*
X90414494Y-63378210D01*
X90414490Y-63378213D01*
X90302996Y-63489707D01*
X90302993Y-63489711D01*
X90215392Y-63620814D01*
X90215385Y-63620827D01*
X90155047Y-63766498D01*
X90155044Y-63766510D01*
X90124283Y-63921153D01*
X75976378Y-63921153D01*
X75983497Y-63919737D01*
X76129179Y-63859394D01*
X76129185Y-63859390D01*
X76200164Y-63811964D01*
X76231224Y-63791209D01*
X76260289Y-63771789D01*
X76371789Y-63660289D01*
X76459394Y-63529179D01*
X76519737Y-63383497D01*
X76550500Y-63228842D01*
X76550500Y-63071158D01*
X76550500Y-63071155D01*
X76550499Y-63071153D01*
X76519738Y-62916510D01*
X76519737Y-62916503D01*
X76519735Y-62916498D01*
X76459397Y-62770827D01*
X76459390Y-62770814D01*
X76371789Y-62639711D01*
X76371786Y-62639707D01*
X76260292Y-62528213D01*
X76260288Y-62528210D01*
X76129185Y-62440609D01*
X76129172Y-62440602D01*
X75983501Y-62380264D01*
X75983489Y-62380261D01*
X75828845Y-62349500D01*
X75828842Y-62349500D01*
X75761427Y-62349500D01*
X75694388Y-62329815D01*
X75658325Y-62294390D01*
X75621792Y-62239715D01*
X75621786Y-62239707D01*
X75510292Y-62128213D01*
X75510288Y-62128210D01*
X75379185Y-62040609D01*
X75379172Y-62040602D01*
X75233501Y-61980264D01*
X75233489Y-61980261D01*
X75078845Y-61949500D01*
X75078842Y-61949500D01*
X74921158Y-61949500D01*
X74921155Y-61949500D01*
X74766511Y-61980260D01*
X74766497Y-61980264D01*
X74729166Y-61995727D01*
X74659697Y-62003194D01*
X74612826Y-61984267D01*
X74582836Y-61964228D01*
X74582833Y-61964226D01*
X74582831Y-61964225D01*
X74582828Y-61964223D01*
X74582823Y-61964221D01*
X74437153Y-61903883D01*
X74437141Y-61903880D01*
X74282497Y-61873119D01*
X74282494Y-61873119D01*
X74124810Y-61873119D01*
X74124807Y-61873119D01*
X73970162Y-61903880D01*
X73970150Y-61903883D01*
X73824479Y-61964221D01*
X73824466Y-61964228D01*
X73693363Y-62051829D01*
X73693359Y-62051832D01*
X73581865Y-62163326D01*
X73581862Y-62163330D01*
X73494261Y-62294433D01*
X73494254Y-62294446D01*
X73433916Y-62440117D01*
X73433913Y-62440129D01*
X73403152Y-62594772D01*
X72976851Y-62594772D01*
X72910292Y-62528213D01*
X72910288Y-62528210D01*
X72779185Y-62440609D01*
X72779172Y-62440602D01*
X72633501Y-62380264D01*
X72633489Y-62380261D01*
X72478845Y-62349500D01*
X72478842Y-62349500D01*
X72321158Y-62349500D01*
X72321155Y-62349500D01*
X72166510Y-62380261D01*
X72166498Y-62380264D01*
X72020827Y-62440602D01*
X72020814Y-62440609D01*
X71889711Y-62528210D01*
X71889707Y-62528213D01*
X71778213Y-62639707D01*
X71778210Y-62639711D01*
X71690609Y-62770814D01*
X71690602Y-62770827D01*
X71630264Y-62916498D01*
X71630261Y-62916510D01*
X71599500Y-63071153D01*
X50500500Y-63071153D01*
X50500500Y-60421153D01*
X84449500Y-60421153D01*
X84449500Y-60578846D01*
X84480261Y-60733489D01*
X84480264Y-60733501D01*
X84540602Y-60879172D01*
X84540609Y-60879185D01*
X84628210Y-61010288D01*
X84628213Y-61010292D01*
X84739707Y-61121786D01*
X84739711Y-61121789D01*
X84870814Y-61209390D01*
X84870827Y-61209397D01*
X85016498Y-61269735D01*
X85016503Y-61269737D01*
X85171153Y-61300499D01*
X85171156Y-61300500D01*
X85171158Y-61300500D01*
X85328844Y-61300500D01*
X85328845Y-61300499D01*
X85483497Y-61269737D01*
X85629179Y-61209394D01*
X85760289Y-61121789D01*
X85871789Y-61010289D01*
X85959394Y-60879179D01*
X86019737Y-60733497D01*
X86050500Y-60578842D01*
X86050500Y-60421158D01*
X86050500Y-60421155D01*
X86050499Y-60421153D01*
X86019738Y-60266510D01*
X86019737Y-60266503D01*
X86013456Y-60251339D01*
X85959397Y-60120827D01*
X85959390Y-60120814D01*
X85871789Y-59989711D01*
X85871786Y-59989707D01*
X85760292Y-59878213D01*
X85760288Y-59878210D01*
X85629185Y-59790609D01*
X85629172Y-59790602D01*
X85581069Y-59770678D01*
X85483501Y-59730264D01*
X85483489Y-59730261D01*
X85328845Y-59699500D01*
X85328842Y-59699500D01*
X85171158Y-59699500D01*
X85171155Y-59699500D01*
X85016510Y-59730261D01*
X85016498Y-59730264D01*
X84870827Y-59790602D01*
X84870814Y-59790609D01*
X84739711Y-59878210D01*
X84739707Y-59878213D01*
X84628213Y-59989707D01*
X84628210Y-59989711D01*
X84540609Y-60120814D01*
X84540602Y-60120827D01*
X84480264Y-60266498D01*
X84480261Y-60266510D01*
X84449500Y-60421153D01*
X50500500Y-60421153D01*
X50500500Y-59662204D01*
X90196517Y-59662204D01*
X90196517Y-59819897D01*
X90227278Y-59974540D01*
X90227281Y-59974552D01*
X90287619Y-60120223D01*
X90287626Y-60120236D01*
X90375227Y-60251339D01*
X90375230Y-60251343D01*
X90418484Y-60294596D01*
X90451970Y-60355919D01*
X90452422Y-60406467D01*
X90449500Y-60421158D01*
X90449500Y-60578846D01*
X90480261Y-60733489D01*
X90480264Y-60733501D01*
X90540602Y-60879172D01*
X90540609Y-60879185D01*
X90628210Y-61010288D01*
X90628213Y-61010292D01*
X90739707Y-61121786D01*
X90739711Y-61121789D01*
X90870814Y-61209390D01*
X90870827Y-61209397D01*
X91016498Y-61269735D01*
X91016503Y-61269737D01*
X91171153Y-61300499D01*
X91171156Y-61300500D01*
X91171158Y-61300500D01*
X91328844Y-61300500D01*
X91328845Y-61300499D01*
X91476378Y-61271153D01*
X97199500Y-61271153D01*
X97199500Y-61428846D01*
X97230261Y-61583489D01*
X97230264Y-61583501D01*
X97290602Y-61729172D01*
X97290609Y-61729185D01*
X97378210Y-61860288D01*
X97378213Y-61860292D01*
X97489707Y-61971786D01*
X97489711Y-61971789D01*
X97620814Y-62059390D01*
X97620827Y-62059397D01*
X97766498Y-62119735D01*
X97766503Y-62119737D01*
X97921153Y-62150499D01*
X97921156Y-62150500D01*
X97921158Y-62150500D01*
X98078844Y-62150500D01*
X98078845Y-62150499D01*
X98233497Y-62119737D01*
X98379179Y-62059394D01*
X98510289Y-61971789D01*
X98621789Y-61860289D01*
X98709394Y-61729179D01*
X98769737Y-61583497D01*
X98800500Y-61428842D01*
X98800500Y-61271158D01*
X98800500Y-61271155D01*
X98800499Y-61271153D01*
X98770788Y-61121789D01*
X98769737Y-61116503D01*
X98769735Y-61116498D01*
X98709397Y-60970827D01*
X98709390Y-60970814D01*
X98621789Y-60839711D01*
X98621786Y-60839707D01*
X98510292Y-60728213D01*
X98510288Y-60728210D01*
X98379185Y-60640609D01*
X98379172Y-60640602D01*
X98233501Y-60580264D01*
X98233489Y-60580261D01*
X98078845Y-60549500D01*
X98078842Y-60549500D01*
X97921158Y-60549500D01*
X97921155Y-60549500D01*
X97766510Y-60580261D01*
X97766498Y-60580264D01*
X97620827Y-60640602D01*
X97620814Y-60640609D01*
X97489711Y-60728210D01*
X97489707Y-60728213D01*
X97378213Y-60839707D01*
X97378210Y-60839711D01*
X97290609Y-60970814D01*
X97290602Y-60970827D01*
X97230264Y-61116498D01*
X97230261Y-61116510D01*
X97199500Y-61271153D01*
X91476378Y-61271153D01*
X91483497Y-61269737D01*
X91629179Y-61209394D01*
X91629185Y-61209390D01*
X91700164Y-61161964D01*
X91731224Y-61141209D01*
X91760289Y-61121789D01*
X91871789Y-61010289D01*
X91959394Y-60879179D01*
X92019737Y-60733497D01*
X92050500Y-60578842D01*
X92050500Y-60421158D01*
X92050500Y-60421155D01*
X92050499Y-60421153D01*
X92019738Y-60266510D01*
X92019737Y-60266503D01*
X92013456Y-60251339D01*
X91959397Y-60120827D01*
X91959390Y-60120814D01*
X91871789Y-59989711D01*
X91871786Y-59989707D01*
X91828532Y-59946454D01*
X91795046Y-59885131D01*
X91794596Y-59834576D01*
X91797517Y-59819893D01*
X91797517Y-59662209D01*
X91797517Y-59662206D01*
X91797516Y-59662204D01*
X91766755Y-59507561D01*
X91766754Y-59507554D01*
X91766752Y-59507549D01*
X91706414Y-59361878D01*
X91706407Y-59361865D01*
X91618806Y-59230762D01*
X91618803Y-59230758D01*
X91507309Y-59119264D01*
X91507305Y-59119261D01*
X91376202Y-59031660D01*
X91376189Y-59031653D01*
X91230518Y-58971315D01*
X91230506Y-58971312D01*
X91075862Y-58940551D01*
X91075859Y-58940551D01*
X90918175Y-58940551D01*
X90918172Y-58940551D01*
X90763527Y-58971312D01*
X90763515Y-58971315D01*
X90617844Y-59031653D01*
X90617831Y-59031660D01*
X90486728Y-59119261D01*
X90486724Y-59119264D01*
X90375230Y-59230758D01*
X90375227Y-59230762D01*
X90287626Y-59361865D01*
X90287619Y-59361878D01*
X90227281Y-59507549D01*
X90227278Y-59507561D01*
X90196517Y-59662204D01*
X50500500Y-59662204D01*
X50500500Y-58171153D01*
X82699500Y-58171153D01*
X82699500Y-58328846D01*
X82730261Y-58483489D01*
X82730264Y-58483501D01*
X82790602Y-58629172D01*
X82790609Y-58629185D01*
X82878210Y-58760288D01*
X82878213Y-58760292D01*
X82989707Y-58871786D01*
X82989711Y-58871789D01*
X83120814Y-58959390D01*
X83120827Y-58959397D01*
X83266498Y-59019735D01*
X83266503Y-59019737D01*
X83421153Y-59050499D01*
X83421156Y-59050500D01*
X83421158Y-59050500D01*
X83578844Y-59050500D01*
X83578845Y-59050499D01*
X83733497Y-59019737D01*
X83879179Y-58959394D01*
X84010289Y-58871789D01*
X84121789Y-58760289D01*
X84209394Y-58629179D01*
X84269737Y-58483497D01*
X84300500Y-58328842D01*
X84300500Y-58171158D01*
X84300500Y-58171155D01*
X84300499Y-58171153D01*
X92199500Y-58171153D01*
X92199500Y-58328846D01*
X92230261Y-58483489D01*
X92230264Y-58483501D01*
X92290602Y-58629172D01*
X92290609Y-58629185D01*
X92378210Y-58760288D01*
X92378213Y-58760292D01*
X92489707Y-58871786D01*
X92489711Y-58871789D01*
X92620814Y-58959390D01*
X92620827Y-58959397D01*
X92766498Y-59019735D01*
X92766503Y-59019737D01*
X92921153Y-59050499D01*
X92921156Y-59050500D01*
X92921158Y-59050500D01*
X93078844Y-59050500D01*
X93078845Y-59050499D01*
X93233497Y-59019737D01*
X93379179Y-58959394D01*
X93510289Y-58871789D01*
X93621789Y-58760289D01*
X93709394Y-58629179D01*
X93769737Y-58483497D01*
X93800500Y-58328842D01*
X93800500Y-58171158D01*
X93800500Y-58171155D01*
X93800499Y-58171153D01*
X93798338Y-58160288D01*
X93769737Y-58016503D01*
X93769735Y-58016498D01*
X93709397Y-57870827D01*
X93709390Y-57870814D01*
X93621789Y-57739711D01*
X93621786Y-57739707D01*
X93510292Y-57628213D01*
X93510288Y-57628210D01*
X93424897Y-57571153D01*
X100099500Y-57571153D01*
X100099500Y-57728846D01*
X100130261Y-57883489D01*
X100130264Y-57883501D01*
X100190602Y-58029172D01*
X100190609Y-58029185D01*
X100278210Y-58160288D01*
X100278213Y-58160292D01*
X100389707Y-58271786D01*
X100389711Y-58271789D01*
X100520814Y-58359390D01*
X100520827Y-58359397D01*
X100666498Y-58419735D01*
X100666503Y-58419737D01*
X100821153Y-58450499D01*
X100821156Y-58450500D01*
X100821158Y-58450500D01*
X100978844Y-58450500D01*
X100978845Y-58450499D01*
X101133497Y-58419737D01*
X101279179Y-58359394D01*
X101410289Y-58271789D01*
X101521789Y-58160289D01*
X101609394Y-58029179D01*
X101669737Y-57883497D01*
X101700500Y-57728842D01*
X101700500Y-57571158D01*
X101700500Y-57571155D01*
X101700499Y-57571153D01*
X101682419Y-57480261D01*
X101669737Y-57416503D01*
X101669735Y-57416498D01*
X101609397Y-57270827D01*
X101609390Y-57270814D01*
X101521789Y-57139711D01*
X101521786Y-57139707D01*
X101410292Y-57028213D01*
X101410288Y-57028210D01*
X101279185Y-56940609D01*
X101279172Y-56940602D01*
X101133501Y-56880264D01*
X101133489Y-56880261D01*
X100978845Y-56849500D01*
X100978842Y-56849500D01*
X100821158Y-56849500D01*
X100821155Y-56849500D01*
X100666510Y-56880261D01*
X100666498Y-56880264D01*
X100520827Y-56940602D01*
X100520814Y-56940609D01*
X100389711Y-57028210D01*
X100389707Y-57028213D01*
X100278213Y-57139707D01*
X100278210Y-57139711D01*
X100190609Y-57270814D01*
X100190602Y-57270827D01*
X100130264Y-57416498D01*
X100130261Y-57416510D01*
X100099500Y-57571153D01*
X93424897Y-57571153D01*
X93379185Y-57540609D01*
X93379172Y-57540602D01*
X93233501Y-57480264D01*
X93233489Y-57480261D01*
X93078845Y-57449500D01*
X93078842Y-57449500D01*
X92921158Y-57449500D01*
X92921155Y-57449500D01*
X92766510Y-57480261D01*
X92766498Y-57480264D01*
X92620827Y-57540602D01*
X92620814Y-57540609D01*
X92489711Y-57628210D01*
X92489707Y-57628213D01*
X92378213Y-57739707D01*
X92378210Y-57739711D01*
X92290609Y-57870814D01*
X92290602Y-57870827D01*
X92230264Y-58016498D01*
X92230261Y-58016510D01*
X92199500Y-58171153D01*
X84300499Y-58171153D01*
X84298338Y-58160288D01*
X84269737Y-58016503D01*
X84269735Y-58016498D01*
X84209397Y-57870827D01*
X84209390Y-57870814D01*
X84121789Y-57739711D01*
X84121786Y-57739707D01*
X84010292Y-57628213D01*
X84010288Y-57628210D01*
X83879185Y-57540609D01*
X83879172Y-57540602D01*
X83733501Y-57480264D01*
X83733489Y-57480261D01*
X83578845Y-57449500D01*
X83578842Y-57449500D01*
X83421158Y-57449500D01*
X83421155Y-57449500D01*
X83266510Y-57480261D01*
X83266498Y-57480264D01*
X83120827Y-57540602D01*
X83120814Y-57540609D01*
X82989711Y-57628210D01*
X82989707Y-57628213D01*
X82878213Y-57739707D01*
X82878210Y-57739711D01*
X82790609Y-57870814D01*
X82790602Y-57870827D01*
X82730264Y-58016498D01*
X82730261Y-58016510D01*
X82699500Y-58171153D01*
X50500500Y-58171153D01*
X50500500Y-54353261D01*
X78967394Y-54353261D01*
X78967394Y-54510954D01*
X78998155Y-54665597D01*
X78998158Y-54665609D01*
X79058496Y-54811280D01*
X79058503Y-54811293D01*
X79146104Y-54942396D01*
X79146107Y-54942400D01*
X79257601Y-55053894D01*
X79257605Y-55053897D01*
X79388708Y-55141498D01*
X79388721Y-55141505D01*
X79460299Y-55171153D01*
X79534397Y-55201845D01*
X79598273Y-55214550D01*
X79631428Y-55221146D01*
X79693339Y-55253531D01*
X79727913Y-55314246D01*
X79728854Y-55318571D01*
X79748154Y-55415598D01*
X79748157Y-55415608D01*
X79808495Y-55561279D01*
X79808502Y-55561292D01*
X79896103Y-55692395D01*
X79896106Y-55692399D01*
X80007600Y-55803893D01*
X80007604Y-55803896D01*
X80138707Y-55891497D01*
X80138720Y-55891504D01*
X80284391Y-55951842D01*
X80284396Y-55951844D01*
X80439046Y-55982606D01*
X80439049Y-55982607D01*
X80439051Y-55982607D01*
X80596737Y-55982607D01*
X80596738Y-55982606D01*
X80751390Y-55951844D01*
X80897072Y-55891501D01*
X81028182Y-55803896D01*
X81139682Y-55692396D01*
X81227287Y-55561286D01*
X81287630Y-55415604D01*
X81318393Y-55260949D01*
X81318393Y-55171153D01*
X91349500Y-55171153D01*
X91349500Y-55328846D01*
X91380261Y-55483489D01*
X91380264Y-55483501D01*
X91440602Y-55629172D01*
X91440609Y-55629185D01*
X91528210Y-55760288D01*
X91528213Y-55760292D01*
X91639707Y-55871786D01*
X91639711Y-55871789D01*
X91770814Y-55959390D01*
X91770827Y-55959397D01*
X91916498Y-56019735D01*
X91916503Y-56019737D01*
X92071153Y-56050499D01*
X92071156Y-56050500D01*
X92071158Y-56050500D01*
X92228844Y-56050500D01*
X92228845Y-56050499D01*
X92383497Y-56019737D01*
X92529179Y-55959394D01*
X92660289Y-55871789D01*
X92771789Y-55760289D01*
X92859394Y-55629179D01*
X92919737Y-55483497D01*
X92950500Y-55328842D01*
X92950500Y-55171158D01*
X92950500Y-55171155D01*
X92950499Y-55171153D01*
X92936995Y-55103265D01*
X92919737Y-55016503D01*
X92884680Y-54931867D01*
X92859397Y-54870827D01*
X92859390Y-54870814D01*
X92771789Y-54739711D01*
X92771786Y-54739707D01*
X92660292Y-54628213D01*
X92660288Y-54628210D01*
X92529185Y-54540609D01*
X92529172Y-54540602D01*
X92383501Y-54480264D01*
X92383489Y-54480261D01*
X92228845Y-54449500D01*
X92228842Y-54449500D01*
X92071158Y-54449500D01*
X92071155Y-54449500D01*
X91916510Y-54480261D01*
X91916498Y-54480264D01*
X91770827Y-54540602D01*
X91770814Y-54540609D01*
X91639711Y-54628210D01*
X91639707Y-54628213D01*
X91528213Y-54739707D01*
X91528210Y-54739711D01*
X91440609Y-54870814D01*
X91440602Y-54870827D01*
X91380264Y-55016498D01*
X91380261Y-55016510D01*
X91349500Y-55171153D01*
X81318393Y-55171153D01*
X81318393Y-55103265D01*
X81318393Y-55103262D01*
X81318392Y-55103260D01*
X81287631Y-54948617D01*
X81287630Y-54948610D01*
X81280695Y-54931867D01*
X81227290Y-54802934D01*
X81227283Y-54802921D01*
X81139682Y-54671818D01*
X81139679Y-54671814D01*
X81028185Y-54560320D01*
X81028181Y-54560317D01*
X80897078Y-54472716D01*
X80897065Y-54472709D01*
X80751394Y-54412371D01*
X80751384Y-54412368D01*
X80654357Y-54393068D01*
X80641440Y-54386311D01*
X80627013Y-54384234D01*
X80611103Y-54370442D01*
X80592446Y-54360683D01*
X80584276Y-54347186D01*
X80574219Y-54338468D01*
X80564650Y-54314762D01*
X80559564Y-54306360D01*
X80558010Y-54301065D01*
X80537631Y-54198611D01*
X80504446Y-54118495D01*
X80504445Y-54118491D01*
X80489862Y-54083285D01*
X92861632Y-54083285D01*
X92861632Y-54240978D01*
X92892393Y-54395621D01*
X92892396Y-54395633D01*
X92952734Y-54541304D01*
X92952741Y-54541317D01*
X93040342Y-54672420D01*
X93040345Y-54672424D01*
X93151839Y-54783918D01*
X93151843Y-54783921D01*
X93282946Y-54871522D01*
X93282959Y-54871529D01*
X93428630Y-54931867D01*
X93428635Y-54931869D01*
X93583285Y-54962631D01*
X93583288Y-54962632D01*
X93583290Y-54962632D01*
X93740976Y-54962632D01*
X93740977Y-54962631D01*
X93895629Y-54931869D01*
X94041311Y-54871526D01*
X94172421Y-54783921D01*
X94179233Y-54777107D01*
X94240553Y-54743621D01*
X94310245Y-54748602D01*
X94314348Y-54750216D01*
X94416503Y-54792530D01*
X94571153Y-54823292D01*
X94571156Y-54823293D01*
X94571158Y-54823293D01*
X94728844Y-54823293D01*
X94728845Y-54823292D01*
X94883497Y-54792530D01*
X95029179Y-54732187D01*
X95160289Y-54644582D01*
X95271789Y-54533082D01*
X95359394Y-54401972D01*
X95419737Y-54256290D01*
X95450500Y-54101635D01*
X95450500Y-53943951D01*
X95450500Y-53943948D01*
X95450499Y-53943946D01*
X95423919Y-53810321D01*
X95419737Y-53789296D01*
X95417107Y-53782946D01*
X95359397Y-53643620D01*
X95359390Y-53643607D01*
X95271789Y-53512504D01*
X95271786Y-53512500D01*
X95160292Y-53401006D01*
X95160288Y-53401003D01*
X95029185Y-53313402D01*
X95029172Y-53313395D01*
X94883501Y-53253057D01*
X94883489Y-53253054D01*
X94728845Y-53222293D01*
X94728842Y-53222293D01*
X94571158Y-53222293D01*
X94571155Y-53222293D01*
X94416510Y-53253054D01*
X94416498Y-53253057D01*
X94270827Y-53313395D01*
X94270814Y-53313402D01*
X94139714Y-53401001D01*
X94139707Y-53401006D01*
X94132891Y-53407823D01*
X94071567Y-53441305D01*
X94001875Y-53436318D01*
X93997762Y-53434699D01*
X93895633Y-53392396D01*
X93895621Y-53392393D01*
X93740977Y-53361632D01*
X93740974Y-53361632D01*
X93583290Y-53361632D01*
X93583287Y-53361632D01*
X93428642Y-53392393D01*
X93428630Y-53392396D01*
X93282959Y-53452734D01*
X93282946Y-53452741D01*
X93151843Y-53540342D01*
X93151839Y-53540345D01*
X93040345Y-53651839D01*
X93040342Y-53651843D01*
X92952741Y-53782946D01*
X92952734Y-53782959D01*
X92892396Y-53928630D01*
X92892393Y-53928642D01*
X92861632Y-54083285D01*
X80489862Y-54083285D01*
X80477291Y-54052935D01*
X80477284Y-54052922D01*
X80389683Y-53921819D01*
X80389680Y-53921815D01*
X80278186Y-53810321D01*
X80278182Y-53810318D01*
X80147079Y-53722717D01*
X80147066Y-53722710D01*
X80001395Y-53662372D01*
X80001383Y-53662369D01*
X79846739Y-53631608D01*
X79846736Y-53631608D01*
X79689052Y-53631608D01*
X79689049Y-53631608D01*
X79534404Y-53662369D01*
X79534392Y-53662372D01*
X79388721Y-53722710D01*
X79388708Y-53722717D01*
X79257605Y-53810318D01*
X79257601Y-53810321D01*
X79146107Y-53921815D01*
X79146104Y-53921819D01*
X79058503Y-54052922D01*
X79058496Y-54052935D01*
X78998158Y-54198606D01*
X78998155Y-54198618D01*
X78967394Y-54353261D01*
X50500500Y-54353261D01*
X50500500Y-50800001D01*
X69495000Y-50800001D01*
X69495000Y-52050000D01*
X70530137Y-52050000D01*
X70500000Y-52201509D01*
X70500000Y-52398491D01*
X70530137Y-52550000D01*
X69495000Y-52550000D01*
X69495000Y-53800002D01*
X69500140Y-53871870D01*
X69540634Y-54009781D01*
X69618345Y-54130703D01*
X69726976Y-54224832D01*
X69726977Y-54224833D01*
X69857721Y-54284543D01*
X69857725Y-54284544D01*
X70000001Y-54304999D01*
X70000003Y-54305000D01*
X71750000Y-54305000D01*
X71750000Y-53300000D01*
X72250000Y-53300000D01*
X72250000Y-54305000D01*
X74000000Y-54305000D01*
X74000002Y-54304999D01*
X74071870Y-54299859D01*
X74209781Y-54259365D01*
X74235468Y-54242858D01*
X74330703Y-54181654D01*
X74424832Y-54073023D01*
X74424833Y-54073022D01*
X74484543Y-53942278D01*
X74484544Y-53942274D01*
X74504999Y-53799998D01*
X74505000Y-53799997D01*
X74505000Y-52550000D01*
X73469863Y-52550000D01*
X73500000Y-52398491D01*
X73500000Y-52343015D01*
X95719892Y-52343015D01*
X95719892Y-52500708D01*
X95750653Y-52655351D01*
X95750656Y-52655363D01*
X95810994Y-52801034D01*
X95811001Y-52801047D01*
X95898602Y-52932150D01*
X95898605Y-52932154D01*
X96010099Y-53043648D01*
X96010103Y-53043651D01*
X96141206Y-53131252D01*
X96141219Y-53131259D01*
X96273834Y-53186189D01*
X96286895Y-53191599D01*
X96438338Y-53221723D01*
X96441545Y-53222361D01*
X96441548Y-53222362D01*
X96538921Y-53222362D01*
X96605960Y-53242047D01*
X96626602Y-53258681D01*
X96739707Y-53371786D01*
X96739711Y-53371789D01*
X96870814Y-53459390D01*
X96870827Y-53459397D01*
X96999031Y-53512500D01*
X97016503Y-53519737D01*
X97120091Y-53540342D01*
X97171153Y-53550499D01*
X97171156Y-53550500D01*
X97171158Y-53550500D01*
X97328844Y-53550500D01*
X97328845Y-53550499D01*
X97483497Y-53519737D01*
X97629179Y-53459394D01*
X97760289Y-53371789D01*
X97871789Y-53260289D01*
X97959394Y-53129179D01*
X98019737Y-52983497D01*
X98050500Y-52828842D01*
X98050500Y-52671158D01*
X98050500Y-52671155D01*
X98050499Y-52671153D01*
X98020996Y-52522829D01*
X98019738Y-52516507D01*
X98019735Y-52516498D01*
X97959397Y-52370827D01*
X97959390Y-52370814D01*
X97871789Y-52239711D01*
X97871786Y-52239707D01*
X97760292Y-52128213D01*
X97760288Y-52128210D01*
X97629185Y-52040609D01*
X97629172Y-52040602D01*
X97483501Y-51980264D01*
X97483489Y-51980261D01*
X97328845Y-51949500D01*
X97328842Y-51949500D01*
X97231471Y-51949500D01*
X97164432Y-51929815D01*
X97143790Y-51913181D01*
X97030684Y-51800075D01*
X97030680Y-51800072D01*
X96899577Y-51712471D01*
X96899564Y-51712464D01*
X96753893Y-51652126D01*
X96753881Y-51652123D01*
X96599237Y-51621362D01*
X96599234Y-51621362D01*
X96441550Y-51621362D01*
X96441547Y-51621362D01*
X96286902Y-51652123D01*
X96286890Y-51652126D01*
X96141219Y-51712464D01*
X96141206Y-51712471D01*
X96010103Y-51800072D01*
X96010099Y-51800075D01*
X95898605Y-51911569D01*
X95898602Y-51911573D01*
X95811001Y-52042676D01*
X95810994Y-52042689D01*
X95750656Y-52188360D01*
X95750653Y-52188372D01*
X95719892Y-52343015D01*
X73500000Y-52343015D01*
X73500000Y-52201509D01*
X73469863Y-52050000D01*
X74505000Y-52050000D01*
X74505000Y-50800000D01*
X74504999Y-50799997D01*
X74499859Y-50728127D01*
X74497811Y-50721153D01*
X81499500Y-50721153D01*
X81499500Y-50878846D01*
X81530261Y-51033489D01*
X81530264Y-51033501D01*
X81590602Y-51179172D01*
X81590609Y-51179185D01*
X81678210Y-51310288D01*
X81678213Y-51310292D01*
X81789707Y-51421786D01*
X81789711Y-51421789D01*
X81920814Y-51509390D01*
X81920827Y-51509397D01*
X82066498Y-51569735D01*
X82066503Y-51569737D01*
X82206182Y-51597521D01*
X82221153Y-51600499D01*
X82221156Y-51600500D01*
X82221158Y-51600500D01*
X82378844Y-51600500D01*
X82378845Y-51600499D01*
X82533497Y-51569737D01*
X82679179Y-51509394D01*
X82810289Y-51421789D01*
X82921789Y-51310289D01*
X83009394Y-51179179D01*
X83069737Y-51033497D01*
X83092084Y-50921153D01*
X91799500Y-50921153D01*
X91799500Y-51078846D01*
X91830261Y-51233489D01*
X91830264Y-51233501D01*
X91890602Y-51379172D01*
X91890609Y-51379185D01*
X91978210Y-51510288D01*
X91978213Y-51510292D01*
X92089707Y-51621786D01*
X92089711Y-51621789D01*
X92220814Y-51709390D01*
X92220827Y-51709397D01*
X92366498Y-51769735D01*
X92366503Y-51769737D01*
X92519006Y-51800072D01*
X92521153Y-51800499D01*
X92521156Y-51800500D01*
X92521158Y-51800500D01*
X92678844Y-51800500D01*
X92678845Y-51800499D01*
X92833497Y-51769737D01*
X92946166Y-51723067D01*
X92979172Y-51709397D01*
X92979172Y-51709396D01*
X92979179Y-51709394D01*
X93110289Y-51621789D01*
X93221789Y-51510289D01*
X93309394Y-51379179D01*
X93369737Y-51233497D01*
X93400500Y-51078842D01*
X93400500Y-50921158D01*
X93399274Y-50914994D01*
X93399274Y-50914992D01*
X93395673Y-50896888D01*
X97023765Y-50896888D01*
X97023765Y-51054581D01*
X97054526Y-51209224D01*
X97054529Y-51209236D01*
X97114867Y-51354907D01*
X97114874Y-51354920D01*
X97202475Y-51486023D01*
X97202478Y-51486027D01*
X97313972Y-51597521D01*
X97313976Y-51597524D01*
X97445079Y-51685125D01*
X97445092Y-51685132D01*
X97590763Y-51745470D01*
X97590768Y-51745472D01*
X97712746Y-51769735D01*
X97745418Y-51776234D01*
X97745421Y-51776235D01*
X97745423Y-51776235D01*
X97903109Y-51776235D01*
X97903110Y-51776234D01*
X98057762Y-51745472D01*
X98203444Y-51685129D01*
X98334554Y-51597524D01*
X98446054Y-51486024D01*
X98533659Y-51354914D01*
X98594002Y-51209232D01*
X98624765Y-51054577D01*
X98624765Y-50896893D01*
X98624765Y-50896890D01*
X98624764Y-50896888D01*
X98605492Y-50800001D01*
X98594002Y-50742238D01*
X98585531Y-50721786D01*
X98533662Y-50596562D01*
X98533655Y-50596549D01*
X98446054Y-50465446D01*
X98446051Y-50465442D01*
X98334557Y-50353948D01*
X98334553Y-50353945D01*
X98203450Y-50266344D01*
X98203437Y-50266337D01*
X98057766Y-50205999D01*
X98057754Y-50205996D01*
X97903110Y-50175235D01*
X97903107Y-50175235D01*
X97745423Y-50175235D01*
X97745420Y-50175235D01*
X97590775Y-50205996D01*
X97590763Y-50205999D01*
X97445092Y-50266337D01*
X97445079Y-50266344D01*
X97313976Y-50353945D01*
X97313972Y-50353948D01*
X97202478Y-50465442D01*
X97202475Y-50465446D01*
X97114874Y-50596549D01*
X97114867Y-50596562D01*
X97054529Y-50742233D01*
X97054526Y-50742245D01*
X97023765Y-50896888D01*
X93395673Y-50896888D01*
X93378269Y-50809397D01*
X93369737Y-50766503D01*
X93350955Y-50721158D01*
X93309397Y-50620827D01*
X93309390Y-50620814D01*
X93221789Y-50489711D01*
X93221786Y-50489707D01*
X93110292Y-50378213D01*
X93110288Y-50378210D01*
X92979185Y-50290609D01*
X92979172Y-50290602D01*
X92833501Y-50230264D01*
X92833489Y-50230261D01*
X92678845Y-50199500D01*
X92678842Y-50199500D01*
X92521158Y-50199500D01*
X92521155Y-50199500D01*
X92366510Y-50230261D01*
X92366498Y-50230264D01*
X92220827Y-50290602D01*
X92220814Y-50290609D01*
X92089711Y-50378210D01*
X92089707Y-50378213D01*
X91978213Y-50489707D01*
X91978210Y-50489711D01*
X91890609Y-50620814D01*
X91890602Y-50620827D01*
X91830264Y-50766498D01*
X91830261Y-50766510D01*
X91799500Y-50921153D01*
X83092084Y-50921153D01*
X83093309Y-50914994D01*
X83098107Y-50890875D01*
X83098107Y-50890874D01*
X83100500Y-50878844D01*
X83100500Y-50721155D01*
X83100499Y-50721153D01*
X83087882Y-50657725D01*
X83069737Y-50566503D01*
X83037929Y-50489711D01*
X83009397Y-50420827D01*
X83009390Y-50420814D01*
X82921789Y-50289711D01*
X82921786Y-50289707D01*
X82810292Y-50178213D01*
X82810288Y-50178210D01*
X82720429Y-50118168D01*
X82679185Y-50090609D01*
X82679172Y-50090602D01*
X82533501Y-50030264D01*
X82533489Y-50030261D01*
X82487701Y-50021153D01*
X107799500Y-50021153D01*
X107799500Y-50178846D01*
X107830261Y-50333489D01*
X107830264Y-50333501D01*
X107890602Y-50479172D01*
X107890609Y-50479185D01*
X107978210Y-50610288D01*
X107978213Y-50610292D01*
X108089707Y-50721786D01*
X108089711Y-50721789D01*
X108220814Y-50809390D01*
X108220827Y-50809397D01*
X108366498Y-50869735D01*
X108366503Y-50869737D01*
X108503025Y-50896893D01*
X108521153Y-50900499D01*
X108521156Y-50900500D01*
X108521158Y-50900500D01*
X108678844Y-50900500D01*
X108678845Y-50900499D01*
X108833497Y-50869737D01*
X108979179Y-50809394D01*
X108993237Y-50800001D01*
X115495000Y-50800001D01*
X115495000Y-52050000D01*
X116530137Y-52050000D01*
X116500000Y-52201509D01*
X116500000Y-52398491D01*
X116530137Y-52550000D01*
X115495000Y-52550000D01*
X115495000Y-53800002D01*
X115500140Y-53871870D01*
X115540634Y-54009781D01*
X115618345Y-54130703D01*
X115726976Y-54224832D01*
X115726977Y-54224833D01*
X115857721Y-54284543D01*
X115857725Y-54284544D01*
X116000001Y-54304999D01*
X116000003Y-54305000D01*
X117750000Y-54305000D01*
X117750000Y-53300000D01*
X118250000Y-53300000D01*
X118250000Y-54305000D01*
X120000000Y-54305000D01*
X120000002Y-54304999D01*
X120071870Y-54299859D01*
X120209781Y-54259365D01*
X120330703Y-54181654D01*
X120424832Y-54073023D01*
X120424833Y-54073022D01*
X120484543Y-53942278D01*
X120484544Y-53942274D01*
X120504999Y-53799998D01*
X120505000Y-53799997D01*
X120505000Y-52550000D01*
X119469863Y-52550000D01*
X119500000Y-52398491D01*
X119500000Y-52201509D01*
X119469863Y-52050000D01*
X120505000Y-52050000D01*
X120505000Y-50800000D01*
X120504999Y-50799997D01*
X120499859Y-50728129D01*
X120459365Y-50590218D01*
X120381654Y-50469296D01*
X120273023Y-50375167D01*
X120273022Y-50375166D01*
X120142278Y-50315456D01*
X120142274Y-50315455D01*
X119999998Y-50295000D01*
X118250000Y-50295000D01*
X118250000Y-51300000D01*
X117750000Y-51300000D01*
X117750000Y-50295000D01*
X115999997Y-50295000D01*
X115928129Y-50300140D01*
X115790218Y-50340634D01*
X115669296Y-50418345D01*
X115575167Y-50526976D01*
X115575166Y-50526977D01*
X115515456Y-50657721D01*
X115515455Y-50657725D01*
X115495000Y-50800001D01*
X108993237Y-50800001D01*
X109110289Y-50721789D01*
X109110925Y-50721153D01*
X109124189Y-50707890D01*
X109221786Y-50610292D01*
X109221789Y-50610289D01*
X109309394Y-50479179D01*
X109369737Y-50333497D01*
X109400500Y-50178842D01*
X109400500Y-50109758D01*
X109420185Y-50042719D01*
X109472989Y-49996964D01*
X109542147Y-49987020D01*
X109605703Y-50016045D01*
X109612181Y-50022077D01*
X109620213Y-50030109D01*
X109792179Y-50155048D01*
X109792181Y-50155049D01*
X109792184Y-50155051D01*
X109981588Y-50251557D01*
X110183757Y-50317246D01*
X110393713Y-50350500D01*
X110393714Y-50350500D01*
X110606286Y-50350500D01*
X110606287Y-50350500D01*
X110816243Y-50317246D01*
X111018412Y-50251557D01*
X111207816Y-50155051D01*
X111229789Y-50139086D01*
X111379786Y-50030109D01*
X111379788Y-50030106D01*
X111379792Y-50030104D01*
X111530104Y-49879792D01*
X111530106Y-49879788D01*
X111530109Y-49879786D01*
X111655048Y-49707820D01*
X111655047Y-49707820D01*
X111655051Y-49707816D01*
X111751557Y-49518412D01*
X111817246Y-49316243D01*
X111850500Y-49106287D01*
X111850500Y-48893713D01*
X111817246Y-48683757D01*
X111751557Y-48481588D01*
X111655051Y-48292184D01*
X111655049Y-48292181D01*
X111655048Y-48292179D01*
X111530109Y-48120213D01*
X111445314Y-48035418D01*
X111411829Y-47974095D01*
X111416813Y-47904403D01*
X111458685Y-47848470D01*
X111489663Y-47831555D01*
X111592084Y-47793355D01*
X111592093Y-47793350D01*
X111688534Y-47721153D01*
X115624500Y-47721153D01*
X115624500Y-47878846D01*
X115655261Y-48033489D01*
X115655264Y-48033501D01*
X115715602Y-48179172D01*
X115715609Y-48179185D01*
X115803210Y-48310288D01*
X115803213Y-48310292D01*
X115914707Y-48421786D01*
X115914711Y-48421789D01*
X116045814Y-48509390D01*
X116045827Y-48509397D01*
X116167730Y-48559890D01*
X116191503Y-48569737D01*
X116306724Y-48592656D01*
X116346153Y-48600499D01*
X116346156Y-48600500D01*
X116346158Y-48600500D01*
X116503843Y-48600500D01*
X116520620Y-48597162D01*
X116574580Y-48586429D01*
X116644170Y-48592656D01*
X116699348Y-48635518D01*
X116720388Y-48683855D01*
X116730261Y-48733489D01*
X116730264Y-48733501D01*
X116790600Y-48879167D01*
X116790609Y-48879185D01*
X116878210Y-49010288D01*
X116878213Y-49010292D01*
X116989707Y-49121786D01*
X116989711Y-49121789D01*
X117120814Y-49209390D01*
X117120827Y-49209397D01*
X117266498Y-49269735D01*
X117266503Y-49269737D01*
X117416131Y-49299500D01*
X117421153Y-49300499D01*
X117421156Y-49300500D01*
X117421158Y-49300500D01*
X117578844Y-49300500D01*
X117578845Y-49300499D01*
X117733497Y-49269737D01*
X117879179Y-49209394D01*
X118010289Y-49121789D01*
X118121789Y-49010289D01*
X118199683Y-48893713D01*
X123649500Y-48893713D01*
X123649500Y-49106286D01*
X123682735Y-49316127D01*
X123682754Y-49316243D01*
X123735381Y-49478213D01*
X123748444Y-49518414D01*
X123844951Y-49707820D01*
X123969890Y-49879786D01*
X124120213Y-50030109D01*
X124292179Y-50155048D01*
X124292181Y-50155049D01*
X124292184Y-50155051D01*
X124481588Y-50251557D01*
X124683757Y-50317246D01*
X124893713Y-50350500D01*
X124893714Y-50350500D01*
X125106286Y-50350500D01*
X125106287Y-50350500D01*
X125316243Y-50317246D01*
X125518412Y-50251557D01*
X125707816Y-50155051D01*
X125729789Y-50139086D01*
X125879786Y-50030109D01*
X125879788Y-50030106D01*
X125879792Y-50030104D01*
X126030104Y-49879792D01*
X126030106Y-49879788D01*
X126030109Y-49879786D01*
X126155048Y-49707820D01*
X126155047Y-49707820D01*
X126155051Y-49707816D01*
X126251557Y-49518412D01*
X126317246Y-49316243D01*
X126350500Y-49106287D01*
X126350500Y-48893713D01*
X126317246Y-48683757D01*
X126251557Y-48481588D01*
X126155051Y-48292184D01*
X126155049Y-48292181D01*
X126155048Y-48292179D01*
X126030109Y-48120213D01*
X125879786Y-47969890D01*
X125707820Y-47844951D01*
X125518414Y-47748444D01*
X125518413Y-47748443D01*
X125518412Y-47748443D01*
X125316243Y-47682754D01*
X125316241Y-47682753D01*
X125316240Y-47682753D01*
X125154957Y-47657208D01*
X125106287Y-47649500D01*
X124893713Y-47649500D01*
X124845042Y-47657208D01*
X124683760Y-47682753D01*
X124481585Y-47748444D01*
X124292179Y-47844951D01*
X124120213Y-47969890D01*
X123969890Y-48120213D01*
X123844951Y-48292179D01*
X123748444Y-48481585D01*
X123682753Y-48683760D01*
X123649500Y-48893713D01*
X118199683Y-48893713D01*
X118209394Y-48879179D01*
X118217743Y-48859020D01*
X118225048Y-48841388D01*
X118225048Y-48841386D01*
X118269735Y-48733501D01*
X118269737Y-48733497D01*
X118300500Y-48578842D01*
X118300500Y-48421158D01*
X118300500Y-48421155D01*
X118300499Y-48421153D01*
X118278447Y-48310292D01*
X118269737Y-48266503D01*
X118242398Y-48200500D01*
X118209397Y-48120827D01*
X118209390Y-48120814D01*
X118121789Y-47989711D01*
X118121786Y-47989707D01*
X118010292Y-47878213D01*
X118010288Y-47878210D01*
X117879185Y-47790609D01*
X117879172Y-47790602D01*
X117733501Y-47730264D01*
X117733489Y-47730261D01*
X117578845Y-47699500D01*
X117578842Y-47699500D01*
X117421158Y-47699500D01*
X117421153Y-47699500D01*
X117350419Y-47713570D01*
X117280827Y-47707343D01*
X117225650Y-47664480D01*
X117204611Y-47616147D01*
X117194737Y-47566503D01*
X117194735Y-47566498D01*
X117134397Y-47420827D01*
X117134390Y-47420814D01*
X117046789Y-47289711D01*
X117046786Y-47289707D01*
X116935292Y-47178213D01*
X116935288Y-47178210D01*
X116804185Y-47090609D01*
X116804172Y-47090602D01*
X116658501Y-47030264D01*
X116658489Y-47030261D01*
X116503845Y-46999500D01*
X116503842Y-46999500D01*
X116346158Y-46999500D01*
X116346155Y-46999500D01*
X116191510Y-47030261D01*
X116191498Y-47030264D01*
X116045827Y-47090602D01*
X116045814Y-47090609D01*
X115914711Y-47178210D01*
X115914707Y-47178213D01*
X115803213Y-47289707D01*
X115803210Y-47289711D01*
X115715609Y-47420814D01*
X115715602Y-47420827D01*
X115655264Y-47566498D01*
X115655261Y-47566510D01*
X115624500Y-47721153D01*
X111688534Y-47721153D01*
X111707186Y-47707190D01*
X111756921Y-47640755D01*
X111756921Y-47640754D01*
X111793352Y-47592089D01*
X111793354Y-47592086D01*
X111843596Y-47457379D01*
X111843598Y-47457372D01*
X111849999Y-47397844D01*
X111850000Y-47397827D01*
X111850000Y-46750000D01*
X110990748Y-46750000D01*
X111012518Y-46712292D01*
X111050000Y-46572409D01*
X111050000Y-46427591D01*
X111012518Y-46287708D01*
X110990748Y-46250000D01*
X111850000Y-46250000D01*
X111850000Y-45602172D01*
X111849999Y-45602155D01*
X111843598Y-45542627D01*
X111843596Y-45542620D01*
X111793354Y-45407913D01*
X111793350Y-45407906D01*
X111707190Y-45292812D01*
X111707187Y-45292809D01*
X111592093Y-45206649D01*
X111592086Y-45206645D01*
X111531887Y-45184193D01*
X111489662Y-45168444D01*
X111433728Y-45126573D01*
X111409311Y-45061108D01*
X111424163Y-44992835D01*
X111445308Y-44964587D01*
X111530104Y-44879792D01*
X111531254Y-44878210D01*
X111655048Y-44707820D01*
X111655047Y-44707820D01*
X111655051Y-44707816D01*
X111751557Y-44518412D01*
X111817246Y-44316243D01*
X111850500Y-44106287D01*
X111850500Y-43893753D01*
X123650000Y-43893753D01*
X123650000Y-44106246D01*
X123683242Y-44316127D01*
X123683242Y-44316130D01*
X123748904Y-44518217D01*
X123845375Y-44707550D01*
X123884728Y-44761716D01*
X124476212Y-44170233D01*
X124487482Y-44212292D01*
X124559890Y-44337708D01*
X124662292Y-44440110D01*
X124787708Y-44512518D01*
X124829765Y-44523787D01*
X124238282Y-45115269D01*
X124238282Y-45115270D01*
X124292449Y-45154624D01*
X124481782Y-45251095D01*
X124683870Y-45316757D01*
X124893754Y-45350000D01*
X125106246Y-45350000D01*
X125316127Y-45316757D01*
X125316130Y-45316757D01*
X125518217Y-45251095D01*
X125707554Y-45154622D01*
X125761716Y-45115270D01*
X125761717Y-45115270D01*
X125170233Y-44523787D01*
X125212292Y-44512518D01*
X125337708Y-44440110D01*
X125440110Y-44337708D01*
X125512518Y-44212292D01*
X125523787Y-44170233D01*
X126115270Y-44761717D01*
X126115270Y-44761716D01*
X126154622Y-44707554D01*
X126251095Y-44518217D01*
X126316757Y-44316130D01*
X126316757Y-44316127D01*
X126350000Y-44106246D01*
X126350000Y-43893753D01*
X126316757Y-43683872D01*
X126316757Y-43683869D01*
X126251095Y-43481782D01*
X126154624Y-43292449D01*
X126115270Y-43238282D01*
X126115269Y-43238282D01*
X125523787Y-43829765D01*
X125512518Y-43787708D01*
X125440110Y-43662292D01*
X125337708Y-43559890D01*
X125212292Y-43487482D01*
X125170233Y-43476212D01*
X125761716Y-42884728D01*
X125707550Y-42845375D01*
X125518217Y-42748904D01*
X125316129Y-42683242D01*
X125106246Y-42650000D01*
X124893754Y-42650000D01*
X124683872Y-42683242D01*
X124683869Y-42683242D01*
X124481782Y-42748904D01*
X124292439Y-42845380D01*
X124238282Y-42884727D01*
X124238282Y-42884728D01*
X124829766Y-43476212D01*
X124787708Y-43487482D01*
X124662292Y-43559890D01*
X124559890Y-43662292D01*
X124487482Y-43787708D01*
X124476212Y-43829766D01*
X123884728Y-43238282D01*
X123884727Y-43238282D01*
X123845380Y-43292439D01*
X123748904Y-43481782D01*
X123683242Y-43683869D01*
X123683242Y-43683872D01*
X123650000Y-43893753D01*
X111850500Y-43893753D01*
X111850500Y-43893713D01*
X111821907Y-43713190D01*
X111821865Y-43712913D01*
X111826463Y-43678390D01*
X111830895Y-43644098D01*
X111831056Y-43643906D01*
X111831090Y-43643655D01*
X111853555Y-43617178D01*
X111875891Y-43590646D01*
X111876165Y-43590533D01*
X111876295Y-43590380D01*
X111877223Y-43590096D01*
X111920221Y-43572377D01*
X111933497Y-43569737D01*
X112079179Y-43509394D01*
X112210289Y-43421789D01*
X112321789Y-43310289D01*
X112409394Y-43179179D01*
X112469737Y-43033497D01*
X112499329Y-42884728D01*
X112500500Y-42878843D01*
X112500500Y-42721155D01*
X112500499Y-42721153D01*
X112489627Y-42666498D01*
X112469737Y-42566503D01*
X112431017Y-42473023D01*
X112409397Y-42420827D01*
X112409390Y-42420814D01*
X112321789Y-42289711D01*
X112321786Y-42289707D01*
X112210292Y-42178213D01*
X112210288Y-42178210D01*
X112079185Y-42090609D01*
X112079172Y-42090602D01*
X111933501Y-42030264D01*
X111933489Y-42030261D01*
X111778845Y-41999500D01*
X111778842Y-41999500D01*
X111621158Y-41999500D01*
X111621155Y-41999500D01*
X111466510Y-42030261D01*
X111466498Y-42030264D01*
X111320827Y-42090602D01*
X111320814Y-42090609D01*
X111189711Y-42178210D01*
X111189707Y-42178213D01*
X111078213Y-42289707D01*
X111078210Y-42289711D01*
X110990609Y-42420814D01*
X110990602Y-42420827D01*
X110930263Y-42566500D01*
X110930260Y-42566510D01*
X110927620Y-42579783D01*
X110895232Y-42641692D01*
X110834515Y-42676264D01*
X110786607Y-42678059D01*
X110606287Y-42649500D01*
X110393713Y-42649500D01*
X110345042Y-42657208D01*
X110183760Y-42682753D01*
X109981585Y-42748444D01*
X109792179Y-42844951D01*
X109620213Y-42969890D01*
X109469890Y-43120213D01*
X109344951Y-43292179D01*
X109248444Y-43481585D01*
X109182753Y-43683760D01*
X109149500Y-43893713D01*
X109149500Y-44106286D01*
X109182735Y-44316127D01*
X109182754Y-44316243D01*
X109235697Y-44479185D01*
X109248444Y-44518414D01*
X109344951Y-44707820D01*
X109469890Y-44879786D01*
X109554685Y-44964581D01*
X109588170Y-45025904D01*
X109583186Y-45095596D01*
X109541314Y-45151529D01*
X109510337Y-45168444D01*
X109407913Y-45206645D01*
X109407906Y-45206649D01*
X109292812Y-45292809D01*
X109292809Y-45292812D01*
X109206649Y-45407906D01*
X109206645Y-45407913D01*
X109156403Y-45542620D01*
X109156401Y-45542627D01*
X109150000Y-45602155D01*
X109150000Y-46250000D01*
X110009252Y-46250000D01*
X109987482Y-46287708D01*
X109950000Y-46427591D01*
X109950000Y-46572409D01*
X109987482Y-46712292D01*
X110009252Y-46750000D01*
X109150000Y-46750000D01*
X109150000Y-47397844D01*
X109156401Y-47457372D01*
X109156403Y-47457379D01*
X109206645Y-47592086D01*
X109206649Y-47592093D01*
X109292809Y-47707187D01*
X109292812Y-47707190D01*
X109407906Y-47793350D01*
X109407915Y-47793355D01*
X109510336Y-47831555D01*
X109566270Y-47873425D01*
X109590688Y-47938890D01*
X109575837Y-48007163D01*
X109554686Y-48035418D01*
X109469889Y-48120215D01*
X109344951Y-48292179D01*
X109248444Y-48481585D01*
X109182753Y-48683760D01*
X109149500Y-48893713D01*
X109149500Y-49106286D01*
X109175672Y-49271532D01*
X109166717Y-49340826D01*
X109121721Y-49394278D01*
X109054969Y-49414917D01*
X108987656Y-49396192D01*
X108984311Y-49394034D01*
X108979186Y-49390610D01*
X108979172Y-49390602D01*
X108833501Y-49330264D01*
X108833489Y-49330261D01*
X108678845Y-49299500D01*
X108678842Y-49299500D01*
X108521158Y-49299500D01*
X108521155Y-49299500D01*
X108366510Y-49330261D01*
X108366498Y-49330264D01*
X108220827Y-49390602D01*
X108220814Y-49390609D01*
X108089711Y-49478210D01*
X108089707Y-49478213D01*
X107978213Y-49589707D01*
X107978210Y-49589711D01*
X107890609Y-49720814D01*
X107890602Y-49720827D01*
X107830264Y-49866498D01*
X107830261Y-49866510D01*
X107799500Y-50021153D01*
X82487701Y-50021153D01*
X82378845Y-49999500D01*
X82378842Y-49999500D01*
X82221158Y-49999500D01*
X82221155Y-49999500D01*
X82066510Y-50030261D01*
X82066498Y-50030264D01*
X81920827Y-50090602D01*
X81920814Y-50090609D01*
X81789711Y-50178210D01*
X81789707Y-50178213D01*
X81678213Y-50289707D01*
X81678210Y-50289711D01*
X81590609Y-50420814D01*
X81590602Y-50420827D01*
X81530264Y-50566498D01*
X81530261Y-50566510D01*
X81499500Y-50721153D01*
X74497811Y-50721153D01*
X74459365Y-50590218D01*
X74381654Y-50469296D01*
X74273023Y-50375167D01*
X74273022Y-50375166D01*
X74142278Y-50315456D01*
X74142274Y-50315455D01*
X73999998Y-50295000D01*
X72250000Y-50295000D01*
X72250000Y-51300000D01*
X71750000Y-51300000D01*
X71750000Y-50295000D01*
X69999997Y-50295000D01*
X69928129Y-50300140D01*
X69790218Y-50340634D01*
X69669296Y-50418345D01*
X69575167Y-50526976D01*
X69575166Y-50526977D01*
X69515456Y-50657721D01*
X69515455Y-50657725D01*
X69495000Y-50800001D01*
X50500500Y-50800001D01*
X50500500Y-48893753D01*
X63650000Y-48893753D01*
X63650000Y-49106246D01*
X63683242Y-49316127D01*
X63683242Y-49316130D01*
X63748904Y-49518217D01*
X63845375Y-49707550D01*
X63884728Y-49761716D01*
X64476212Y-49170233D01*
X64487482Y-49212292D01*
X64559890Y-49337708D01*
X64662292Y-49440110D01*
X64787708Y-49512518D01*
X64829765Y-49523787D01*
X64238282Y-50115269D01*
X64238282Y-50115270D01*
X64292449Y-50154624D01*
X64481782Y-50251095D01*
X64683870Y-50316757D01*
X64893754Y-50350000D01*
X65106246Y-50350000D01*
X65316127Y-50316757D01*
X65316130Y-50316757D01*
X65518217Y-50251095D01*
X65707554Y-50154622D01*
X65761716Y-50115270D01*
X65761717Y-50115270D01*
X65170233Y-49523787D01*
X65212292Y-49512518D01*
X65337708Y-49440110D01*
X65440110Y-49337708D01*
X65512518Y-49212292D01*
X65523787Y-49170233D01*
X66115270Y-49761717D01*
X66115270Y-49761716D01*
X66154622Y-49707554D01*
X66251095Y-49518217D01*
X66316757Y-49316130D01*
X66316757Y-49316127D01*
X66350000Y-49106246D01*
X66350000Y-48893753D01*
X66316757Y-48683872D01*
X66316757Y-48683869D01*
X66251095Y-48481782D01*
X66154624Y-48292449D01*
X66115270Y-48238282D01*
X66115269Y-48238282D01*
X65523787Y-48829765D01*
X65512518Y-48787708D01*
X65440110Y-48662292D01*
X65337708Y-48559890D01*
X65212292Y-48487482D01*
X65170233Y-48476212D01*
X65761716Y-47884728D01*
X65707550Y-47845375D01*
X65518217Y-47748904D01*
X65316129Y-47683242D01*
X65106246Y-47650000D01*
X64893754Y-47650000D01*
X64683872Y-47683242D01*
X64683869Y-47683242D01*
X64481782Y-47748904D01*
X64292439Y-47845380D01*
X64238282Y-47884727D01*
X64238282Y-47884728D01*
X64829766Y-48476212D01*
X64787708Y-48487482D01*
X64662292Y-48559890D01*
X64559890Y-48662292D01*
X64487482Y-48787708D01*
X64476212Y-48829766D01*
X63884728Y-48238282D01*
X63884727Y-48238282D01*
X63845380Y-48292439D01*
X63748904Y-48481782D01*
X63683242Y-48683869D01*
X63683242Y-48683872D01*
X63650000Y-48893753D01*
X50500500Y-48893753D01*
X50500500Y-43893713D01*
X63649500Y-43893713D01*
X63649500Y-44106286D01*
X63682735Y-44316127D01*
X63682754Y-44316243D01*
X63735697Y-44479185D01*
X63748444Y-44518414D01*
X63844951Y-44707820D01*
X63969890Y-44879786D01*
X64120213Y-45030109D01*
X64292179Y-45155048D01*
X64292181Y-45155049D01*
X64292184Y-45155051D01*
X64481588Y-45251557D01*
X64683757Y-45317246D01*
X64893713Y-45350500D01*
X64893714Y-45350500D01*
X65106286Y-45350500D01*
X65106287Y-45350500D01*
X65316243Y-45317246D01*
X65518412Y-45251557D01*
X65707816Y-45155051D01*
X65769426Y-45110289D01*
X65879786Y-45030109D01*
X65879788Y-45030106D01*
X65879792Y-45030104D01*
X66030104Y-44879792D01*
X66030106Y-44879788D01*
X66030109Y-44879786D01*
X66155048Y-44707820D01*
X66155047Y-44707820D01*
X66155051Y-44707816D01*
X66251557Y-44518412D01*
X66317246Y-44316243D01*
X66350500Y-44106287D01*
X66350500Y-43893713D01*
X78149500Y-43893713D01*
X78149500Y-44106286D01*
X78182735Y-44316127D01*
X78182754Y-44316243D01*
X78235697Y-44479185D01*
X78248444Y-44518414D01*
X78344951Y-44707820D01*
X78469890Y-44879786D01*
X78554685Y-44964581D01*
X78588170Y-45025904D01*
X78583186Y-45095596D01*
X78541314Y-45151529D01*
X78510337Y-45168444D01*
X78407913Y-45206645D01*
X78407906Y-45206649D01*
X78292812Y-45292809D01*
X78292809Y-45292812D01*
X78206649Y-45407906D01*
X78206645Y-45407913D01*
X78156403Y-45542620D01*
X78156401Y-45542627D01*
X78150000Y-45602155D01*
X78150000Y-46250000D01*
X79009252Y-46250000D01*
X78987482Y-46287708D01*
X78950000Y-46427591D01*
X78950000Y-46572409D01*
X78987482Y-46712292D01*
X79009252Y-46750000D01*
X78150000Y-46750000D01*
X78150000Y-47397844D01*
X78156401Y-47457372D01*
X78156403Y-47457379D01*
X78206645Y-47592086D01*
X78206649Y-47592093D01*
X78292809Y-47707187D01*
X78292812Y-47707190D01*
X78407906Y-47793350D01*
X78407915Y-47793355D01*
X78510336Y-47831555D01*
X78566270Y-47873425D01*
X78590688Y-47938890D01*
X78575837Y-48007163D01*
X78554686Y-48035418D01*
X78469889Y-48120215D01*
X78344951Y-48292179D01*
X78248444Y-48481585D01*
X78182753Y-48683760D01*
X78149500Y-48893713D01*
X78149500Y-49106286D01*
X78182735Y-49316127D01*
X78182754Y-49316243D01*
X78235381Y-49478213D01*
X78248444Y-49518414D01*
X78344951Y-49707820D01*
X78469890Y-49879786D01*
X78620213Y-50030109D01*
X78792179Y-50155048D01*
X78792181Y-50155049D01*
X78792184Y-50155051D01*
X78981588Y-50251557D01*
X79183757Y-50317246D01*
X79393713Y-50350500D01*
X79393714Y-50350500D01*
X79606286Y-50350500D01*
X79606287Y-50350500D01*
X79816243Y-50317246D01*
X80018412Y-50251557D01*
X80207816Y-50155051D01*
X80229789Y-50139086D01*
X80379786Y-50030109D01*
X80379788Y-50030106D01*
X80379792Y-50030104D01*
X80530104Y-49879792D01*
X80530106Y-49879788D01*
X80530109Y-49879786D01*
X80655048Y-49707820D01*
X80655047Y-49707820D01*
X80655051Y-49707816D01*
X80751557Y-49518412D01*
X80817246Y-49316243D01*
X80850500Y-49106287D01*
X80850500Y-48893713D01*
X80817246Y-48683757D01*
X80751557Y-48481588D01*
X80689117Y-48359043D01*
X80676222Y-48290376D01*
X80702498Y-48225635D01*
X80759605Y-48185378D01*
X80823794Y-48181133D01*
X80844817Y-48185314D01*
X80921155Y-48200500D01*
X80921158Y-48200500D01*
X81078844Y-48200500D01*
X81078845Y-48200499D01*
X81233497Y-48169737D01*
X81351592Y-48120821D01*
X81379172Y-48109397D01*
X81379172Y-48109396D01*
X81379179Y-48109394D01*
X81510289Y-48021789D01*
X81621789Y-47910289D01*
X81709394Y-47779179D01*
X81754139Y-47671153D01*
X92199500Y-47671153D01*
X92199500Y-47828846D01*
X92230261Y-47983489D01*
X92230264Y-47983501D01*
X92290602Y-48129172D01*
X92290609Y-48129185D01*
X92378210Y-48260288D01*
X92378213Y-48260292D01*
X92489707Y-48371786D01*
X92489711Y-48371789D01*
X92620814Y-48459390D01*
X92620827Y-48459397D01*
X92766498Y-48519735D01*
X92766503Y-48519737D01*
X92921153Y-48550499D01*
X92921156Y-48550500D01*
X92921158Y-48550500D01*
X93078844Y-48550500D01*
X93078845Y-48550499D01*
X93233497Y-48519737D01*
X93379179Y-48459394D01*
X93510289Y-48371789D01*
X93621789Y-48260289D01*
X93709394Y-48129179D01*
X93712854Y-48120827D01*
X93767163Y-47989711D01*
X93769737Y-47983497D01*
X93800500Y-47828842D01*
X93800500Y-47671158D01*
X93800500Y-47671155D01*
X93800499Y-47671153D01*
X96199500Y-47671153D01*
X96199500Y-47828846D01*
X96230261Y-47983489D01*
X96230264Y-47983501D01*
X96290602Y-48129172D01*
X96290609Y-48129185D01*
X96378210Y-48260288D01*
X96378213Y-48260292D01*
X96489707Y-48371786D01*
X96489711Y-48371789D01*
X96620814Y-48459390D01*
X96620827Y-48459397D01*
X96766498Y-48519735D01*
X96766503Y-48519737D01*
X96921153Y-48550499D01*
X96921156Y-48550500D01*
X96921158Y-48550500D01*
X97078844Y-48550500D01*
X97078845Y-48550499D01*
X97233497Y-48519737D01*
X97379179Y-48459394D01*
X97510289Y-48371789D01*
X97621789Y-48260289D01*
X97709394Y-48129179D01*
X97712854Y-48120827D01*
X97767163Y-47989711D01*
X97769737Y-47983497D01*
X97800500Y-47828842D01*
X97800500Y-47671158D01*
X97800500Y-47671155D01*
X97800499Y-47671153D01*
X97794452Y-47640754D01*
X97769737Y-47516503D01*
X97754138Y-47478844D01*
X97709397Y-47370827D01*
X97709390Y-47370814D01*
X97621789Y-47239711D01*
X97621786Y-47239707D01*
X97510292Y-47128213D01*
X97510288Y-47128210D01*
X97379185Y-47040609D01*
X97379172Y-47040602D01*
X97233501Y-46980264D01*
X97233489Y-46980261D01*
X97078845Y-46949500D01*
X97078842Y-46949500D01*
X96921158Y-46949500D01*
X96921155Y-46949500D01*
X96766510Y-46980261D01*
X96766498Y-46980264D01*
X96620827Y-47040602D01*
X96620814Y-47040609D01*
X96489711Y-47128210D01*
X96489707Y-47128213D01*
X96378213Y-47239707D01*
X96378210Y-47239711D01*
X96290609Y-47370814D01*
X96290602Y-47370827D01*
X96230264Y-47516498D01*
X96230261Y-47516510D01*
X96199500Y-47671153D01*
X93800499Y-47671153D01*
X93794452Y-47640754D01*
X93769737Y-47516503D01*
X93754138Y-47478844D01*
X93709397Y-47370827D01*
X93709390Y-47370814D01*
X93621789Y-47239711D01*
X93621786Y-47239707D01*
X93510292Y-47128213D01*
X93510288Y-47128210D01*
X93379185Y-47040609D01*
X93379172Y-47040602D01*
X93233501Y-46980264D01*
X93233489Y-46980261D01*
X93078845Y-46949500D01*
X93078842Y-46949500D01*
X92921158Y-46949500D01*
X92921155Y-46949500D01*
X92766510Y-46980261D01*
X92766498Y-46980264D01*
X92620827Y-47040602D01*
X92620814Y-47040609D01*
X92489711Y-47128210D01*
X92489707Y-47128213D01*
X92378213Y-47239707D01*
X92378210Y-47239711D01*
X92290609Y-47370814D01*
X92290602Y-47370827D01*
X92230264Y-47516498D01*
X92230261Y-47516510D01*
X92199500Y-47671153D01*
X81754139Y-47671153D01*
X81769737Y-47633497D01*
X81800500Y-47478842D01*
X81800500Y-47321158D01*
X81800500Y-47321155D01*
X81800499Y-47321153D01*
X81772066Y-47178211D01*
X81769737Y-47166503D01*
X81738298Y-47090602D01*
X81709397Y-47020827D01*
X81709390Y-47020814D01*
X81621789Y-46889711D01*
X81621786Y-46889707D01*
X81510292Y-46778213D01*
X81510288Y-46778210D01*
X81379185Y-46690609D01*
X81379172Y-46690602D01*
X81233501Y-46630264D01*
X81233489Y-46630261D01*
X81078845Y-46599500D01*
X81078842Y-46599500D01*
X80921158Y-46599500D01*
X80921155Y-46599500D01*
X80766510Y-46630261D01*
X80766498Y-46630264D01*
X80620827Y-46690602D01*
X80620820Y-46690606D01*
X80595446Y-46707561D01*
X80563206Y-46729102D01*
X80496532Y-46749980D01*
X80494317Y-46750000D01*
X79990748Y-46750000D01*
X80012518Y-46712292D01*
X80050000Y-46572409D01*
X80050000Y-46427591D01*
X80012518Y-46287708D01*
X79990748Y-46250000D01*
X80850000Y-46250000D01*
X80850000Y-45602172D01*
X80849999Y-45602155D01*
X80843598Y-45542627D01*
X80843596Y-45542620D01*
X80798292Y-45421153D01*
X89949500Y-45421153D01*
X89949500Y-45578846D01*
X89980261Y-45733489D01*
X89980264Y-45733501D01*
X90040602Y-45879172D01*
X90040609Y-45879185D01*
X90128210Y-46010288D01*
X90128213Y-46010292D01*
X90239707Y-46121786D01*
X90239711Y-46121789D01*
X90370814Y-46209390D01*
X90370827Y-46209397D01*
X90468853Y-46250000D01*
X90516503Y-46269737D01*
X90671153Y-46300499D01*
X90671156Y-46300500D01*
X90671158Y-46300500D01*
X90828844Y-46300500D01*
X90828845Y-46300499D01*
X90983497Y-46269737D01*
X91129179Y-46209394D01*
X91260289Y-46121789D01*
X91360925Y-46021153D01*
X98699500Y-46021153D01*
X98699500Y-46178846D01*
X98730261Y-46333489D01*
X98730264Y-46333501D01*
X98790602Y-46479172D01*
X98790609Y-46479185D01*
X98878210Y-46610288D01*
X98878213Y-46610292D01*
X98989707Y-46721786D01*
X98989711Y-46721789D01*
X99120814Y-46809390D01*
X99120827Y-46809397D01*
X99266498Y-46869735D01*
X99266503Y-46869737D01*
X99421153Y-46900499D01*
X99421156Y-46900500D01*
X99421158Y-46900500D01*
X99578844Y-46900500D01*
X99578845Y-46900499D01*
X99733497Y-46869737D01*
X99879179Y-46809394D01*
X100010289Y-46721789D01*
X100121789Y-46610289D01*
X100209394Y-46479179D01*
X100269737Y-46333497D01*
X100300500Y-46178842D01*
X100300500Y-46021158D01*
X100300500Y-46021155D01*
X100300499Y-46021153D01*
X100285585Y-45946175D01*
X100269737Y-45866503D01*
X100269735Y-45866498D01*
X100209397Y-45720827D01*
X100209390Y-45720814D01*
X100121789Y-45589711D01*
X100121786Y-45589707D01*
X100010292Y-45478213D01*
X100010288Y-45478210D01*
X99879185Y-45390609D01*
X99879172Y-45390602D01*
X99733501Y-45330264D01*
X99733489Y-45330261D01*
X99578845Y-45299500D01*
X99578842Y-45299500D01*
X99421158Y-45299500D01*
X99421155Y-45299500D01*
X99266510Y-45330261D01*
X99266498Y-45330264D01*
X99120827Y-45390602D01*
X99120814Y-45390609D01*
X98989711Y-45478210D01*
X98989707Y-45478213D01*
X98878213Y-45589707D01*
X98878210Y-45589711D01*
X98790609Y-45720814D01*
X98790602Y-45720827D01*
X98730264Y-45866498D01*
X98730261Y-45866510D01*
X98699500Y-46021153D01*
X91360925Y-46021153D01*
X91371789Y-46010289D01*
X91459394Y-45879179D01*
X91519737Y-45733497D01*
X91550500Y-45578842D01*
X91550500Y-45421158D01*
X91550500Y-45421155D01*
X91550499Y-45421153D01*
X91528269Y-45309397D01*
X91519737Y-45266503D01*
X91494943Y-45206645D01*
X91459397Y-45120827D01*
X91459390Y-45120814D01*
X91371789Y-44989711D01*
X91371786Y-44989707D01*
X91260292Y-44878213D01*
X91260288Y-44878210D01*
X91129185Y-44790609D01*
X91129172Y-44790602D01*
X90983501Y-44730264D01*
X90983489Y-44730261D01*
X90828845Y-44699500D01*
X90828842Y-44699500D01*
X90671158Y-44699500D01*
X90671155Y-44699500D01*
X90516510Y-44730261D01*
X90516498Y-44730264D01*
X90370827Y-44790602D01*
X90370814Y-44790609D01*
X90239711Y-44878210D01*
X90239707Y-44878213D01*
X90128213Y-44989707D01*
X90128210Y-44989711D01*
X90040609Y-45120814D01*
X90040602Y-45120827D01*
X89980264Y-45266498D01*
X89980261Y-45266510D01*
X89949500Y-45421153D01*
X80798292Y-45421153D01*
X80793354Y-45407913D01*
X80793350Y-45407906D01*
X80707190Y-45292812D01*
X80707187Y-45292809D01*
X80592093Y-45206649D01*
X80592086Y-45206645D01*
X80489662Y-45168444D01*
X80433728Y-45126573D01*
X80409311Y-45061109D01*
X80424162Y-44992836D01*
X80445308Y-44964587D01*
X80530104Y-44879792D01*
X80531254Y-44878210D01*
X80655048Y-44707820D01*
X80655047Y-44707820D01*
X80655051Y-44707816D01*
X80751557Y-44518412D01*
X80817246Y-44316243D01*
X80850500Y-44106287D01*
X80850500Y-43893713D01*
X80817246Y-43683757D01*
X80751557Y-43481588D01*
X80669811Y-43321153D01*
X81499500Y-43321153D01*
X81499500Y-43478846D01*
X81530261Y-43633489D01*
X81530264Y-43633501D01*
X81590602Y-43779172D01*
X81590609Y-43779185D01*
X81678210Y-43910288D01*
X81678213Y-43910292D01*
X81680240Y-43912319D01*
X81680962Y-43913642D01*
X81682076Y-43914999D01*
X81681818Y-43915210D01*
X81713725Y-43973642D01*
X81708741Y-44043334D01*
X81682001Y-44084939D01*
X81682076Y-44085001D01*
X81681552Y-44085639D01*
X81680240Y-44087681D01*
X81678213Y-44089707D01*
X81678210Y-44089711D01*
X81590609Y-44220814D01*
X81590602Y-44220827D01*
X81530264Y-44366498D01*
X81530261Y-44366510D01*
X81499500Y-44521153D01*
X81499500Y-44678846D01*
X81530261Y-44833489D01*
X81530264Y-44833501D01*
X81590602Y-44979172D01*
X81590609Y-44979185D01*
X81678210Y-45110288D01*
X81678213Y-45110292D01*
X81789707Y-45221786D01*
X81789711Y-45221789D01*
X81920814Y-45309390D01*
X81920827Y-45309397D01*
X82018853Y-45350000D01*
X82066503Y-45369737D01*
X82221153Y-45400499D01*
X82221156Y-45400500D01*
X82221158Y-45400500D01*
X82378844Y-45400500D01*
X82378845Y-45400499D01*
X82533497Y-45369737D01*
X82646166Y-45323067D01*
X82679172Y-45309397D01*
X82679172Y-45309396D01*
X82679179Y-45309394D01*
X82810289Y-45221789D01*
X82921789Y-45110289D01*
X83009394Y-44979179D01*
X83069737Y-44833497D01*
X83100500Y-44678842D01*
X83100500Y-44521158D01*
X83100500Y-44521155D01*
X83100499Y-44521153D01*
X83069738Y-44366510D01*
X83069737Y-44366503D01*
X83048871Y-44316127D01*
X83009397Y-44220827D01*
X83009390Y-44220814D01*
X82921789Y-44089711D01*
X82919766Y-44087688D01*
X82919043Y-44086365D01*
X82917924Y-44085001D01*
X82918182Y-44084788D01*
X82886276Y-44026368D01*
X82891255Y-43956676D01*
X82917999Y-43915060D01*
X82917924Y-43914999D01*
X82918454Y-43914351D01*
X82919766Y-43912312D01*
X82921789Y-43910289D01*
X83009394Y-43779179D01*
X83069737Y-43633497D01*
X83100500Y-43478842D01*
X83100500Y-43321158D01*
X83100500Y-43321155D01*
X83100499Y-43321153D01*
X83084015Y-43238282D01*
X83069737Y-43166503D01*
X83050561Y-43120208D01*
X83009397Y-43020827D01*
X83009390Y-43020814D01*
X82921790Y-42889712D01*
X82921784Y-42889705D01*
X82853232Y-42821153D01*
X106899500Y-42821153D01*
X106899500Y-42978846D01*
X106930261Y-43133489D01*
X106930264Y-43133501D01*
X106990602Y-43279172D01*
X106990609Y-43279185D01*
X107078210Y-43410288D01*
X107078213Y-43410292D01*
X107080240Y-43412319D01*
X107080962Y-43413642D01*
X107082076Y-43414999D01*
X107081818Y-43415210D01*
X107113725Y-43473642D01*
X107108741Y-43543334D01*
X107082001Y-43584939D01*
X107082076Y-43585001D01*
X107081552Y-43585639D01*
X107080240Y-43587681D01*
X107078213Y-43589707D01*
X107078210Y-43589711D01*
X106990609Y-43720814D01*
X106990602Y-43720827D01*
X106930264Y-43866498D01*
X106930261Y-43866510D01*
X106899500Y-44021153D01*
X106899500Y-44178846D01*
X106930261Y-44333489D01*
X106930264Y-44333501D01*
X106990602Y-44479172D01*
X106990609Y-44479185D01*
X107078210Y-44610288D01*
X107078213Y-44610292D01*
X107189707Y-44721786D01*
X107189711Y-44721789D01*
X107320814Y-44809390D01*
X107320827Y-44809397D01*
X107466498Y-44869735D01*
X107466503Y-44869737D01*
X107621153Y-44900499D01*
X107621156Y-44900500D01*
X107621158Y-44900500D01*
X107778844Y-44900500D01*
X107778845Y-44900499D01*
X107933497Y-44869737D01*
X108079179Y-44809394D01*
X108210289Y-44721789D01*
X108321789Y-44610289D01*
X108409394Y-44479179D01*
X108469737Y-44333497D01*
X108500500Y-44178842D01*
X108500500Y-44021158D01*
X108500500Y-44021155D01*
X108500499Y-44021153D01*
X108478993Y-43913032D01*
X108469738Y-43866508D01*
X108469737Y-43866507D01*
X108469737Y-43866503D01*
X108469735Y-43866498D01*
X108409397Y-43720827D01*
X108409390Y-43720814D01*
X108321789Y-43589711D01*
X108319766Y-43587688D01*
X108319043Y-43586365D01*
X108317924Y-43585001D01*
X108318182Y-43584788D01*
X108286276Y-43526368D01*
X108291255Y-43456676D01*
X108317999Y-43415060D01*
X108317924Y-43414999D01*
X108318454Y-43414351D01*
X108319766Y-43412312D01*
X108321789Y-43410289D01*
X108409394Y-43279179D01*
X108469737Y-43133497D01*
X108500500Y-42978842D01*
X108500500Y-42821158D01*
X108500500Y-42821155D01*
X108500499Y-42821153D01*
X108486036Y-42748443D01*
X108469737Y-42666503D01*
X108459460Y-42641692D01*
X108409397Y-42520827D01*
X108409390Y-42520814D01*
X108321789Y-42389711D01*
X108321786Y-42389707D01*
X108210292Y-42278213D01*
X108210288Y-42278210D01*
X108079185Y-42190609D01*
X108079172Y-42190602D01*
X107933501Y-42130264D01*
X107933489Y-42130261D01*
X107778845Y-42099500D01*
X107778842Y-42099500D01*
X107621158Y-42099500D01*
X107621155Y-42099500D01*
X107466510Y-42130261D01*
X107466498Y-42130264D01*
X107320827Y-42190602D01*
X107320814Y-42190609D01*
X107189711Y-42278210D01*
X107189707Y-42278213D01*
X107078213Y-42389707D01*
X107078210Y-42389711D01*
X106990609Y-42520814D01*
X106990602Y-42520827D01*
X106930264Y-42666498D01*
X106930261Y-42666510D01*
X106899500Y-42821153D01*
X82853232Y-42821153D01*
X82810292Y-42778213D01*
X82810288Y-42778210D01*
X82679185Y-42690609D01*
X82679172Y-42690602D01*
X82533501Y-42630264D01*
X82533489Y-42630261D01*
X82378845Y-42599500D01*
X82378842Y-42599500D01*
X82221158Y-42599500D01*
X82221155Y-42599500D01*
X82066510Y-42630261D01*
X82066498Y-42630264D01*
X81920827Y-42690602D01*
X81920814Y-42690609D01*
X81789711Y-42778210D01*
X81789707Y-42778213D01*
X81678213Y-42889707D01*
X81678210Y-42889711D01*
X81590609Y-43020814D01*
X81590602Y-43020827D01*
X81530264Y-43166498D01*
X81530261Y-43166510D01*
X81499500Y-43321153D01*
X80669811Y-43321153D01*
X80655051Y-43292184D01*
X80645597Y-43279172D01*
X80530109Y-43120213D01*
X80379786Y-42969890D01*
X80207820Y-42844951D01*
X80018414Y-42748444D01*
X80018413Y-42748443D01*
X80018412Y-42748443D01*
X79816243Y-42682754D01*
X79816241Y-42682753D01*
X79816240Y-42682753D01*
X79654957Y-42657208D01*
X79606287Y-42649500D01*
X79393713Y-42649500D01*
X79345042Y-42657208D01*
X79183760Y-42682753D01*
X78981585Y-42748444D01*
X78792179Y-42844951D01*
X78620213Y-42969890D01*
X78469890Y-43120213D01*
X78344951Y-43292179D01*
X78248444Y-43481585D01*
X78182753Y-43683760D01*
X78149500Y-43893713D01*
X66350500Y-43893713D01*
X66317246Y-43683757D01*
X66251557Y-43481588D01*
X66155051Y-43292184D01*
X66155049Y-43292181D01*
X66155048Y-43292179D01*
X66030109Y-43120213D01*
X65879786Y-42969890D01*
X65707820Y-42844951D01*
X65518414Y-42748444D01*
X65518413Y-42748443D01*
X65518412Y-42748443D01*
X65316243Y-42682754D01*
X65316241Y-42682753D01*
X65316240Y-42682753D01*
X65154957Y-42657208D01*
X65106287Y-42649500D01*
X64893713Y-42649500D01*
X64845042Y-42657208D01*
X64683760Y-42682753D01*
X64481585Y-42748444D01*
X64292179Y-42844951D01*
X64120213Y-42969890D01*
X63969890Y-43120213D01*
X63844951Y-43292179D01*
X63748444Y-43481585D01*
X63682753Y-43683760D01*
X63649500Y-43893713D01*
X50500500Y-43893713D01*
X50500500Y-39200001D01*
X69495000Y-39200001D01*
X69495000Y-40450000D01*
X70530137Y-40450000D01*
X70500000Y-40601509D01*
X70500000Y-40798491D01*
X70530137Y-40950000D01*
X69495000Y-40950000D01*
X69495000Y-42200002D01*
X69500140Y-42271870D01*
X69540634Y-42409781D01*
X69618345Y-42530703D01*
X69726976Y-42624832D01*
X69726977Y-42624833D01*
X69857721Y-42684543D01*
X69857725Y-42684544D01*
X70000001Y-42704999D01*
X70000003Y-42705000D01*
X71750000Y-42705000D01*
X71750000Y-41700000D01*
X72250000Y-41700000D01*
X72250000Y-42705000D01*
X74000000Y-42705000D01*
X74000002Y-42704999D01*
X74071870Y-42699859D01*
X74209781Y-42659365D01*
X74330703Y-42581654D01*
X74424832Y-42473023D01*
X74424833Y-42473022D01*
X74484543Y-42342278D01*
X74484544Y-42342274D01*
X74504999Y-42199998D01*
X74505000Y-42199997D01*
X74505000Y-40950000D01*
X73469863Y-40950000D01*
X73500000Y-40798491D01*
X73500000Y-40601509D01*
X73469863Y-40450000D01*
X74505000Y-40450000D01*
X74505000Y-39200001D01*
X115495000Y-39200001D01*
X115495000Y-40450000D01*
X116530137Y-40450000D01*
X116500000Y-40601509D01*
X116500000Y-40798491D01*
X116530137Y-40950000D01*
X115495000Y-40950000D01*
X115495000Y-42200002D01*
X115500140Y-42271870D01*
X115540634Y-42409781D01*
X115618345Y-42530703D01*
X115726976Y-42624832D01*
X115726977Y-42624833D01*
X115857721Y-42684543D01*
X115857725Y-42684544D01*
X116000001Y-42704999D01*
X116000003Y-42705000D01*
X117750000Y-42705000D01*
X117750000Y-41700000D01*
X118250000Y-41700000D01*
X118250000Y-42705000D01*
X120000000Y-42705000D01*
X120000002Y-42704999D01*
X120071870Y-42699859D01*
X120209781Y-42659365D01*
X120330703Y-42581654D01*
X120424832Y-42473023D01*
X120424833Y-42473022D01*
X120484543Y-42342278D01*
X120484544Y-42342274D01*
X120504999Y-42199998D01*
X120505000Y-42199997D01*
X120505000Y-40950000D01*
X119469863Y-40950000D01*
X119500000Y-40798491D01*
X119500000Y-40601509D01*
X119469863Y-40450000D01*
X120505000Y-40450000D01*
X120505000Y-39199998D01*
X120499859Y-39128129D01*
X120459365Y-38990218D01*
X120381654Y-38869296D01*
X120273023Y-38775167D01*
X120273022Y-38775166D01*
X120142278Y-38715456D01*
X120142274Y-38715455D01*
X119999998Y-38695000D01*
X118250000Y-38695000D01*
X118250000Y-39700000D01*
X117750000Y-39700000D01*
X117750000Y-38695000D01*
X115999997Y-38695000D01*
X115928129Y-38700140D01*
X115790218Y-38740634D01*
X115669296Y-38818345D01*
X115575167Y-38926976D01*
X115575166Y-38926977D01*
X115515456Y-39057721D01*
X115515455Y-39057725D01*
X115495000Y-39200001D01*
X74505000Y-39200001D01*
X74505000Y-39199998D01*
X74499859Y-39128129D01*
X74459365Y-38990218D01*
X74381654Y-38869296D01*
X74273023Y-38775167D01*
X74273022Y-38775166D01*
X74142278Y-38715456D01*
X74142274Y-38715455D01*
X73999998Y-38695000D01*
X72250000Y-38695000D01*
X72250000Y-39700000D01*
X71750000Y-39700000D01*
X71750000Y-38695000D01*
X69999997Y-38695000D01*
X69928129Y-38700140D01*
X69790218Y-38740634D01*
X69669296Y-38818345D01*
X69575167Y-38926976D01*
X69575166Y-38926977D01*
X69515456Y-39057721D01*
X69515455Y-39057725D01*
X69495000Y-39200001D01*
X50500500Y-39200001D01*
X50500500Y-33003750D01*
X50500726Y-32996263D01*
X50518271Y-32706205D01*
X50520076Y-32691340D01*
X50571780Y-32409202D01*
X50575364Y-32394664D01*
X50660699Y-32120812D01*
X50665997Y-32106842D01*
X50783727Y-31845258D01*
X50790680Y-31832012D01*
X50830959Y-31765381D01*
X50939075Y-31586534D01*
X50947567Y-31574230D01*
X51124481Y-31348417D01*
X51134396Y-31337226D01*
X51337226Y-31134396D01*
X51348417Y-31124481D01*
X51574230Y-30947567D01*
X51586534Y-30939075D01*
X51832012Y-30790680D01*
X51845258Y-30783727D01*
X52106842Y-30665997D01*
X52120812Y-30660699D01*
X52394668Y-30575362D01*
X52409198Y-30571780D01*
X52691344Y-30520075D01*
X52706201Y-30518271D01*
X52996264Y-30500726D01*
X53003751Y-30500500D01*
X53065892Y-30500500D01*
X136934108Y-30500500D01*
X136996249Y-30500500D01*
X137003736Y-30500726D01*
G37*
%TD.AperFunction*%
%TD*%
M02*
