M48
; DRILL file KiCad 10.0.1 date 2026-05-31T15:24:18
; FORMAT={3:3/ absolute / metric / suppress leading zeros}
; #@! TF.CreationDate,2026-05-31T15:24:18+02:00
; #@! TF.GenerationSoftware,Kicad,Pcbnew,10.0.1
; #@! TF.FileFunction,MixedPlating,1,4
FMAT,2
METRIC,TZ
; #@! TA.AperFunction,Plated,PTH,ViaDrill
T1C0.300
; #@! TA.AperFunction,Plated,PTH,ComponentDrill
T2C0.800
; #@! TA.AperFunction,Plated,PTH,ComponentDrill
T3C1.100
; #@! TA.AperFunction,Plated,PTH,ComponentDrill
T4C2.000
; #@! TA.AperFunction,Plated,PTH,ComponentDrill
T5C3.200
%
G90
G05
T1
X51530Y-68330
X52000Y-79000
X52000Y-80250
X52000Y-82790
X52000Y-84000
X53750Y-86000
X53750Y-86750
X54000Y-75000
X54500Y-68500
X55000Y-74000
X55000Y-79000
X55000Y-80250
X55000Y-82750
X56500Y-84000
X57750Y-60250
X57750Y-61000
X57750Y-74750
X58000Y-67000
X58000Y-67750
X58750Y-61750
X58750Y-84750
X60250Y-85000
X60500Y-61750
X60750Y-74750
X61500Y-62750
X61500Y-65750
X62650Y-84250
X63850Y-84250
X65200Y-94600
X66000Y-94600
X67250Y-94500
X67250Y-97000
X67250Y-97750
X67750Y-96250
X68250Y-79500
X68500Y-82462
X69250Y-92175
X69250Y-92925
X69250Y-93675
X69951Y-65951
X70500Y-92175
X70500Y-93675
X70700Y-64900
X71250Y-97000
X71500Y-65250
X71750Y-92175
X71750Y-92925
X71750Y-93675
X72250Y-81550
X72400Y-63150
X72500Y-85250
X72500Y-87500
X72750Y-79500
X73500Y-93750
X73500Y-97500
X74000Y-66000
X74204Y-62674
X74500Y-84250
X74500Y-92750
X75000Y-62750
X75250Y-92750
X75500Y-70250
X75750Y-63150
X76000Y-89000
X76250Y-61500
X77000Y-61500
X77000Y-83250
X77750Y-57000
X77750Y-61500
X79750Y-81550
X79768Y-54432
X80500Y-40750
X80518Y-55182
X80750Y-35000
X81000Y-47400
X81050Y-38500
X81232Y-79532
X81250Y-40250
X81500Y-35000
X81750Y-38500
X82000Y-76750
X82250Y-35000
X82300Y-43400
X82300Y-44600
X82300Y-50800
X82750Y-95500
X83500Y-58250
X83750Y-95500
X84750Y-95500
X85250Y-60500
X85402Y-75362
X85750Y-53750
X86500Y-51250
X86500Y-81250
X87250Y-51250
X88000Y-56750
X88250Y-42750
X88250Y-43500
X88250Y-44250
X88250Y-46250
X88250Y-47000
X88250Y-83750
X88750Y-68000
X88750Y-70000
X89000Y-83750
X89000Y-96000
X89000Y-97250
X89163Y-72238
X89500Y-47750
X89500Y-48500
X90000Y-53750
X90000Y-84750
X90000Y-85500
X90250Y-49250
X90500Y-47000
X90500Y-88500
X90500Y-89250
X90500Y-90000
X90750Y-45500
X90925Y-64000
X90997Y-59741
X91000Y-49250
X91000Y-90750
X91000Y-91500
X91250Y-36500
X91250Y-37250
X91250Y-38250
X91250Y-60500
X91250Y-72250
X91250Y-73250
X91525Y-65000
X92000Y-38250
X92000Y-66400
X92000Y-87500
X92150Y-55250
X92250Y-61500
X92250Y-73250
X92500Y-34500
X92500Y-35250
X92500Y-95250
X92500Y-96000
X92600Y-51000
X92750Y-38250
X92750Y-66000
X92816Y-73816
X93000Y-47750
X93000Y-58250
X93250Y-60000
X93662Y-54162
X93750Y-92000
X94018Y-80537
X94100Y-66100
X94150Y-74500
X94150Y-78701
X94513Y-70987
X94650Y-54023
X94750Y-58750
X94750Y-64000
X95000Y-92000
X95078Y-71553
X95250Y-94750
X95650Y-91500
X95750Y-72000
X96050Y-90000
X96475Y-71025
X96500Y-75750
X96520Y-52422
X96650Y-90750
X96750Y-63250
X96750Y-65250
X97000Y-47750
X97250Y-52750
X97250Y-89000
X97500Y-42000
X97500Y-73250
X97750Y-87000
X97824Y-50976
X98000Y-61350
X98000Y-76500
X98000Y-79750
X98250Y-42000
X98250Y-88750
X98500Y-87000
X98750Y-65250
X98750Y-79750
X98800Y-61900
X98800Y-62600
X99000Y-42000
X99231Y-87000
X99250Y-42750
X99250Y-75250
X99400Y-61900
X99400Y-62600
X99500Y-46100
X99500Y-79750
X100250Y-38500
X100250Y-39250
X100250Y-40000
X100250Y-79750
X100250Y-80500
X100500Y-92450
X100900Y-57650
X101000Y-96000
X101000Y-97250
X101250Y-46000
X101250Y-92450
X101419Y-76535
X101650Y-67500
X101750Y-43000
X101750Y-43750
X101750Y-44500
X101750Y-49250
X101750Y-50000
X102000Y-46250
X102000Y-92450
X103000Y-92250
X103700Y-61000
X104300Y-61000
X104900Y-61000
X105200Y-90850
X105250Y-91700
X105500Y-61000
X105750Y-89750
X106000Y-72500
X106100Y-61000
X106500Y-89750
X106700Y-61000
X106750Y-92200
X106750Y-92950
X107000Y-94200
X107000Y-94950
X107700Y-42900
X107700Y-44100
X108600Y-50100
X109000Y-66000
X109000Y-66750
X109000Y-68250
X109000Y-69000
X109000Y-69750
X109700Y-59400
X111500Y-67500
X111700Y-42800
X112451Y-76100
X112459Y-80541
X113000Y-57750
X113000Y-58700
X113000Y-59500
X113000Y-60400
X113000Y-61250
X113250Y-94535
X113250Y-95285
X113375Y-76100
X113918Y-78100
X114000Y-93535
X114136Y-78870
X114470Y-72470
X114500Y-74750
X114704Y-79434
X114750Y-35000
X114750Y-93535
X115250Y-40750
X115500Y-34250
X115500Y-35000
X115500Y-38250
X116250Y-35000
X116425Y-47800
X116926Y-89676
X117500Y-48500
X117500Y-74250
X118250Y-74250
X118250Y-78750
X118600Y-90516
X118799Y-79451
X119000Y-72750
X119000Y-73500
X119000Y-74250
X119500Y-64000
X119500Y-64750
X119500Y-65500
X119500Y-66250
X119500Y-67000
X119500Y-67750
X119750Y-71500
X121500Y-71500
X122250Y-74000
X123000Y-74000
X123750Y-74000
X124500Y-74000
X124600Y-89750
X124750Y-90766
X125000Y-54250
X125250Y-74000
X126000Y-74000
X126750Y-81750
X126750Y-82750
X126800Y-97550
X127500Y-83500
X127500Y-97550
X128000Y-80500
X128250Y-83500
X129000Y-54250
X129500Y-78000
X129550Y-81500
X130750Y-88500
X130750Y-89250
X131000Y-80500
X131000Y-85500
X131000Y-86250
X131250Y-88000
X131750Y-86250
X132000Y-57000
X132000Y-88000
X132500Y-86250
X132750Y-57000
X132750Y-87750
X133500Y-55250
X133500Y-56000
X133500Y-56750
X134250Y-47250
X134250Y-48000
X134250Y-48750
X134250Y-49500
X134250Y-50250
X134250Y-51000
X137250Y-78750
X137250Y-79500
X137250Y-80250
X137250Y-81000
T2
X61700Y-93250
X61700Y-95250
X61700Y-97250
X137430Y-73250
X137430Y-75250
T3
X65000Y-44000
X65000Y-49000
X79500Y-44000
X79500Y-46500
X79500Y-49000
X110500Y-44000
X110500Y-46500
X110500Y-49000
X125000Y-44000
X125000Y-49000
T5
X54000Y-34000
X54000Y-96000
X136000Y-34000
X136000Y-96000
T4
G00X72500Y-40700
M15
G01X71500Y-40700
M16
G05
G00X72500Y-52300
M15
G01X71500Y-52300
M16
G05
G00X117500Y-40700
M15
G01X118500Y-40700
M16
G05
G00X117500Y-52300
M15
G01X118500Y-52300
M16
G05
M30
