%TF.GenerationSoftware,KiCad,Pcbnew,10.0.1*%
%TF.CreationDate,2026-05-31T15:20:11+02:00*%
%TF.ProjectId,InclinationMeter,496e636c-696e-4617-9469-6f6e4d657465,rev?*%
%TF.SameCoordinates,Original*%
%TF.FileFunction,Soldermask,Top*%
%TF.FilePolarity,Negative*%
%FSLAX46Y46*%
G04 Gerber Fmt 4.6, Leading zero omitted, Abs format (unit mm)*
G04 Created by KiCad (PCBNEW 10.0.1) date 2026-05-31 15:20:11*
%MOMM*%
%LPD*%
G01*
G04 APERTURE LIST*
G04 Aperture macros list*
%AMRoundRect*
0 Rectangle with rounded corners*
0 $1 Rounding radius*
0 $2 $3 $4 $5 $6 $7 $8 $9 X,Y pos of 4 corners*
0 Add a 4 corners polygon primitive as box body*
4,1,4,$2,$3,$4,$5,$6,$7,$8,$9,$2,$3,0*
0 Add four circle primitives for the rounded corners*
1,1,$1+$1,$2,$3*
1,1,$1+$1,$4,$5*
1,1,$1+$1,$6,$7*
1,1,$1+$1,$8,$9*
0 Add four rect primitives between the rounded corners*
20,1,$1+$1,$2,$3,$4,$5,0*
20,1,$1+$1,$4,$5,$6,$7,0*
20,1,$1+$1,$6,$7,$8,$9,0*
20,1,$1+$1,$8,$9,$2,$3,0*%
%AMFreePoly0*
4,1,5,1.500000,-2.000000,-1.500000,-2.000000,-1.500000,2.000000,1.500000,2.000000,1.500000,-2.000000,1.500000,-2.000000,$1*%
G04 Aperture macros list end*
%ADD10RoundRect,0.225000X0.225000X0.250000X-0.225000X0.250000X-0.225000X-0.250000X0.225000X-0.250000X0*%
%ADD11RoundRect,0.200000X-0.200000X-0.275000X0.200000X-0.275000X0.200000X0.275000X-0.200000X0.275000X0*%
%ADD12RoundRect,0.200000X0.200000X0.275000X-0.200000X0.275000X-0.200000X-0.275000X0.200000X-0.275000X0*%
%ADD13R,3.400000X1.300000*%
%ADD14RoundRect,0.250000X-0.250000X-0.475000X0.250000X-0.475000X0.250000X0.475000X-0.250000X0.475000X0*%
%ADD15R,0.600000X1.100000*%
%ADD16O,2.082000X0.364000*%
%ADD17R,0.600000X1.800000*%
%ADD18R,2.600000X3.000000*%
%ADD19RoundRect,0.225000X-0.225000X-0.250000X0.225000X-0.250000X0.225000X0.250000X-0.225000X0.250000X0*%
%ADD20RoundRect,0.200000X0.275000X-0.200000X0.275000X0.200000X-0.275000X0.200000X-0.275000X-0.200000X0*%
%ADD21RoundRect,0.200000X-0.275000X0.200000X-0.275000X-0.200000X0.275000X-0.200000X0.275000X0.200000X0*%
%ADD22RoundRect,0.250000X-0.475000X0.250000X-0.475000X-0.250000X0.475000X-0.250000X0.475000X0.250000X0*%
%ADD23RoundRect,0.218750X-0.256250X0.218750X-0.256250X-0.218750X0.256250X-0.218750X0.256250X0.218750X0*%
%ADD24R,0.600000X1.200000*%
%ADD25R,3.300000X2.400000*%
%ADD26O,1.975000X0.700000*%
%ADD27O,0.700000X1.975000*%
%ADD28R,1.500000X1.400000*%
%ADD29RoundRect,0.250000X0.250000X0.475000X-0.250000X0.475000X-0.250000X-0.475000X0.250000X-0.475000X0*%
%ADD30R,0.532000X1.072000*%
%ADD31R,1.500000X1.500000*%
%ADD32C,1.500000*%
%ADD33RoundRect,0.225000X0.250000X-0.225000X0.250000X0.225000X-0.250000X0.225000X-0.250000X-0.225000X0*%
%ADD34RoundRect,0.225000X-0.250000X0.225000X-0.250000X-0.225000X0.250000X-0.225000X0.250000X0.225000X0*%
%ADD35R,2.200000X0.740000*%
%ADD36O,1.500000X0.400000*%
%ADD37R,0.350000X0.350000*%
%ADD38O,2.000000X1.200000*%
%ADD39O,1.800000X1.200000*%
%ADD40R,1.300000X0.600000*%
%ADD41R,1.300000X0.300000*%
%ADD42O,0.400000X1.500000*%
%ADD43R,1.250000X0.700000*%
%ADD44R,0.700000X1.250000*%
%ADD45RoundRect,0.075000X0.700000X0.075000X-0.700000X0.075000X-0.700000X-0.075000X0.700000X-0.075000X0*%
%ADD46RoundRect,0.075000X0.075000X0.700000X-0.075000X0.700000X-0.075000X-0.700000X0.075000X-0.700000X0*%
%ADD47RoundRect,0.218750X0.218750X0.256250X-0.218750X0.256250X-0.218750X-0.256250X0.218750X-0.256250X0*%
%ADD48C,3.600000*%
%ADD49C,5.600000*%
%ADD50R,1.700000X0.400000*%
%ADD51R,2.400000X1.900000*%
%ADD52C,1.700000*%
%ADD53R,1.700000X1.700000*%
%ADD54FreePoly0,90.000000*%
%ADD55FreePoly0,270.000000*%
G04 APERTURE END LIST*
D10*
%TO.C,C32*%
X95275000Y-95750000D03*
X93725000Y-95750000D03*
%TD*%
D11*
%TO.C,R27*%
X58675000Y-62750000D03*
X60325000Y-62750000D03*
%TD*%
%TO.C,R30*%
X54850000Y-88250000D03*
X56500000Y-88250000D03*
%TD*%
D12*
%TO.C,R31*%
X56500000Y-86500000D03*
X54850000Y-86500000D03*
%TD*%
D13*
%TO.C,BZ1*%
X83750000Y-87900000D03*
X83750000Y-96600000D03*
%TD*%
D14*
%TO.C,C15*%
X104250000Y-85950000D03*
X106150000Y-85950000D03*
%TD*%
D15*
%TO.C,U2*%
X116550000Y-71550000D03*
X117500000Y-71550000D03*
X118450000Y-71550000D03*
X118450000Y-68950000D03*
X116550000Y-68950000D03*
%TD*%
D16*
%TO.C,U8*%
X98490000Y-86430000D03*
X98490000Y-85780000D03*
X98490000Y-85130000D03*
X98490000Y-84480000D03*
X98490000Y-83820000D03*
X98490000Y-83170000D03*
X98490000Y-82520000D03*
X98490000Y-81870000D03*
X98490000Y-81220000D03*
X98490000Y-80570000D03*
X91510000Y-80570000D03*
X91510000Y-81220000D03*
X91510000Y-81870000D03*
X91510000Y-82520000D03*
X91510000Y-83170000D03*
X91510000Y-83820000D03*
X91510000Y-84480000D03*
X91510000Y-85130000D03*
X91510000Y-85780000D03*
X91510000Y-86430000D03*
%TD*%
D17*
%TO.C,J3*%
X97500000Y-36550000D03*
X96500000Y-36550000D03*
X95500000Y-36550000D03*
X94500000Y-36550000D03*
X93500000Y-36550000D03*
X92500000Y-36550000D03*
D18*
X90150000Y-34300000D03*
X99850000Y-34300000D03*
%TD*%
D19*
%TO.C,C11*%
X104225000Y-92700000D03*
X105775000Y-92700000D03*
%TD*%
D12*
%TO.C,R10*%
X82075000Y-58250000D03*
X80425000Y-58250000D03*
%TD*%
D20*
%TO.C,R17*%
X104750000Y-50075000D03*
X104750000Y-48425000D03*
%TD*%
D21*
%TO.C,R28*%
X58750000Y-59425000D03*
X58750000Y-61075000D03*
%TD*%
D22*
%TO.C,C14*%
X101000000Y-89500000D03*
X101000000Y-91400000D03*
%TD*%
D17*
%TO.C,J6*%
X116500000Y-36550000D03*
X115500000Y-36550000D03*
X114500000Y-36550000D03*
X113500000Y-36550000D03*
X112500000Y-36550000D03*
X111500000Y-36550000D03*
X110500000Y-36550000D03*
X109500000Y-36550000D03*
X108500000Y-36550000D03*
X107500000Y-36550000D03*
D18*
X105150000Y-34300000D03*
X118850000Y-34300000D03*
%TD*%
D11*
%TO.C,R35*%
X114175000Y-45750000D03*
X115825000Y-45750000D03*
%TD*%
D21*
%TO.C,R24*%
X83500000Y-48425000D03*
X83500000Y-50075000D03*
%TD*%
D23*
%TO.C,D2*%
X71250000Y-81712500D03*
X71250000Y-83287500D03*
%TD*%
D24*
%TO.C,U3*%
X68590000Y-95835000D03*
X69870000Y-95835000D03*
X71140000Y-95835000D03*
X72410000Y-95835000D03*
X72410000Y-90015000D03*
X71140000Y-90015000D03*
X69870000Y-90015000D03*
X68590000Y-90015000D03*
D25*
X70500000Y-92925000D03*
%TD*%
D26*
%TO.C,U7*%
X125290000Y-98756250D03*
X125290000Y-97556250D03*
X125290000Y-96356250D03*
X125290000Y-95156250D03*
X125290000Y-93956250D03*
D27*
X124000000Y-92276250D03*
X122800000Y-92276250D03*
X121600000Y-92276250D03*
X120400000Y-92276250D03*
X119200000Y-92276250D03*
X118000000Y-92276250D03*
D26*
X116710000Y-93956250D03*
X116710000Y-95156250D03*
X116710000Y-96356250D03*
X116710000Y-97556250D03*
X116710000Y-98756250D03*
%TD*%
D28*
%TO.C,Y1*%
X105900000Y-67050000D03*
X105900000Y-69250000D03*
%TD*%
D19*
%TO.C,C38*%
X97480000Y-39505000D03*
X99030000Y-39505000D03*
%TD*%
%TO.C,C2*%
X116725000Y-65000000D03*
X118275000Y-65000000D03*
%TD*%
D29*
%TO.C,C29*%
X93700000Y-89000000D03*
X91800000Y-89000000D03*
%TD*%
D30*
%TO.C,U5*%
X104250000Y-90850000D03*
X105200000Y-90850000D03*
X106150000Y-90850000D03*
X106150000Y-88550000D03*
X105200000Y-88550000D03*
X104250000Y-88550000D03*
%TD*%
D31*
%TO.C,J7*%
X61700000Y-97250000D03*
D32*
X61700000Y-95250000D03*
X61700000Y-93250000D03*
%TD*%
D19*
%TO.C,C6*%
X130725000Y-55750000D03*
X132275000Y-55750000D03*
%TD*%
D33*
%TO.C,C5*%
X74250000Y-95950000D03*
X74250000Y-94400000D03*
%TD*%
D10*
%TO.C,C30*%
X93775000Y-91000000D03*
X92225000Y-91000000D03*
%TD*%
D12*
%TO.C,R1*%
X136130000Y-65550000D03*
X134480000Y-65550000D03*
%TD*%
D11*
%TO.C,R32*%
X75925000Y-43000000D03*
X77575000Y-43000000D03*
%TD*%
D21*
%TO.C,R20*%
X85250000Y-41925000D03*
X85250000Y-43575000D03*
%TD*%
D11*
%TO.C,R29*%
X58675000Y-65750000D03*
X60325000Y-65750000D03*
%TD*%
D34*
%TO.C,C41*%
X60250000Y-82725000D03*
X60250000Y-84275000D03*
%TD*%
D35*
%TO.C,J4*%
X53560000Y-76440000D03*
X58000000Y-76440000D03*
X53560000Y-77710000D03*
X58000000Y-77710000D03*
X53560000Y-78980000D03*
X58000000Y-78980000D03*
X53560000Y-80250000D03*
X58000000Y-80250000D03*
X53560000Y-81520000D03*
X58000000Y-81520000D03*
X53560000Y-82790000D03*
X58000000Y-82790000D03*
X53560000Y-84060000D03*
X58000000Y-84060000D03*
%TD*%
D34*
%TO.C,C20*%
X107900000Y-65775000D03*
X107900000Y-67325000D03*
%TD*%
D36*
%TO.C,U9*%
X135950000Y-80980000D03*
X135950000Y-80320000D03*
X135950000Y-79670000D03*
X135950000Y-79020000D03*
X129550000Y-79020000D03*
X129550000Y-79670000D03*
X129550000Y-80320000D03*
X129550000Y-80980000D03*
%TD*%
D21*
%TO.C,R18*%
X127750000Y-77165000D03*
X127750000Y-78815000D03*
%TD*%
D11*
%TO.C,R8*%
X85425000Y-73250000D03*
X87075000Y-73250000D03*
%TD*%
D21*
%TO.C,R13*%
X104750000Y-41850000D03*
X104750000Y-43500000D03*
%TD*%
D33*
%TO.C,C17*%
X104761396Y-63650000D03*
X104761396Y-62100000D03*
%TD*%
D14*
%TO.C,C10*%
X104050000Y-94700000D03*
X105950000Y-94700000D03*
%TD*%
D37*
%TO.C,U10*%
X131775000Y-85475000D03*
X132425000Y-85475000D03*
X133075000Y-85475000D03*
X133725000Y-85475000D03*
X133725000Y-87025000D03*
X133075000Y-87025000D03*
X132425000Y-87025000D03*
X131775000Y-87025000D03*
%TD*%
D21*
%TO.C,R15*%
X106500000Y-45175000D03*
X106500000Y-46825000D03*
%TD*%
D38*
%TO.C,J2*%
X55710000Y-68330000D03*
D39*
X51530000Y-68330000D03*
X51530000Y-59670000D03*
D38*
X55710000Y-59670000D03*
D40*
X56470000Y-60800000D03*
X56470000Y-61600000D03*
D41*
X56470000Y-62750000D03*
X56470000Y-63750000D03*
X56470000Y-64250000D03*
X56470000Y-65250000D03*
D40*
X56470000Y-67200000D03*
X56470000Y-66400000D03*
D41*
X56470000Y-65750000D03*
X56470000Y-64750000D03*
X56470000Y-63250000D03*
X56470000Y-62250000D03*
%TD*%
D20*
%TO.C,R5*%
X76000000Y-96000000D03*
X76000000Y-94350000D03*
%TD*%
D34*
%TO.C,C12*%
X102950000Y-89675000D03*
X102950000Y-91225000D03*
%TD*%
D10*
%TO.C,C26*%
X129525000Y-82250000D03*
X127975000Y-82250000D03*
%TD*%
D30*
%TO.C,U1*%
X126280000Y-70700000D03*
X127230000Y-70700000D03*
X128180000Y-70700000D03*
X128180000Y-68400000D03*
X127230000Y-68400000D03*
X126280000Y-68400000D03*
%TD*%
D21*
%TO.C,R16*%
X106500000Y-48425000D03*
X106500000Y-50075000D03*
%TD*%
D42*
%TO.C,Q2*%
X124210000Y-66350000D03*
X123550000Y-66350000D03*
X122900000Y-66350000D03*
X122250000Y-66350000D03*
X122250000Y-72750000D03*
X122900000Y-72750000D03*
X123550000Y-72750000D03*
X124210000Y-72750000D03*
%TD*%
D34*
%TO.C,C28*%
X103000000Y-48475000D03*
X103000000Y-50025000D03*
%TD*%
D21*
%TO.C,R21*%
X85250000Y-45175000D03*
X85250000Y-46825000D03*
%TD*%
D10*
%TO.C,C34*%
X133500000Y-88725000D03*
X131950000Y-88725000D03*
%TD*%
D43*
%TO.C,Q5*%
X81500000Y-69800000D03*
X81500000Y-71700000D03*
X83500000Y-70750000D03*
%TD*%
%TO.C,U12*%
X78000000Y-68200000D03*
X78000000Y-66300000D03*
X76000000Y-67250000D03*
%TD*%
D21*
%TO.C,R37*%
X73750000Y-66925000D03*
X73750000Y-68575000D03*
%TD*%
D44*
%TO.C,Q4*%
X77950000Y-90250000D03*
X76050000Y-90250000D03*
X77000000Y-92250000D03*
%TD*%
D15*
%TO.C,U4*%
X131050000Y-54050000D03*
X132000000Y-54050000D03*
X132950000Y-54050000D03*
X132950000Y-51450000D03*
X131050000Y-51450000D03*
%TD*%
D17*
%TO.C,J5*%
X82500000Y-36550000D03*
X81500000Y-36550000D03*
X80500000Y-36550000D03*
X79500000Y-36550000D03*
X78500000Y-36550000D03*
X77500000Y-36550000D03*
X76500000Y-36550000D03*
X75500000Y-36550000D03*
X74500000Y-36550000D03*
X73500000Y-36550000D03*
D18*
X71150000Y-34300000D03*
X84850000Y-34300000D03*
%TD*%
D20*
%TO.C,R34*%
X62000000Y-84325000D03*
X62000000Y-82675000D03*
%TD*%
D21*
%TO.C,R19*%
X126000000Y-77915000D03*
X126000000Y-79565000D03*
%TD*%
D10*
%TO.C,C36*%
X78250000Y-70000000D03*
X76700000Y-70000000D03*
%TD*%
D34*
%TO.C,C35*%
X87000000Y-48475000D03*
X87000000Y-50025000D03*
%TD*%
%TO.C,C24*%
X103000000Y-45225000D03*
X103000000Y-46775000D03*
%TD*%
D12*
%TO.C,R26*%
X81800000Y-66250000D03*
X80150000Y-66250000D03*
%TD*%
D19*
%TO.C,C40*%
X79475000Y-39500000D03*
X81025000Y-39500000D03*
%TD*%
D45*
%TO.C,U6*%
X100675000Y-66250000D03*
X100675000Y-65750000D03*
X100675000Y-65250000D03*
X100675000Y-64750000D03*
X100675000Y-64250000D03*
X100675000Y-63750000D03*
X100675000Y-63250000D03*
X100675000Y-62750000D03*
X100675000Y-62250000D03*
X100675000Y-61750000D03*
X100675000Y-61250000D03*
X100675000Y-60750000D03*
X100675000Y-60250000D03*
X100675000Y-59750000D03*
X100675000Y-59250000D03*
X100675000Y-58750000D03*
D46*
X98750000Y-56825000D03*
X98250000Y-56825000D03*
X97750000Y-56825000D03*
X97250000Y-56825000D03*
X96750000Y-56825000D03*
X96250000Y-56825000D03*
X95750000Y-56825000D03*
X95250000Y-56825000D03*
X94750000Y-56825000D03*
X94250000Y-56825000D03*
X93750000Y-56825000D03*
X93250000Y-56825000D03*
X92750000Y-56825000D03*
X92250000Y-56825000D03*
X91750000Y-56825000D03*
X91250000Y-56825000D03*
D45*
X89325000Y-58750000D03*
X89325000Y-59250000D03*
X89325000Y-59750000D03*
X89325000Y-60250000D03*
X89325000Y-60750000D03*
X89325000Y-61250000D03*
X89325000Y-61750000D03*
X89325000Y-62250000D03*
X89325000Y-62750000D03*
X89325000Y-63250000D03*
X89325000Y-63750000D03*
X89325000Y-64250000D03*
X89325000Y-64750000D03*
X89325000Y-65250000D03*
X89325000Y-65750000D03*
X89325000Y-66250000D03*
D46*
X91250000Y-68175000D03*
X91750000Y-68175000D03*
X92250000Y-68175000D03*
X92750000Y-68175000D03*
X93250000Y-68175000D03*
X93750000Y-68175000D03*
X94250000Y-68175000D03*
X94750000Y-68175000D03*
X95250000Y-68175000D03*
X95750000Y-68175000D03*
X96250000Y-68175000D03*
X96750000Y-68175000D03*
X97250000Y-68175000D03*
X97750000Y-68175000D03*
X98250000Y-68175000D03*
X98750000Y-68175000D03*
%TD*%
D33*
%TO.C,C21*%
X112011396Y-62000000D03*
X112011396Y-60450000D03*
%TD*%
%TO.C,C16*%
X106261396Y-63650000D03*
X106261396Y-62100000D03*
%TD*%
D12*
%TO.C,R11*%
X82075000Y-60250000D03*
X80425000Y-60250000D03*
%TD*%
D34*
%TO.C,C7*%
X74250000Y-89900000D03*
X74250000Y-91450000D03*
%TD*%
D47*
%TO.C,D4*%
X78787500Y-60250000D03*
X77212500Y-60250000D03*
%TD*%
D34*
%TO.C,C22*%
X112011396Y-57175000D03*
X112011396Y-58725000D03*
%TD*%
D14*
%TO.C,C9*%
X131050000Y-49500000D03*
X132950000Y-49500000D03*
%TD*%
D48*
%TO.C,H2*%
X54000000Y-34000000D03*
D49*
X54000000Y-34000000D03*
%TD*%
D19*
%TO.C,C1*%
X116225000Y-73000000D03*
X117775000Y-73000000D03*
%TD*%
D21*
%TO.C,R23*%
X83500000Y-41925000D03*
X83500000Y-43575000D03*
%TD*%
D14*
%TO.C,C4*%
X116550000Y-67000000D03*
X118450000Y-67000000D03*
%TD*%
D33*
%TO.C,C19*%
X107900000Y-70575000D03*
X107900000Y-69025000D03*
%TD*%
D48*
%TO.C,H3*%
X136000000Y-34000000D03*
D49*
X136000000Y-34000000D03*
%TD*%
D34*
%TO.C,C25*%
X103000000Y-41900000D03*
X103000000Y-43450000D03*
%TD*%
D48*
%TO.C,H4*%
X54000000Y-96000000D03*
D49*
X54000000Y-96000000D03*
%TD*%
D33*
%TO.C,C18*%
X103261396Y-63650000D03*
X103261396Y-62100000D03*
%TD*%
D21*
%TO.C,R7*%
X71250000Y-84925000D03*
X71250000Y-86575000D03*
%TD*%
D11*
%TO.C,R33*%
X75925000Y-41250000D03*
X77575000Y-41250000D03*
%TD*%
D34*
%TO.C,C33*%
X87000000Y-45225000D03*
X87000000Y-46775000D03*
%TD*%
D10*
%TO.C,C37*%
X92025000Y-48000000D03*
X90475000Y-48000000D03*
%TD*%
D21*
%TO.C,R6*%
X69500000Y-84925000D03*
X69500000Y-86575000D03*
%TD*%
D34*
%TO.C,C31*%
X87000000Y-41975000D03*
X87000000Y-43525000D03*
%TD*%
D50*
%TO.C,U11*%
X97800000Y-46700000D03*
X97800000Y-46050000D03*
X97800000Y-45400000D03*
X97800000Y-44750000D03*
X97800000Y-44100000D03*
X97800000Y-43450000D03*
X97800000Y-42800000D03*
X92200000Y-42800000D03*
X92200000Y-43450000D03*
X92200000Y-44100000D03*
X92200000Y-44750000D03*
X92200000Y-45400000D03*
X92200000Y-46050000D03*
X92200000Y-46700000D03*
%TD*%
D48*
%TO.C,H1*%
X136000000Y-96000000D03*
D49*
X136000000Y-96000000D03*
%TD*%
D20*
%TO.C,R25*%
X85250000Y-50075000D03*
X85250000Y-48425000D03*
%TD*%
D19*
%TO.C,C3*%
X131475000Y-67750000D03*
X133025000Y-67750000D03*
%TD*%
D44*
%TO.C,Q3*%
X113050000Y-67250000D03*
X114950000Y-67250000D03*
X114000000Y-65250000D03*
%TD*%
D19*
%TO.C,C8*%
X131225000Y-47500000D03*
X132775000Y-47500000D03*
%TD*%
D12*
%TO.C,R2*%
X127055000Y-72800000D03*
X125405000Y-72800000D03*
%TD*%
D11*
%TO.C,R4*%
X68425000Y-97675000D03*
X70075000Y-97675000D03*
%TD*%
D10*
%TO.C,C13*%
X87025000Y-70000000D03*
X85475000Y-70000000D03*
%TD*%
D33*
%TO.C,C27*%
X88750000Y-86525000D03*
X88750000Y-84975000D03*
%TD*%
%TO.C,C43*%
X65750000Y-97275000D03*
X65750000Y-95725000D03*
%TD*%
D43*
%TO.C,Q1*%
X134480000Y-67600000D03*
X134480000Y-69500000D03*
X136480000Y-68550000D03*
%TD*%
D11*
%TO.C,R36*%
X114175000Y-43500000D03*
X115825000Y-43500000D03*
%TD*%
D47*
%TO.C,D3*%
X78787500Y-58250000D03*
X77212500Y-58250000D03*
%TD*%
D23*
%TO.C,D1*%
X69500000Y-81712500D03*
X69500000Y-83287500D03*
%TD*%
D12*
%TO.C,R9*%
X87075000Y-71750000D03*
X85425000Y-71750000D03*
%TD*%
D34*
%TO.C,C39*%
X60500000Y-59475000D03*
X60500000Y-61025000D03*
%TD*%
D51*
%TO.C,Y2*%
X109011396Y-57400000D03*
X109011396Y-61500000D03*
%TD*%
D33*
%TO.C,C23*%
X114500000Y-96275000D03*
X114500000Y-94725000D03*
%TD*%
D21*
%TO.C,R3*%
X129980000Y-67975000D03*
X129980000Y-69625000D03*
%TD*%
D31*
%TO.C,J1*%
X137430000Y-73250000D03*
D32*
X137430000Y-75250000D03*
%TD*%
D21*
%TO.C,R22*%
X83500000Y-45175000D03*
X83500000Y-46825000D03*
%TD*%
%TO.C,R14*%
X106500000Y-41850000D03*
X106500000Y-43500000D03*
%TD*%
%TO.C,R12*%
X104750000Y-45175000D03*
X104750000Y-46825000D03*
%TD*%
D19*
%TO.C,C42*%
X113475000Y-39500000D03*
X115025000Y-39500000D03*
%TD*%
D52*
%TO.C,SW1*%
X110500000Y-49000000D03*
D53*
X110500000Y-46500000D03*
D52*
X110500000Y-44000000D03*
X125000000Y-49000000D03*
X125000000Y-44000000D03*
D54*
X118000000Y-52300000D03*
X118000000Y-40700000D03*
%TD*%
D52*
%TO.C,SW2*%
X79500000Y-44000000D03*
D53*
X79500000Y-46500000D03*
D52*
X79500000Y-49000000D03*
X65000000Y-44000000D03*
X65000000Y-49000000D03*
D55*
X72000000Y-40700000D03*
X72000000Y-52300000D03*
%TD*%
M02*
