%TF.GenerationSoftware,KiCad,Pcbnew,10.0.1*%
%TF.CreationDate,2026-06-12T15:58:59+02:00*%
%TF.ProjectId,InclinationMeter,496e636c-696e-4617-9469-6f6e4d657465,rev?*%
%TF.SameCoordinates,Original*%
%TF.FileFunction,Copper,L4,Bot*%
%TF.FilePolarity,Positive*%
%FSLAX46Y46*%
G04 Gerber Fmt 4.6, Leading zero omitted, Abs format (unit mm)*
G04 Created by KiCad (PCBNEW 10.0.1) date 2026-06-12 15:58:59*
%MOMM*%
%LPD*%
G01*
G04 APERTURE LIST*
G04 Aperture macros list*
%AMFreePoly0*
4,1,5,1.500000,-2.000000,-1.500000,-2.000000,-1.500000,2.000000,1.500000,2.000000,1.500000,-2.000000,1.500000,-2.000000,$1*%
G04 Aperture macros list end*
%TA.AperFunction,ComponentPad*%
%ADD10R,1.500000X1.500000*%
%TD*%
%TA.AperFunction,ComponentPad*%
%ADD11C,1.500000*%
%TD*%
%TA.AperFunction,ComponentPad*%
%ADD12C,3.600000*%
%TD*%
%TA.AperFunction,ConnectorPad*%
%ADD13C,5.600000*%
%TD*%
%TA.AperFunction,SMDPad,CuDef*%
%ADD14R,0.300000X1.308000*%
%TD*%
%TA.AperFunction,SMDPad,CuDef*%
%ADD15R,1.800000X2.300000*%
%TD*%
%TA.AperFunction,ComponentPad*%
%ADD16C,1.700000*%
%TD*%
%TA.AperFunction,ComponentPad*%
%ADD17R,1.700000X1.700000*%
%TD*%
%TA.AperFunction,ComponentPad*%
%ADD18FreePoly0,90.000000*%
%TD*%
%TA.AperFunction,ComponentPad*%
%ADD19FreePoly0,270.000000*%
%TD*%
%TA.AperFunction,ViaPad*%
%ADD20C,0.600000*%
%TD*%
%TA.AperFunction,Conductor*%
%ADD21C,0.200000*%
%TD*%
%TA.AperFunction,Conductor*%
%ADD22C,0.500000*%
%TD*%
%TA.AperFunction,Conductor*%
%ADD23C,0.250000*%
%TD*%
G04 APERTURE END LIST*
D10*
%TO.P,J7,1,1_1*%
%TO.N,5V0*%
X61700000Y-97250000D03*
D11*
%TO.P,J7,2,2_2*%
%TO.N,GND*%
X61700000Y-95250000D03*
%TO.P,J7,3,3_3*%
%TO.N,Net-(J7-Pad3)*%
X61700000Y-93250000D03*
%TD*%
D12*
%TO.P,H2,1,1_1*%
%TO.N,GND*%
X54000000Y-34000000D03*
D13*
X54000000Y-34000000D03*
%TD*%
D12*
%TO.P,H3,1,1_1*%
%TO.N,GND*%
X136000000Y-34000000D03*
D13*
X136000000Y-34000000D03*
%TD*%
D12*
%TO.P,H4,1,1_1*%
%TO.N,GND*%
X54000000Y-96000000D03*
D13*
X54000000Y-96000000D03*
%TD*%
D12*
%TO.P,H1,1,1_1*%
%TO.N,GND*%
X136000000Y-96000000D03*
D13*
X136000000Y-96000000D03*
%TD*%
D10*
%TO.P,J1,1,1_1*%
%TO.N,BAT+*%
X137430000Y-73250000D03*
D11*
%TO.P,J1,2,2_2*%
%TO.N,BAT-*%
X137430000Y-75250000D03*
%TD*%
D14*
%TO.P,DS1,1,SCLK_1*%
%TO.N,DISP_SCK_5V*%
X97250000Y-93370000D03*
%TO.P,DS1,2,SI_2*%
%TO.N,DISP_MOSI_5V*%
X96750000Y-93370000D03*
%TO.P,DS1,3,SCS_3*%
%TO.N,DISP_CS_5V*%
X96250000Y-93370000D03*
%TO.P,DS1,4,EXTCOMIN_4*%
%TO.N,DISP_VCOM_5V*%
X95750000Y-93370000D03*
%TO.P,DS1,5,DISP_5*%
%TO.N,DISP_ON_5V*%
X95250000Y-93370000D03*
%TO.P,DS1,6,VDDA_6*%
%TO.N,5V0*%
X94750000Y-93370000D03*
%TO.P,DS1,7,VDD_7*%
X94250000Y-93370000D03*
%TO.P,DS1,8,EXTMODE_8*%
X93750000Y-93370000D03*
%TO.P,DS1,9,VSS_9*%
%TO.N,GND*%
X93250000Y-93370000D03*
%TO.P,DS1,10,VSSA_10*%
X92750000Y-93370000D03*
D15*
%TO.P,DS1,11,PAD1_11*%
X90450000Y-96630000D03*
%TO.P,DS1,12,PAD2_12*%
X99550000Y-96630000D03*
%TD*%
D16*
%TO.P,SW1,1,A_1*%
%TO.N,Net-(SW1-A)*%
X110500000Y-49000000D03*
D17*
%TO.P,SW1,2,COM_2*%
%TO.N,GND*%
X110500000Y-46500000D03*
D16*
%TO.P,SW1,3,B_3*%
%TO.N,Net-(SW1-B)*%
X110500000Y-44000000D03*
%TO.P,SW1,4,SW1_4*%
%TO.N,Net-(SW1-SW1)*%
X125000000Y-49000000D03*
%TO.P,SW1,5,SW2_5*%
%TO.N,GND*%
X125000000Y-44000000D03*
D18*
%TO.P,SW1,6,PAD1_6*%
X118000000Y-52300000D03*
%TO.P,SW1,7,PAD2_7*%
X118000000Y-40700000D03*
%TD*%
D16*
%TO.P,SW2,1,A_1*%
%TO.N,Net-(SW2-A)*%
X79500000Y-44000000D03*
D17*
%TO.P,SW2,2,COM_2*%
%TO.N,GND*%
X79500000Y-46500000D03*
D16*
%TO.P,SW2,3,B_3*%
%TO.N,Net-(SW2-B)*%
X79500000Y-49000000D03*
%TO.P,SW2,4,SW1_4*%
%TO.N,Net-(SW2-SW1)*%
X65000000Y-44000000D03*
%TO.P,SW2,5,SW2_5*%
%TO.N,GND*%
X65000000Y-49000000D03*
D19*
%TO.P,SW2,6,PAD1_6*%
X72000000Y-40700000D03*
%TO.P,SW2,7,PAD2_7*%
X72000000Y-52300000D03*
%TD*%
D20*
%TO.N,DISP_ON_5V*%
X95000000Y-92000000D03*
X95250000Y-94750000D03*
%TO.N,GND*%
X56500000Y-84000000D03*
X103600000Y-92450000D03*
X67250000Y-97000000D03*
X107350000Y-89750000D03*
X132500000Y-86250000D03*
X75500000Y-70250000D03*
X71250000Y-97000000D03*
X113250000Y-95285000D03*
X73400000Y-91800000D03*
X119500000Y-64750000D03*
X99250000Y-75250000D03*
X100250000Y-39250000D03*
X97500000Y-42000000D03*
X134250000Y-48000000D03*
X52000000Y-80250000D03*
X76250000Y-61500000D03*
X137250000Y-81000000D03*
X90500000Y-47000000D03*
X90000000Y-84750000D03*
X119187500Y-74100000D03*
X125250000Y-74000000D03*
X82250000Y-35000000D03*
X117687500Y-74850000D03*
X128250000Y-83500000D03*
X106100000Y-61000000D03*
X67750000Y-96250000D03*
X61500000Y-62750000D03*
X137250000Y-80250000D03*
X137250000Y-78750000D03*
X85750000Y-53750000D03*
X98750000Y-65250000D03*
X109000000Y-66000000D03*
X126800000Y-97550000D03*
X123750000Y-74000000D03*
X94750000Y-64000000D03*
X92500000Y-96000000D03*
X133500000Y-56000000D03*
X88250000Y-46250000D03*
X53750000Y-86750000D03*
X91000000Y-91500000D03*
X133500000Y-55250000D03*
X108600000Y-94200000D03*
X89500000Y-47750000D03*
X90000000Y-53750000D03*
X119187500Y-73350000D03*
X134250000Y-51000000D03*
X88250000Y-44250000D03*
X92000000Y-38250000D03*
X123000000Y-74000000D03*
X88250000Y-42750000D03*
X88250000Y-43500000D03*
X113538604Y-59500000D03*
X92250000Y-61500000D03*
X90000000Y-85500000D03*
X134250000Y-50250000D03*
X88250000Y-83750000D03*
X114750000Y-93535000D03*
X119187500Y-74850000D03*
X94750000Y-58750000D03*
X58750000Y-61750000D03*
X115500000Y-35000000D03*
X73400000Y-93800000D03*
X52000000Y-79000000D03*
X81500000Y-35000000D03*
X115500000Y-34250000D03*
X98500000Y-87000000D03*
X83200000Y-95500000D03*
X129000000Y-54250000D03*
X99400000Y-62600000D03*
X126750000Y-82750000D03*
X97500000Y-73250000D03*
X90500000Y-90000000D03*
X106800000Y-90850000D03*
X99400000Y-61900000D03*
X60750000Y-74750000D03*
X55000000Y-80250000D03*
X105500000Y-61000000D03*
X76200000Y-92000000D03*
X89500000Y-48500000D03*
X67250000Y-97750000D03*
X126000000Y-74000000D03*
X73400000Y-92800000D03*
X115500000Y-38250000D03*
X98250000Y-42000000D03*
X119500000Y-65500000D03*
X54000000Y-75000000D03*
X109000000Y-66750000D03*
X119500000Y-67000000D03*
X91250000Y-38250000D03*
X118437500Y-74850000D03*
X101000000Y-97250000D03*
X100250000Y-40000000D03*
X69250000Y-92175000D03*
X89000000Y-96000000D03*
X92500000Y-35250000D03*
X70500000Y-93675000D03*
X132000000Y-57000000D03*
X132000000Y-88000000D03*
X128000000Y-80500000D03*
X71750000Y-93675000D03*
X92750000Y-38250000D03*
X101750000Y-50000000D03*
X80750000Y-35000000D03*
X100500000Y-92450000D03*
X57750000Y-74750000D03*
X58000000Y-67750000D03*
X91250000Y-36500000D03*
X100250000Y-79750000D03*
X77750000Y-61500000D03*
X92500000Y-34500000D03*
X109000000Y-68250000D03*
X106700000Y-61000000D03*
X137250000Y-79500000D03*
X74500000Y-84250000D03*
X90500000Y-89250000D03*
X57750000Y-60250000D03*
X81250000Y-40250000D03*
X90250000Y-49250000D03*
X104900000Y-61000000D03*
X55000000Y-74000000D03*
X88750000Y-68000000D03*
X99250000Y-42750000D03*
X102850000Y-92450000D03*
X101750000Y-44500000D03*
X66000000Y-94600000D03*
X102000000Y-46250000D03*
X113538604Y-60400000D03*
X53750000Y-86000000D03*
X70500000Y-92175000D03*
X119500000Y-64000000D03*
X109000000Y-69750000D03*
X134250000Y-47250000D03*
X131000000Y-85500000D03*
X58000000Y-67000000D03*
X81750000Y-38500000D03*
X113538604Y-58700000D03*
X52000000Y-84000000D03*
X99500000Y-79750000D03*
X130750000Y-89250000D03*
X127500000Y-83500000D03*
X134250000Y-48750000D03*
X60500000Y-61750000D03*
X98000000Y-79750000D03*
X109000000Y-69000000D03*
X124500000Y-74000000D03*
X80500000Y-40750000D03*
X77000000Y-61500000D03*
X98800000Y-61900000D03*
X92500000Y-95250000D03*
X87250000Y-51250000D03*
X104300000Y-61000000D03*
X60250000Y-85000000D03*
X81049997Y-38500000D03*
X69250000Y-93675000D03*
X58750000Y-84750000D03*
X55000000Y-82750000D03*
X89000000Y-83750000D03*
X108350000Y-92950000D03*
X55000000Y-79000000D03*
X101750000Y-49250000D03*
X77750000Y-57000000D03*
X134250000Y-49500000D03*
X114750000Y-35000000D03*
X126750000Y-81750000D03*
X88250000Y-47000000D03*
X99231000Y-87000000D03*
X132750000Y-57000000D03*
X91000000Y-49250000D03*
X113538604Y-57750000D03*
X88750000Y-70000000D03*
X93250000Y-60000000D03*
X130750000Y-88500000D03*
X76800000Y-88150000D03*
X116250000Y-35000000D03*
X61500000Y-65750000D03*
X104600000Y-92250000D03*
X106850000Y-91700000D03*
X71750000Y-92925000D03*
X131250000Y-88000000D03*
X113538604Y-61250000D03*
X71750000Y-92175000D03*
X108600000Y-94950000D03*
X96750000Y-63250000D03*
X110238604Y-59400000D03*
X100250000Y-80500000D03*
X98750000Y-79750000D03*
X108100000Y-89750000D03*
X122250000Y-74000000D03*
X88000000Y-56750000D03*
X91000000Y-90750000D03*
X100250000Y-38500000D03*
X84200000Y-95500000D03*
X119500000Y-67750000D03*
X113250000Y-94535000D03*
X131750000Y-86250000D03*
X102600000Y-96000000D03*
X115250000Y-40750000D03*
X119500000Y-66250000D03*
X101250000Y-46000000D03*
X65200000Y-94600000D03*
X125000000Y-54250000D03*
X108350000Y-92200000D03*
X103700000Y-61000000D03*
X101750000Y-43000000D03*
X96750000Y-65250000D03*
X131000000Y-80500000D03*
X133500000Y-56750000D03*
X114000000Y-93535000D03*
X85200000Y-95500000D03*
X132750000Y-87750000D03*
X86500000Y-51250000D03*
X77000000Y-83250000D03*
X69250000Y-92925000D03*
X97750000Y-87000000D03*
X98800000Y-62600000D03*
X91250000Y-37250000D03*
X57750000Y-61000000D03*
X99000000Y-42000000D03*
X131000000Y-86250000D03*
X89000000Y-97250000D03*
X52000000Y-82790000D03*
X90500000Y-88500000D03*
X127500000Y-97550000D03*
X101750000Y-43750000D03*
%TO.N,VBUS_SENSE*%
X91250000Y-72250000D03*
X92750000Y-66000000D03*
%TO.N,BUZZER_5V*%
X92000000Y-87500000D03*
X98250000Y-88750000D03*
%TO.N,VCC*%
X72500000Y-85250000D03*
X72500000Y-87500000D03*
X106000000Y-72500000D03*
X101419236Y-76535356D03*
X119750000Y-71500000D03*
X81232059Y-79532059D03*
X98000000Y-76500000D03*
X85401729Y-75362390D03*
X121500000Y-71500000D03*
X79750000Y-81550000D03*
%TO.N,3V3_STANDBY*%
X98000000Y-61350000D03*
X100900000Y-57650000D03*
X92600000Y-51000000D03*
X97824265Y-50975735D03*
%TO.N,DISP_SCK_5V*%
X97250000Y-89000000D03*
%TO.N,DISP_CS*%
X94150000Y-74500000D03*
X96500000Y-75750000D03*
%TO.N,BUZZER*%
X94150000Y-78700735D03*
X94018329Y-80536657D03*
%TO.N,DISP_MOSI_5V*%
X96650000Y-90750000D03*
%TO.N,DISP_CS_5V*%
X96050000Y-90000000D03*
%TO.N,DISP_VCOM_5V*%
X95650000Y-91500000D03*
%TO.N,5V0*%
X67250000Y-94500000D03*
X93750000Y-92000000D03*
X78200000Y-94600000D03*
X82000000Y-76750000D03*
X86500000Y-81250000D03*
%TO.N,3V3*%
X114469669Y-72469669D03*
X81000000Y-47400000D03*
X129550000Y-81500000D03*
X82300000Y-44600000D03*
X114500000Y-74750000D03*
X63850000Y-84250000D03*
X107700000Y-42900000D03*
X62650000Y-84250000D03*
X70700000Y-64900000D03*
X124600000Y-89750000D03*
X82300000Y-43400000D03*
X72750000Y-79500000D03*
X111700000Y-42800000D03*
X80517893Y-55182107D03*
X116926017Y-89676017D03*
X72250000Y-81550000D03*
X107700000Y-44100000D03*
X72400000Y-63150000D03*
X116425000Y-47800000D03*
X129500000Y-78000000D03*
%TO.N,LED_PWR*%
X90997017Y-59741051D03*
X83500000Y-58250000D03*
%TO.N,Net-(SW1-SW1)*%
X108600000Y-50100000D03*
X117500000Y-48500000D03*
%TO.N,Net-(C39-Pad1)*%
X51530000Y-68330000D03*
X54500000Y-68500000D03*
%TO.N,Net-(SW2-SW1)*%
X79767894Y-54432108D03*
X82300000Y-50800000D03*
%TO.N,STANDBY_SENSE*%
X92250000Y-73250000D03*
X94512744Y-70987256D03*
%TO.N,CHARGE_SENSE*%
X92000000Y-66400000D03*
X91250000Y-73250000D03*
%TO.N,BLE_P1_7*%
X118600000Y-90516250D03*
X124750000Y-90766250D03*
%TO.N,~{BLE_RST}*%
X113917892Y-78100000D03*
X113375000Y-76100000D03*
%TO.N,BLE_P2_0*%
X112450735Y-76100000D03*
X112459090Y-80540910D03*
%TO.N,5V_EN*%
X90924783Y-64000000D03*
X96474783Y-71025217D03*
%TO.N,Net-(J7-Pad3)*%
X68500000Y-82462500D03*
X68250000Y-79500000D03*
%TO.N,DEBUG_UART_PC_TO_MCU*%
X69950735Y-65950735D03*
X75000000Y-62750000D03*
%TO.N,DEBUG_UART_MCU_TO_PC*%
X74203652Y-62673619D03*
X71500000Y-65250000D03*
%TO.N,SWO*%
X89163235Y-72238235D03*
X95750000Y-72000000D03*
%TO.N,EEPROM_SDA*%
X118250000Y-78750000D03*
X114136367Y-78869593D03*
%TO.N,EEPROM_SCL*%
X114703713Y-79433615D03*
X118799265Y-79450735D03*
%TO.N,TEMP_SENSE_EXT*%
X74000000Y-66000000D03*
X75750000Y-63150000D03*
%TO.N,~{CHARGE_EN}*%
X92815687Y-73815687D03*
X95078431Y-71552944D03*
%TO.N,ENC_1SW*%
X99500000Y-46100000D03*
X97000000Y-47750000D03*
%TO.N,ENC_1A*%
X94650000Y-54022793D03*
X97250000Y-52750000D03*
%TO.N,ENC_2SW*%
X92150000Y-55250000D03*
X90750000Y-45500000D03*
X93000000Y-47750000D03*
X93000000Y-58250000D03*
%TO.N,ENC_1B*%
X96520392Y-52421862D03*
X93662132Y-54162132D03*
%TO.N,LED_STATUS*%
X85250000Y-60500000D03*
X91250000Y-60500000D03*
%TO.N, ~{3v3_EN}*%
X104000000Y-65200000D03*
X101650000Y-67500000D03*
X91524783Y-65000000D03*
X94100000Y-66099999D03*
%TD*%
%TO.N,DISP_ON_5V*%
D21*
X95250000Y-92250000D02*
X95000000Y-92000000D01*
X95250000Y-94750000D02*
X95250000Y-93370000D01*
X95250000Y-93370000D02*
X95250000Y-92250000D01*
%TO.N,VBUS_SENSE*%
X92750000Y-70750000D02*
X91250000Y-72250000D01*
X92750000Y-66000000D02*
X92750000Y-70750000D01*
%TO.N,BUZZER_5V*%
D22*
X92000000Y-87500000D02*
X97000000Y-87500000D01*
X97000000Y-87500000D02*
X98250000Y-88750000D01*
%TO.N,VCC*%
X101964644Y-76535356D02*
X101419236Y-76535356D01*
X121500000Y-71500000D02*
X119750000Y-71500000D01*
X106000000Y-72500000D02*
X101964644Y-76535356D01*
X79750000Y-81014118D02*
X81232059Y-79532059D01*
X98000000Y-76500000D02*
X86539339Y-76500000D01*
X79750000Y-81550000D02*
X79750000Y-81014118D01*
X72500000Y-87500000D02*
X72500000Y-85250000D01*
X86539339Y-76500000D02*
X85401729Y-75362390D01*
%TO.N,3V3_STANDBY*%
X98000000Y-61350000D02*
X98000000Y-60550000D01*
X92624265Y-50975735D02*
X92600000Y-51000000D01*
X98000000Y-60550000D02*
X100900000Y-57650000D01*
X97824265Y-50975735D02*
X92624265Y-50975735D01*
%TO.N,DISP_SCK_5V*%
D21*
X97250000Y-93370000D02*
X97250000Y-89000000D01*
%TO.N,DISP_CS*%
X95250000Y-74500000D02*
X96500000Y-75750000D01*
X94150000Y-74500000D02*
X95250000Y-74500000D01*
%TO.N,BUZZER*%
X94018329Y-78832406D02*
X94150000Y-78700735D01*
X94018329Y-80536657D02*
X94018329Y-78832406D01*
%TO.N,DISP_MOSI_5V*%
X96750000Y-90850000D02*
X96650000Y-90750000D01*
X96750000Y-93370000D02*
X96750000Y-90850000D01*
%TO.N,DISP_CS_5V*%
X96250000Y-91198529D02*
X96050000Y-90998529D01*
X96250000Y-93370000D02*
X96250000Y-91198529D01*
X96050000Y-90998529D02*
X96050000Y-90000000D01*
%TO.N,DISP_VCOM_5V*%
X95750000Y-91600000D02*
X95750000Y-93370000D01*
X95650000Y-91500000D02*
X95750000Y-91600000D01*
%TO.N,5V0*%
X94250000Y-93370000D02*
X93750000Y-93370000D01*
D22*
X70500000Y-94500000D02*
X67250000Y-94500000D01*
X70500000Y-94500000D02*
X70600000Y-94600000D01*
D23*
X93750000Y-93370000D02*
X93750000Y-92000000D01*
D22*
X86500000Y-81250000D02*
X82000000Y-76750000D01*
D21*
X94750000Y-93370000D02*
X94250000Y-93370000D01*
D22*
X70600000Y-94600000D02*
X78200000Y-94600000D01*
%TO.N,3V3*%
X70700000Y-64850000D02*
X72400000Y-63150000D01*
X81000000Y-47400000D02*
X83100000Y-49500000D01*
X62650000Y-84250000D02*
X63850000Y-84250000D01*
X72750000Y-79500000D02*
X72750000Y-81000000D01*
X72250000Y-81550000D02*
X72250000Y-81500000D01*
X107700000Y-44100000D02*
X107700000Y-42900000D01*
X72250000Y-81500000D02*
X72750000Y-81000000D01*
X114500000Y-72500000D02*
X114469669Y-72469669D01*
X82300000Y-44600000D02*
X82300000Y-43400000D01*
X116425000Y-47525000D02*
X111700000Y-42800000D01*
X129500000Y-78000000D02*
X129500000Y-81450000D01*
X124600000Y-89750000D02*
X117000000Y-89750000D01*
X70700000Y-64900000D02*
X70700000Y-64850000D01*
X83100000Y-49500000D02*
X83100000Y-52600000D01*
X116425000Y-47800000D02*
X116425000Y-47525000D01*
X83100000Y-52600000D02*
X80517893Y-55182107D01*
X129500000Y-81450000D02*
X129550000Y-81500000D01*
X114500000Y-74750000D02*
X114500000Y-72500000D01*
X117000000Y-89750000D02*
X116926017Y-89676017D01*
%TO.N,LED_PWR*%
D21*
X90997017Y-59741051D02*
X84991051Y-59741051D01*
X84991051Y-59741051D02*
X83500000Y-58250000D01*
%TO.N,Net-(SW1-SW1)*%
X109100000Y-50100000D02*
X108600000Y-50100000D01*
X112250000Y-50250000D02*
X114000000Y-48500000D01*
X109250000Y-50250000D02*
X112250000Y-50250000D01*
X109250000Y-50250000D02*
X109100000Y-50100000D01*
X117500000Y-48500000D02*
X114000000Y-48500000D01*
%TO.N,Net-(C39-Pad1)*%
X54330000Y-68330000D02*
X51530000Y-68330000D01*
X54500000Y-68500000D02*
X54330000Y-68330000D01*
%TO.N,Net-(SW2-SW1)*%
X82300000Y-50800000D02*
X82300000Y-51900002D01*
X82300000Y-51900002D02*
X79767894Y-54432108D01*
%TO.N,STANDBY_SENSE*%
X94512744Y-70987256D02*
X92250000Y-73250000D01*
%TO.N,CHARGE_SENSE*%
X90650000Y-71850000D02*
X92000000Y-70500000D01*
X92000000Y-70500000D02*
X92000000Y-66400000D01*
X90650000Y-72650000D02*
X90650000Y-71850000D01*
X91250000Y-73250000D02*
X90650000Y-72650000D01*
%TO.N,BLE_P1_7*%
X124750000Y-90766250D02*
X118850000Y-90766250D01*
X118850000Y-90766250D02*
X118600000Y-90516250D01*
%TO.N,~{BLE_RST}*%
X113375000Y-76100000D02*
X113375000Y-76125000D01*
X113375000Y-76125000D02*
X113917892Y-76667892D01*
X113917892Y-76667892D02*
X113917892Y-78100000D01*
%TO.N,BLE_P2_0*%
X112459090Y-76108355D02*
X112450735Y-76100000D01*
X112459090Y-80540910D02*
X112459090Y-76108355D01*
%TO.N,5V_EN*%
X96500000Y-67651471D02*
X92848529Y-64000000D01*
X96500000Y-71000000D02*
X96500000Y-67651471D01*
X96474783Y-71025217D02*
X96500000Y-71000000D01*
X92848529Y-64000000D02*
X90924783Y-64000000D01*
%TO.N,Net-(J7-Pad3)*%
X68500000Y-79750000D02*
X68250000Y-79500000D01*
X68500000Y-82462500D02*
X68500000Y-79750000D01*
%TO.N,DEBUG_UART_PC_TO_MCU*%
X70000000Y-66000000D02*
X69950735Y-65950735D01*
X75000000Y-62750000D02*
X71750000Y-66000000D01*
X71750000Y-66000000D02*
X70000000Y-66000000D01*
%TO.N,DEBUG_UART_MCU_TO_PC*%
X71627271Y-65250000D02*
X71500000Y-65250000D01*
X74203652Y-62673619D02*
X71627271Y-65250000D01*
%TO.N,SWO*%
X93250000Y-74500000D02*
X91425000Y-74500000D01*
X91425000Y-74500000D02*
X89163235Y-72238235D01*
X95750000Y-72000000D02*
X93250000Y-74500000D01*
%TO.N,EEPROM_SDA*%
X118250000Y-78750000D02*
X114255960Y-78750000D01*
X114255960Y-78750000D02*
X114136367Y-78869593D01*
%TO.N,EEPROM_SCL*%
X118799265Y-79450735D02*
X118782145Y-79433615D01*
X118782145Y-79433615D02*
X114703713Y-79433615D01*
%TO.N,TEMP_SENSE_EXT*%
X74000000Y-66000000D02*
X75750000Y-64250000D01*
X75750000Y-64250000D02*
X75750000Y-63150000D01*
%TO.N,~{CHARGE_EN}*%
X92815687Y-73815687D02*
X95078431Y-71552944D01*
%TO.N,ENC_1SW*%
X97000000Y-47750000D02*
X97850000Y-47750000D01*
X97850000Y-47750000D02*
X99500000Y-46100000D01*
%TO.N,ENC_1A*%
X95977207Y-54022793D02*
X97250000Y-52750000D01*
X94650000Y-54022793D02*
X95977207Y-54022793D01*
%TO.N,ENC_2SW*%
X93000000Y-47750000D02*
X90750000Y-45500000D01*
X92150000Y-57400000D02*
X92150000Y-55250000D01*
X93000000Y-58250000D02*
X92150000Y-57400000D01*
%TO.N,ENC_1B*%
X95402402Y-52421862D02*
X96520392Y-52421862D01*
X93662132Y-54162132D02*
X95402402Y-52421862D01*
%TO.N,LED_STATUS*%
X91250000Y-60500000D02*
X85250000Y-60500000D01*
%TO.N, ~{3v3_EN}*%
X101700000Y-67500000D02*
X101650000Y-67500000D01*
X93000000Y-65000000D02*
X94100000Y-66099999D01*
X104000000Y-65200000D02*
X101700000Y-67500000D01*
X91524783Y-65000000D02*
X93000000Y-65000000D01*
%TD*%
M02*
