%TF.GenerationSoftware,KiCad,Pcbnew,10.0.1*%
%TF.CreationDate,2026-06-12T17:09:59+02:00*%
%TF.ProjectId,InclinationMeter,496e636c-696e-4617-9469-6f6e4d657465,rev?*%
%TF.SameCoordinates,Original*%
%TF.FileFunction,Copper,L3,Inr*%
%TF.FilePolarity,Positive*%
%FSLAX46Y46*%
G04 Gerber Fmt 4.6, Leading zero omitted, Abs format (unit mm)*
G04 Created by KiCad (PCBNEW 10.0.1) date 2026-06-12 17:09:59*
%MOMM*%
%LPD*%
G01*
G04 APERTURE LIST*
G04 Aperture macros list*
%AMFreePoly0*
4,1,5,1.500000,-2.000000,-1.500000,-2.000000,-1.500000,2.000000,1.500000,2.000000,1.500000,-2.000000,1.500000,-2.000000,$1*%
G04 Aperture macros list end*
%TA.AperFunction,ComponentPad*%
%ADD10R,1.500000X1.500000*%
%TD*%
%TA.AperFunction,ComponentPad*%
%ADD11C,1.500000*%
%TD*%
%TA.AperFunction,ComponentPad*%
%ADD12C,3.600000*%
%TD*%
%TA.AperFunction,ComponentPad*%
%ADD13C,1.700000*%
%TD*%
%TA.AperFunction,ComponentPad*%
%ADD14R,1.700000X1.700000*%
%TD*%
%TA.AperFunction,ComponentPad*%
%ADD15FreePoly0,90.000000*%
%TD*%
%TA.AperFunction,ComponentPad*%
%ADD16FreePoly0,270.000000*%
%TD*%
%TA.AperFunction,ViaPad*%
%ADD17C,0.600000*%
%TD*%
G04 APERTURE END LIST*
D10*
%TO.N,5V0*%
%TO.C,J7*%
X61700000Y-97250000D03*
D11*
%TO.N,GND*%
X61700000Y-95250000D03*
%TO.N,Net-(J7-Pad3)*%
X61700000Y-93250000D03*
%TD*%
D12*
%TO.N,GND*%
%TO.C,H2*%
X54000000Y-34000000D03*
%TD*%
%TO.N,GND*%
%TO.C,H3*%
X136000000Y-34000000D03*
%TD*%
%TO.N,GND*%
%TO.C,H4*%
X54000000Y-96000000D03*
%TD*%
%TO.N,GND*%
%TO.C,H1*%
X136000000Y-96000000D03*
%TD*%
D10*
%TO.N,BAT+*%
%TO.C,J1*%
X137430000Y-73250000D03*
D11*
%TO.N,BAT-*%
X137430000Y-75250000D03*
%TD*%
D13*
%TO.N,Net-(SW1-A)*%
%TO.C,SW1*%
X110500000Y-49000000D03*
D14*
%TO.N,GND*%
X110500000Y-46500000D03*
D13*
%TO.N,Net-(SW1-B)*%
X110500000Y-44000000D03*
%TO.N,Net-(SW1-SW1)*%
X125000000Y-49000000D03*
%TO.N,GND*%
X125000000Y-44000000D03*
D15*
X118000000Y-52300000D03*
X118000000Y-40700000D03*
%TD*%
D13*
%TO.N,Net-(SW2-A)*%
%TO.C,SW2*%
X79500000Y-44000000D03*
D14*
%TO.N,GND*%
X79500000Y-46500000D03*
D13*
%TO.N,Net-(SW2-B)*%
X79500000Y-49000000D03*
%TO.N,Net-(SW2-SW1)*%
X65000000Y-44000000D03*
%TO.N,GND*%
X65000000Y-49000000D03*
D16*
X72000000Y-40700000D03*
X72000000Y-52300000D03*
%TD*%
D17*
%TO.N,DISP_ON_5V*%
X95000000Y-92000000D03*
X95250000Y-94750000D03*
%TO.N,GND*%
X56500000Y-84000000D03*
X103600000Y-92450000D03*
X67250000Y-97000000D03*
X107350000Y-89750000D03*
X132500000Y-86250000D03*
X75500000Y-70250000D03*
X71250000Y-97000000D03*
X113250000Y-95285000D03*
X73400000Y-91800000D03*
X119500000Y-64750000D03*
X99250000Y-75250000D03*
X100250000Y-39250000D03*
X97500000Y-42000000D03*
X134250000Y-48000000D03*
X52000000Y-80250000D03*
X76250000Y-61500000D03*
X137250000Y-81000000D03*
X90500000Y-47000000D03*
X90000000Y-84750000D03*
X119187500Y-74100000D03*
X125250000Y-74000000D03*
X82250000Y-35000000D03*
X117687500Y-74850000D03*
X128250000Y-83500000D03*
X106100000Y-61000000D03*
X67750000Y-96250000D03*
X61500000Y-62750000D03*
X137250000Y-80250000D03*
X137250000Y-78750000D03*
X85750000Y-53750000D03*
X98750000Y-65250000D03*
X109000000Y-66000000D03*
X126800000Y-97550000D03*
X123750000Y-74000000D03*
X94750000Y-64000000D03*
X92500000Y-96000000D03*
X133500000Y-56000000D03*
X88250000Y-46250000D03*
X53750000Y-86750000D03*
X91000000Y-91500000D03*
X133500000Y-55250000D03*
X108600000Y-94200000D03*
X89500000Y-47750000D03*
X90000000Y-53750000D03*
X119187500Y-73350000D03*
X134250000Y-51000000D03*
X88250000Y-44250000D03*
X92000000Y-38250000D03*
X123000000Y-74000000D03*
X88250000Y-42750000D03*
X88250000Y-43500000D03*
X113538604Y-59500000D03*
X92250000Y-61500000D03*
X90000000Y-85500000D03*
X134250000Y-50250000D03*
X88250000Y-83750000D03*
X114750000Y-93535000D03*
X119187500Y-74850000D03*
X94750000Y-58750000D03*
X58750000Y-61750000D03*
X115500000Y-35000000D03*
X73400000Y-93800000D03*
X52000000Y-79000000D03*
X81500000Y-35000000D03*
X115500000Y-34250000D03*
X98500000Y-87000000D03*
X83200000Y-95500000D03*
X129000000Y-54250000D03*
X99400000Y-62600000D03*
X126750000Y-82750000D03*
X97500000Y-73250000D03*
X90500000Y-90000000D03*
X106800000Y-90850000D03*
X99400000Y-61900000D03*
X60750000Y-74750000D03*
X55000000Y-80250000D03*
X105500000Y-61000000D03*
X76200000Y-92000000D03*
X89500000Y-48500000D03*
X67250000Y-97750000D03*
X126000000Y-74000000D03*
X73400000Y-92800000D03*
X115500000Y-38250000D03*
X98250000Y-42000000D03*
X119500000Y-65500000D03*
X54000000Y-75000000D03*
X109000000Y-66750000D03*
X119500000Y-67000000D03*
X91250000Y-38250000D03*
X118437500Y-74850000D03*
X101000000Y-97250000D03*
X100250000Y-40000000D03*
X69250000Y-92175000D03*
X89000000Y-96000000D03*
X92500000Y-35250000D03*
X70500000Y-93675000D03*
X132000000Y-57000000D03*
X132000000Y-88000000D03*
X128000000Y-80500000D03*
X71750000Y-93675000D03*
X92750000Y-38250000D03*
X101750000Y-50000000D03*
X80750000Y-35000000D03*
X100500000Y-92450000D03*
X57750000Y-74750000D03*
X58000000Y-67750000D03*
X91250000Y-36500000D03*
X100250000Y-79750000D03*
X77750000Y-61500000D03*
X92500000Y-34500000D03*
X109000000Y-68250000D03*
X106700000Y-61000000D03*
X137250000Y-79500000D03*
X74500000Y-84250000D03*
X90500000Y-89250000D03*
X57750000Y-60250000D03*
X81250000Y-40250000D03*
X90250000Y-49250000D03*
X104900000Y-61000000D03*
X55000000Y-74000000D03*
X88750000Y-68000000D03*
X99250000Y-42750000D03*
X102850000Y-92450000D03*
X101750000Y-44500000D03*
X66000000Y-94600000D03*
X102000000Y-46250000D03*
X113538604Y-60400000D03*
X53750000Y-86000000D03*
X70500000Y-92175000D03*
X119500000Y-64000000D03*
X109000000Y-69750000D03*
X134250000Y-47250000D03*
X131000000Y-85500000D03*
X58000000Y-67000000D03*
X81750000Y-38500000D03*
X113538604Y-58700000D03*
X52000000Y-84000000D03*
X99500000Y-79750000D03*
X130750000Y-89250000D03*
X127500000Y-83500000D03*
X134250000Y-48750000D03*
X60500000Y-61750000D03*
X98000000Y-79750000D03*
X109000000Y-69000000D03*
X124500000Y-74000000D03*
X80500000Y-40750000D03*
X77000000Y-61500000D03*
X98800000Y-61900000D03*
X92500000Y-95250000D03*
X87250000Y-51250000D03*
X104300000Y-61000000D03*
X60250000Y-85000000D03*
X81049997Y-38500000D03*
X69250000Y-93675000D03*
X58750000Y-84750000D03*
X55000000Y-82750000D03*
X89000000Y-83750000D03*
X108350000Y-92950000D03*
X55000000Y-79000000D03*
X101750000Y-49250000D03*
X77750000Y-57000000D03*
X134250000Y-49500000D03*
X114750000Y-35000000D03*
X126750000Y-81750000D03*
X88250000Y-47000000D03*
X99231000Y-87000000D03*
X132750000Y-57000000D03*
X91000000Y-49250000D03*
X113538604Y-57750000D03*
X88750000Y-70000000D03*
X93250000Y-60000000D03*
X130750000Y-88500000D03*
X76800000Y-88150000D03*
X116250000Y-35000000D03*
X61500000Y-65750000D03*
X104600000Y-92250000D03*
X106850000Y-91700000D03*
X71750000Y-92925000D03*
X131250000Y-88000000D03*
X113538604Y-61250000D03*
X71750000Y-92175000D03*
X108600000Y-94950000D03*
X96750000Y-63250000D03*
X110238604Y-59400000D03*
X100250000Y-80500000D03*
X98750000Y-79750000D03*
X108100000Y-89750000D03*
X122250000Y-74000000D03*
X88000000Y-56750000D03*
X91000000Y-90750000D03*
X100250000Y-38500000D03*
X84200000Y-95500000D03*
X119500000Y-67750000D03*
X113250000Y-94535000D03*
X131750000Y-86250000D03*
X102600000Y-96000000D03*
X115250000Y-40750000D03*
X119500000Y-66250000D03*
X101250000Y-46000000D03*
X65200000Y-94600000D03*
X125000000Y-54250000D03*
X108350000Y-92200000D03*
X103700000Y-61000000D03*
X101750000Y-43000000D03*
X96750000Y-65250000D03*
X131000000Y-80500000D03*
X133500000Y-56750000D03*
X114000000Y-93535000D03*
X85200000Y-95500000D03*
X132750000Y-87750000D03*
X86500000Y-51250000D03*
X77000000Y-83250000D03*
X69250000Y-92925000D03*
X97750000Y-87000000D03*
X98800000Y-62600000D03*
X91250000Y-37250000D03*
X57750000Y-61000000D03*
X99000000Y-42000000D03*
X131000000Y-86250000D03*
X89000000Y-97250000D03*
X52000000Y-82790000D03*
X90500000Y-88500000D03*
X127500000Y-97550000D03*
X101750000Y-43750000D03*
%TO.N,VBUS_SENSE*%
X91250000Y-72250000D03*
X92750000Y-66000000D03*
%TO.N,BUZZER_5V*%
X92000000Y-87500000D03*
X98250000Y-88750000D03*
%TO.N,VCC*%
X72500000Y-85250000D03*
X72500000Y-87500000D03*
X106000000Y-72500000D03*
X101419236Y-76535356D03*
X119750000Y-71500000D03*
X81232059Y-79532059D03*
X98000000Y-76500000D03*
X85401729Y-75362390D03*
X121500000Y-71500000D03*
X79750000Y-81550000D03*
%TO.N,3V3_STANDBY*%
X98000000Y-61350000D03*
X100900000Y-57650000D03*
X92600000Y-51000000D03*
X97824265Y-50975735D03*
%TO.N,DISP_SCK_5V*%
X97250000Y-89000000D03*
%TO.N,DISP_CS*%
X94150000Y-74500000D03*
X96500000Y-75750000D03*
%TO.N,BUZZER*%
X94150000Y-78700735D03*
X94018329Y-80536657D03*
%TO.N,DISP_MOSI_5V*%
X96650000Y-90750000D03*
%TO.N,DISP_CS_5V*%
X96050000Y-90000000D03*
%TO.N,DISP_VCOM_5V*%
X95650000Y-91500000D03*
%TO.N,5V0*%
X67250000Y-94500000D03*
X93750000Y-92000000D03*
X78200000Y-94600000D03*
X82000000Y-76750000D03*
X86500000Y-81250000D03*
%TO.N,3V3*%
X114469669Y-72469669D03*
X81000000Y-47400000D03*
X129550000Y-81500000D03*
X82300000Y-44600000D03*
X114500000Y-74750000D03*
X63850000Y-84250000D03*
X107700000Y-42900000D03*
X62650000Y-84250000D03*
X70700000Y-64900000D03*
X124600000Y-89750000D03*
X82300000Y-43400000D03*
X72750000Y-79500000D03*
X111700000Y-42800000D03*
X80517893Y-55182107D03*
X116926017Y-89676017D03*
X72250000Y-81550000D03*
X107700000Y-44100000D03*
X72400000Y-63150000D03*
X116425000Y-47800000D03*
X129500000Y-78000000D03*
%TO.N,LED_PWR*%
X90997017Y-59741051D03*
X83500000Y-58250000D03*
%TO.N,Net-(SW1-SW1)*%
X108600000Y-50100000D03*
X117500000Y-48500000D03*
%TO.N,Net-(C39-Pad1)*%
X51530000Y-68330000D03*
X54500000Y-68500000D03*
%TO.N,Net-(SW2-SW1)*%
X79767894Y-54432108D03*
X82300000Y-50800000D03*
%TO.N,STANDBY_SENSE*%
X92250000Y-73250000D03*
X94512744Y-70987256D03*
%TO.N,CHARGE_SENSE*%
X92000000Y-66400000D03*
X91250000Y-73250000D03*
%TO.N,BLE_P1_7*%
X118600000Y-90516250D03*
X124750000Y-90766250D03*
%TO.N,~{BLE_RST}*%
X113917892Y-78100000D03*
X113375000Y-76100000D03*
%TO.N,BLE_P2_0*%
X112450735Y-76100000D03*
X112459090Y-80540910D03*
%TO.N,5V_EN*%
X90924783Y-64000000D03*
X96474783Y-71025217D03*
%TO.N,Net-(J7-Pad3)*%
X68500000Y-82462500D03*
X68250000Y-79500000D03*
%TO.N,DEBUG_UART_PC_TO_MCU*%
X69950735Y-65950735D03*
X75000000Y-62750000D03*
%TO.N,DEBUG_UART_MCU_TO_PC*%
X74203652Y-62673619D03*
X71500000Y-65250000D03*
%TO.N,SWO*%
X89163235Y-72238235D03*
X95750000Y-72000000D03*
%TO.N,EEPROM_SDA*%
X118250000Y-78750000D03*
X114136367Y-78869593D03*
%TO.N,EEPROM_SCL*%
X114703713Y-79433615D03*
X118799265Y-79450735D03*
%TO.N,TEMP_SENSE_EXT*%
X74000000Y-66000000D03*
X75750000Y-63150000D03*
%TO.N,~{CHARGE_EN}*%
X92815687Y-73815687D03*
X95078431Y-71552944D03*
%TO.N,ENC_1SW*%
X99500000Y-46100000D03*
X97000000Y-47750000D03*
%TO.N,ENC_1A*%
X94650000Y-54022793D03*
X97250000Y-52750000D03*
%TO.N,ENC_2SW*%
X92150000Y-55250000D03*
X90750000Y-45500000D03*
X93000000Y-47750000D03*
X93000000Y-58250000D03*
%TO.N,ENC_1B*%
X96520392Y-52421862D03*
X93662132Y-54162132D03*
%TO.N,LED_STATUS*%
X85250000Y-60500000D03*
X91250000Y-60500000D03*
%TO.N, ~{3v3_EN}*%
X104000000Y-65200000D03*
X101650000Y-67500000D03*
X91524783Y-65000000D03*
X94100000Y-66099999D03*
%TD*%
M02*
