M48
; DRILL file KiCad 10.0.1 date 2026-06-06T21:25:02
; FORMAT={-:-/ absolute / metric / decimal}
; #@! TF.CreationDate,2026-06-06T21:25:02+02:00
; #@! TF.GenerationSoftware,Kicad,Pcbnew,10.0.1
; #@! TF.FileFunction,Plated,1,4,PTH
FMAT,2
METRIC
; #@! TA.AperFunction,Plated,PTH,ViaDrill
T1C0.300
; #@! TA.AperFunction,Plated,PTH,ComponentDrill
T2C0.800
; #@! TA.AperFunction,Plated,PTH,ComponentDrill
T3C1.100
; #@! TA.AperFunction,Plated,PTH,ComponentDrill
T4C2.000
; #@! TA.AperFunction,Plated,PTH,ComponentDrill
T5C3.200
%
G90
G05
T1
X51.53Y-68.33
X52.0Y-79.0
X52.0Y-80.25
X52.0Y-82.79
X52.0Y-84.0
X53.75Y-86.0
X53.75Y-86.75
X54.0Y-75.0
X54.5Y-68.5
X55.0Y-74.0
X55.0Y-79.0
X55.0Y-80.25
X55.0Y-82.75
X56.5Y-84.0
X57.75Y-60.25
X57.75Y-61.0
X57.75Y-74.75
X58.0Y-67.0
X58.0Y-67.75
X58.75Y-61.75
X58.75Y-84.75
X60.25Y-85.0
X60.5Y-61.75
X60.75Y-74.75
X61.5Y-62.75
X61.5Y-65.75
X62.65Y-84.25
X63.85Y-84.25
X65.2Y-94.6
X66.0Y-94.6
X67.25Y-94.5
X67.25Y-97.0
X67.25Y-97.75
X67.75Y-96.25
X68.25Y-79.5
X68.5Y-82.462
X69.25Y-92.175
X69.25Y-92.925
X69.25Y-93.675
X69.951Y-65.951
X70.5Y-92.175
X70.5Y-93.675
X70.7Y-64.9
X71.25Y-97.0
X71.5Y-65.25
X71.75Y-92.175
X71.75Y-92.925
X71.75Y-93.675
X72.25Y-81.55
X72.4Y-63.15
X72.5Y-85.25
X72.5Y-87.5
X72.75Y-79.5
X73.4Y-91.8
X73.4Y-92.8
X73.4Y-93.8
X74.0Y-66.0
X74.204Y-62.674
X74.5Y-84.25
X75.0Y-62.75
X75.5Y-70.25
X75.75Y-63.15
X76.2Y-92.0
X76.25Y-61.5
X76.8Y-88.15
X77.0Y-61.5
X77.0Y-83.25
X77.75Y-57.0
X77.75Y-61.5
X78.2Y-94.6
X79.75Y-81.55
X79.768Y-54.432
X80.5Y-40.75
X80.518Y-55.182
X80.75Y-35.0
X81.0Y-47.4
X81.05Y-38.5
X81.232Y-79.532
X81.25Y-40.25
X81.5Y-35.0
X81.75Y-38.5
X82.0Y-76.75
X82.25Y-35.0
X82.3Y-43.4
X82.3Y-44.6
X82.3Y-50.8
X83.2Y-95.5
X83.5Y-58.25
X84.2Y-95.5
X85.2Y-95.5
X85.25Y-60.5
X85.402Y-75.362
X85.75Y-53.75
X86.5Y-51.25
X86.5Y-81.25
X87.25Y-51.25
X88.0Y-56.75
X88.25Y-42.75
X88.25Y-43.5
X88.25Y-44.25
X88.25Y-46.25
X88.25Y-47.0
X88.25Y-83.75
X88.75Y-68.0
X88.75Y-70.0
X89.0Y-83.75
X89.0Y-96.0
X89.0Y-97.25
X89.163Y-72.238
X89.5Y-47.75
X89.5Y-48.5
X90.0Y-53.75
X90.0Y-84.75
X90.0Y-85.5
X90.25Y-49.25
X90.5Y-47.0
X90.5Y-88.5
X90.5Y-89.25
X90.5Y-90.0
X90.75Y-45.5
X90.925Y-64.0
X90.997Y-59.741
X91.0Y-49.25
X91.0Y-90.75
X91.0Y-91.5
X91.25Y-36.5
X91.25Y-37.25
X91.25Y-38.25
X91.25Y-60.5
X91.25Y-72.25
X91.25Y-73.25
X91.525Y-65.0
X92.0Y-38.25
X92.0Y-66.4
X92.0Y-87.5
X92.15Y-55.25
X92.25Y-61.5
X92.25Y-73.25
X92.5Y-34.5
X92.5Y-35.25
X92.5Y-95.25
X92.5Y-96.0
X92.6Y-51.0
X92.75Y-38.25
X92.75Y-66.0
X92.816Y-73.816
X93.0Y-47.75
X93.0Y-58.25
X93.25Y-60.0
X93.662Y-54.162
X93.75Y-92.0
X94.018Y-80.537
X94.1Y-66.1
X94.15Y-74.5
X94.15Y-78.701
X94.513Y-70.987
X94.65Y-54.023
X94.75Y-58.75
X94.75Y-64.0
X95.0Y-92.0
X95.078Y-71.553
X95.25Y-94.75
X95.65Y-91.5
X95.75Y-72.0
X96.05Y-90.0
X96.475Y-71.025
X96.5Y-75.75
X96.52Y-52.422
X96.65Y-90.75
X96.75Y-63.25
X96.75Y-65.25
X97.0Y-47.75
X97.25Y-52.75
X97.25Y-89.0
X97.5Y-42.0
X97.5Y-73.25
X97.75Y-87.0
X97.824Y-50.976
X98.0Y-61.35
X98.0Y-76.5
X98.0Y-79.75
X98.25Y-42.0
X98.25Y-88.75
X98.5Y-87.0
X98.75Y-65.25
X98.75Y-79.75
X98.8Y-61.9
X98.8Y-62.6
X99.0Y-42.0
X99.231Y-87.0
X99.25Y-42.75
X99.25Y-75.25
X99.4Y-61.9
X99.4Y-62.6
X99.5Y-46.1
X99.5Y-79.75
X100.25Y-38.5
X100.25Y-39.25
X100.25Y-40.0
X100.25Y-79.75
X100.25Y-80.5
X100.5Y-92.45
X100.9Y-57.65
X101.0Y-97.25
X101.25Y-46.0
X101.419Y-76.535
X101.65Y-67.5
X101.75Y-43.0
X101.75Y-43.75
X101.75Y-44.5
X101.75Y-49.25
X101.75Y-50.0
X102.0Y-46.25
X102.6Y-96.0
X102.85Y-92.45
X103.6Y-92.45
X103.7Y-61.0
X104.0Y-65.2
X104.3Y-61.0
X104.6Y-92.25
X104.9Y-61.0
X105.5Y-61.0
X106.0Y-72.5
X106.1Y-61.0
X106.7Y-61.0
X106.8Y-90.85
X106.85Y-91.7
X107.35Y-89.75
X107.7Y-42.9
X107.7Y-44.1
X108.1Y-89.75
X108.35Y-92.2
X108.35Y-92.95
X108.6Y-50.1
X108.6Y-94.2
X108.6Y-94.95
X109.0Y-66.0
X109.0Y-66.75
X109.0Y-68.25
X109.0Y-69.0
X109.0Y-69.75
X110.239Y-59.4
X111.7Y-42.8
X112.451Y-76.1
X112.459Y-80.541
X113.25Y-94.535
X113.25Y-95.285
X113.375Y-76.1
X113.539Y-57.75
X113.539Y-58.7
X113.539Y-59.5
X113.539Y-60.4
X113.539Y-61.25
X113.918Y-78.1
X114.0Y-93.535
X114.136Y-78.87
X114.47Y-72.47
X114.5Y-74.75
X114.704Y-79.434
X114.75Y-35.0
X114.75Y-93.535
X115.25Y-40.75
X115.5Y-34.25
X115.5Y-35.0
X115.5Y-38.25
X116.25Y-35.0
X116.425Y-47.8
X116.926Y-89.676
X117.5Y-48.5
X117.688Y-74.85
X118.25Y-78.75
X118.438Y-74.85
X118.6Y-90.516
X118.799Y-79.451
X119.188Y-73.35
X119.188Y-74.1
X119.188Y-74.85
X119.5Y-64.0
X119.5Y-64.75
X119.5Y-65.5
X119.5Y-66.25
X119.5Y-67.0
X119.5Y-67.75
X119.75Y-71.5
X121.5Y-71.5
X122.25Y-74.0
X123.0Y-74.0
X123.75Y-74.0
X124.5Y-74.0
X124.6Y-89.75
X124.75Y-90.766
X125.0Y-54.25
X125.25Y-74.0
X126.0Y-74.0
X126.75Y-81.75
X126.75Y-82.75
X126.8Y-97.55
X127.5Y-83.5
X127.5Y-97.55
X128.0Y-80.5
X128.25Y-83.5
X129.0Y-54.25
X129.5Y-78.0
X129.55Y-81.5
X130.75Y-88.5
X130.75Y-89.25
X131.0Y-80.5
X131.0Y-85.5
X131.0Y-86.25
X131.25Y-88.0
X131.75Y-86.25
X132.0Y-57.0
X132.0Y-88.0
X132.5Y-86.25
X132.75Y-57.0
X132.75Y-87.75
X133.5Y-55.25
X133.5Y-56.0
X133.5Y-56.75
X134.25Y-47.25
X134.25Y-48.0
X134.25Y-48.75
X134.25Y-49.5
X134.25Y-50.25
X134.25Y-51.0
X137.25Y-78.75
X137.25Y-79.5
X137.25Y-80.25
X137.25Y-81.0
T2
X61.7Y-93.25
X61.7Y-95.25
X61.7Y-97.25
X137.43Y-73.25
X137.43Y-75.25
T3
X65.0Y-44.0
X65.0Y-49.0
X79.5Y-44.0
X79.5Y-46.5
X79.5Y-49.0
X110.5Y-44.0
X110.5Y-46.5
X110.5Y-49.0
X125.0Y-44.0
X125.0Y-49.0
T5
X54.0Y-34.0
X54.0Y-96.0
X136.0Y-34.0
X136.0Y-96.0
T4
X72.5Y-40.7G85X71.5Y-40.7
G05
X72.5Y-52.3G85X71.5Y-52.3
G05
X117.5Y-40.7G85X118.5Y-40.7
G05
X117.5Y-52.3G85X118.5Y-52.3
G05
M30
